v 0.500000 0.500000 -0.920000
v -0.500000 0.500000 -0.920000
v 0.500000 -0.978579 0.641421
v 0.500000 -0.978579 -0.358579
v 0.500000 -0.920000 0.500000
v 0.500000 0.600000 -0.946795
v 0.500000 -0.978579 0.358579
v 0.500000 -0.920000 -0.500000
v -0.500000 -0.978579 0.641421
v 0.500000 -0.978579 -0.641421
v -0.500000 -0.978579 -0.358579
v -0.500000 -0.920000 0.500000
v -0.500000 -0.920000 -0.500000
v 0.536603 -0.983397 0.641421
v -0.500000 -0.978579 0.358579
v 0.544829 -0.952697 0.600000
v 0.500000 0.000000 -0.920000
v -0.500000 -0.978579 -0.641421
v 0.550000 -0.933397 0.551764
v 0.500000 -0.500000 -0.920000
v 0.551764 -0.926815 0.500000
v 0.536603 -0.983397 -0.358579
v 0.550000 -0.933397 0.448236
v 0.544829 -0.952697 0.400000
v 0.544829 -0.952697 -0.400000
v 0.500000 0.641421 -0.978579
v 0.536603 -0.983397 0.358579
v 0.550000 -0.933397 -0.448236
v 0.500000 0.100000 -0.946795
v 0.500000 0.141421 -0.978579
v 0.551764 -0.926815 -0.500000
v 0.550000 -0.933397 -0.551764
v 0.570711 -0.997526 0.641421
v -0.463397 -0.983397 0.641421
v 0.586603 -0.970000 0.600000
v 0.500000 -0.400000 -0.946795
v 0.596593 -0.952697 0.551764
v 0.544829 -0.952697 -0.600000
v 0.600000 -0.946795 0.500000
v 0.536603 -0.983397 -0.641421
v 0.596593 -0.952697 0.448236
v -0.455171 -0.952697 0.600000
v 0.586603 -0.970000 0.400000
v -0.450000 -0.933397 0.551764
v 0.570711 -0.997526 0.358579
v -0.750000 -0.750000 -1.000000
v -0.463397 -0.983397 -0.358579
v -0.448236 -0.926815 0.500000
v 0.570711 -0.997526 -0.358579
v -0.450000 -0.933397 0.448236
v 0.622474 -0.997526 0.600000
v 0.586603 -0.970000 -0.400000
v 0.636603 -0.983397 0.551764
v -0.500000 0.600000 -0.946795
v 0.641421 -0.978579 0.500000
v -0.455171 -0.952697 0.400000
v 0.636603 -0.983397 0.448236
v 0.596593 -0.952697 -0.448236
v -0.455171 -0.952697 -0.400000
v 0.622474 -0.997526 0.400000
v 0.600000 -0.946795 -0.500000
v -0.463397 -0.983397 0.358579
v 0.596593 -0.952697 -0.551764
v 0.513397 0.550000 -0.926815
v 0.586603 -0.970000 -0.600000
v 0.500000 -0.358579 -0.978579
v 0.570711 -0.997526 -0.641421
v -0.450000 -0.933397 -0.448236
v -0.448236 -0.926815 -0.500000
v -0.500000 0.000000 -0.920000
v -0.450000 -0.933397 -0.551764
v -0.429289 -0.997526 0.641421
v 0.525882 0.596593 -0.946795
v 0.622474 -0.997526 -0.400000
v 0.636603 -0.983397 -0.448236
v -0.413397 -0.970000 0.600000
v -0.403407 -0.952697 0.551764
v 0.641421 -0.978579 -0.500000
v 0.636603 -0.983397 -0.551764
v -0.455171 -0.952697 -0.600000
v -0.400000 -0.946795 0.500000
v 0.622474 -0.997526 -0.600000
v 0.536603 0.636603 -0.978579
v -0.403407 -0.952697 0.448236
v -0.500000 0.641421 -0.978579
v -0.413397 -0.970000 0.400000
v -0.463397 -0.983397 -0.641421
v -0.429289 -0.997526 0.358579
v 0.513397 0.050000 -0.926815
v -0.500000 0.100000 -0.946795
v 0.525882 0.096593 -0.946795
v -0.500000 -0.500000 -0.920000
v 0.536603 0.136603 -0.978579
v -0.429289 -0.997526 -0.358579
v -0.377526 -0.997526 0.600000
v -0.500000 0.141421 -0.978579
v -0.413397 -0.970000 -0.400000
v -0.363397 -0.983397 0.551764
v -0.358579 -0.978579 0.500000
v -0.403407 -0.952697 -0.448236
v -0.363397 -0.983397 0.448236
v -0.500000 -0.400000 -0.946795
v -0.377526 -0.997526 0.400000
v 0.513397 -0.450000 -0.926815
v -0.400000 -0.946795 -0.500000
v -0.750000 -1.000000 -0.750000
v -0.403407 -0.952697 -0.551764
v 0.525882 0.544829 -0.926815
v -0.413397 -0.970000 -0.600000
v 0.525882 -0.403407 -0.946795
v -0.429289 -0.997526 -0.641421
v 0.550000 0.586603 -0.946795
v -1.000000 -0.750000 -0.750000
v 0.570711 0.622474 -0.978579
v 0.536603 -0.363397 -0.978579
v -0.486603 0.550000 -0.926815
v -0.377526 -0.997526 -0.400000
v -0.997526 0.622474 0.600000
v -0.363397 -0.983397 -0.448236
v -0.997526 -0.377526 0.600000
v -0.997526 0.622474 -0.400000
v -0.358579 -0.978579 -0.500000
v -0.363397 -0.983397 -0.551764
v -0.983397 0.636603 0.551764
v -0.978579 0.641421 0.500000
v -0.377526 -0.997526 -0.600000
v -0.983397 0.636603 -0.448236
v -0.983397 0.636603 0.448236
v -0.997526 0.122474 0.100000
v -0.997526 0.622474 0.400000
v -0.978579 0.641421 -0.500000
v -0.997526 -0.377526 -0.400000
v -0.983397 0.136603 0.051764
v -0.983397 0.636603 -0.551764
v -0.997526 0.622474 -0.600000
v -0.978579 0.141421 0.000000
v -0.997526 0.570711 0.641421
v -0.983397 -0.363397 0.551764
v -0.500000 -0.358579 -0.978579
v -0.970000 0.586603 0.600000
v -0.952697 0.596593 0.551764
v -0.983397 0.136603 -0.051764
v -0.978579 -0.358579 0.500000
v -0.946795 0.600000 0.500000
v -0.952697 0.596593 0.448236
v -0.997526 0.122474 -0.100000
v -0.970000 0.586603 0.400000
v -0.997526 0.570711 -0.358579
v 0.525882 0.044829 -0.926815
v -0.997526 0.570711 0.358579
v -0.970000 0.586603 -0.400000
v -0.983397 -0.363397 0.448236
v -0.983397 -0.363397 -0.448236
v -0.952697 0.596593 -0.448236
v -0.946795 0.600000 -0.500000
v -0.983397 0.536603 0.641421
v -0.997526 -0.377526 0.400000
v -0.952697 0.544829 0.600000
v -0.750000 -0.814682 -0.991488
v -0.933398 0.550000 0.551764
v -0.952697 0.596593 -0.551764
v -0.926815 0.551764 0.500000
v -0.997526 0.070711 0.141421
v -0.933398 0.550000 0.448236
v -0.952697 0.544829 0.400000
v -0.970000 0.586603 -0.600000
v -0.983397 0.536603 0.358579
v -0.978579 -0.358579 -0.500000
v -0.997526 0.570711 -0.641421
v -0.970000 0.086603 0.100000
v 0.550000 0.086603 -0.946795
v -0.952697 0.096593 0.051764
v -0.978579 0.500000 0.641421
v -0.983397 -0.363397 -0.551764
v -0.983397 0.536603 -0.358579
v -0.946795 0.500000 0.600000
v -0.946795 0.100000 0.000000
v -0.926815 0.500000 0.551764
v -0.997526 -0.377526 -0.600000
v -0.920000 0.500000 0.500000
v -0.952697 0.544829 -0.400000
v -0.926815 0.500000 0.448236
v -0.952697 0.096593 -0.051764
v -0.946795 0.500000 0.400000
v -0.933398 0.550000 -0.448236
v -0.978579 0.500000 0.358579
v -0.474118 0.596593 -0.946795
v 0.622474 0.997526 0.600000
v -0.926815 0.551764 -0.500000
v 0.122474 0.997526 0.100000
v 0.636603 0.983397 0.551764
v 0.641421 0.978579 0.500000
v -0.377526 0.997526 -0.400000
v 0.136603 0.983397 0.051764
v 0.636603 0.983397 0.448236
v 0.141421 0.978579 0.000000
v 0.622474 0.997526 0.400000
v -0.363397 0.983397 -0.448236
v 0.136603 0.983397 -0.051764
v -0.970000 0.086603 -0.100000
v 0.122474 0.997526 -0.100000
v -0.933398 0.550000 -0.551764
v 0.570711 0.997526 0.641421
v -0.358579 0.978579 -0.500000
v -0.363397 0.983397 -0.551764
v 0.586603 0.970000 0.600000
v 0.570711 0.122474 -0.978579
v 0.596593 0.952697 0.551764
v 0.600000 0.946795 0.500000
v -0.983397 0.463397 0.641421
v 0.596593 0.952697 0.448236
v -0.377526 0.997526 -0.600000
v 0.070711 0.997526 0.141421
v 0.586603 0.970000 0.400000
v 0.570711 0.997526 0.358579
v -0.952697 0.544829 -0.600000
v -0.952697 0.455171 0.600000
v 0.086603 0.970000 0.100000
v -0.997526 0.070711 -0.141421
v 0.096593 0.952697 0.051764
v 0.100000 0.946795 0.000000
v 0.536603 0.983397 0.641421
v 0.544829 0.952697 0.600000
v -0.933398 0.450000 0.551764
v 0.550000 0.933398 0.551764
v -0.983397 0.536603 -0.641421
v 0.096593 0.952697 -0.051764
v 0.551764 0.926815 0.500000
v 0.086603 0.970000 -0.100000
v 0.550000 0.933398 0.448236
v -0.926815 0.448236 0.500000
v 0.544829 0.952697 0.400000
v 0.070711 0.997526 -0.141421
v 0.536603 0.983397 0.358579
v -0.429289 0.997526 -0.358579
v -0.413397 0.970000 -0.400000
v -0.997526 -0.429289 0.641421
v -0.403407 0.952697 -0.448236
v 0.500000 0.978579 0.641421
v -0.933398 0.450000 0.448236
v 0.500000 0.946795 0.600000
v 0.036603 0.983397 0.141421
v 0.500000 0.926815 0.551764
v -0.750000 -0.875020 -0.966495
v 0.044829 0.952697 0.100000
v 0.500000 0.920000 0.500000
v -0.400000 0.946795 -0.500000
v 0.500000 0.926815 0.448236
v 0.050000 0.933398 0.051764
v 0.500000 0.946795 0.400000
v -0.952697 0.455171 0.400000
v 0.500000 0.978579 0.358579
v 0.051764 0.926815 0.000000
v -0.403407 0.952697 -0.551764
v 0.377526 -0.997526 0.600000
v 0.363398 -0.983398 0.551764
v -0.413397 0.970000 -0.600000
v 0.358579 -0.978579 0.500000
v 0.050000 0.933398 -0.051764
v 0.363398 -0.983398 0.448236
v 0.044829 0.952697 -0.100000
v 0.463397 0.983397 0.641421
v 0.377526 -0.997526 0.400000
v 0.455171 0.952697 0.600000
v -0.970000 -0.413397 0.600000
v 0.036603 0.983397 -0.141421
v 0.450000 0.933398 0.551764
v -0.983397 0.463397 0.358579
v 0.448236 0.926815 0.500000
v 0.429289 -0.997526 0.641421
v -0.429289 0.997526 -0.641421
v 0.413397 -0.970000 0.600000
v 0.403407 -0.952697 0.551764
v 0.450000 0.933398 0.448236
v 0.400000 -0.946795 0.500000
v 0.536603 0.536603 -0.926815
v 0.455171 0.952697 0.400000
v 0.403407 -0.952697 0.448236
v 0.463397 0.983397 0.358579
v 0.413397 -0.970000 0.400000
v 0.429289 -0.997526 0.358579
v -0.952697 -0.403407 0.551764
v -0.978579 0.500000 -0.358579
v -0.946795 0.500000 -0.400000
v 0.000000 0.978579 0.141421
v -0.983397 0.036603 0.141421
v 0.429289 0.997526 0.641421
v 0.463397 -0.983397 0.641421
v -0.000000 0.946795 0.100000
v 0.455171 -0.952697 0.600000
v 0.377526 -0.997526 -0.400000
v 0.450000 -0.933398 0.551764
v 0.363398 -0.983398 -0.448236
v 0.448236 -0.926815 0.500000
v 0.413397 0.970000 0.600000
v 0.450000 -0.933398 0.448236
v 0.358579 -0.978579 -0.500000
v 0.455171 -0.952697 0.400000
v 0.463397 -0.983397 0.358579
v 0.000000 0.926815 0.051764
v 0.363398 -0.983398 -0.551764
v 0.403407 0.952697 0.551764
v 0.377526 -0.997526 -0.600000
v 0.500000 -0.946795 0.600000
v -0.463397 0.983397 -0.358579
v -0.000000 0.920000 0.000000
v 0.500000 -0.926815 0.551764
v 0.500000 -0.926815 0.448236
v 0.400000 0.946795 0.500000
v 0.500000 -0.946795 0.400000
v -0.455171 0.952697 -0.400000
v 0.403407 0.952697 0.448236
v 0.000000 0.926815 -0.051764
v 0.429289 -0.997526 -0.358579
v 0.413397 0.970000 0.400000
v -0.997526 0.429289 0.641421
v 0.413397 -0.970000 -0.400000
v 0.429289 0.997526 0.358579
v 0.403407 -0.952697 -0.448236
v -0.000000 0.946795 -0.100000
v 0.400000 -0.946795 -0.500000
v -0.926815 0.500000 -0.448236
v 0.403407 -0.952697 -0.551764
v -0.450000 0.933398 -0.448236
v 0.413397 -0.970000 -0.600000
v 0.429289 -0.997526 -0.641421
v 0.000000 0.978579 -0.141421
v -0.970000 0.413397 0.600000
v -0.448236 0.926815 -0.500000
v 0.377526 0.997526 0.600000
v 0.570711 0.570711 -0.946795
v 0.463397 -0.983397 -0.358579
v 0.363398 0.983397 0.551764
v -0.450000 0.933398 -0.551764
v 0.455171 -0.952697 -0.400000
v 0.450000 -0.933398 -0.448236
v -0.622474 -0.997526 0.600000
v 0.448236 -0.926815 -0.500000
v 0.358579 0.978579 0.500000
v -0.636603 -0.983398 0.551764
v 0.450000 -0.933398 -0.551764
v -0.036603 0.983397 0.141421
v 0.455171 -0.952697 -0.600000
v 0.463397 -0.983397 -0.641421
v -0.641421 -0.978579 0.500000
v 0.363398 0.983397 0.448236
v -0.636603 -0.983398 0.448236
v -0.622474 -0.997526 0.400000
v 0.377526 0.997526 0.400000
v 0.500000 -0.946795 -0.400000
v -0.952697 0.403407 0.551764
v 0.500000 -0.926815 -0.448236
v -0.455171 0.952697 -0.600000
v 0.500000 -0.926815 -0.551764
v 0.500000 -0.946795 -0.600000
v -0.044829 0.952697 0.100000
v -0.463397 0.983397 -0.641421
v -0.050000 0.933398 0.051764
v -0.570711 -0.997526 0.641421
v -0.920000 0.500000 -0.500000
v -0.586603 -0.970000 0.600000
v -0.051764 0.926815 0.000000
v -0.050000 0.933398 -0.051764
v -0.596593 -0.952697 0.551764
v -0.946795 0.400000 0.500000
v -0.600000 -0.946795 0.500000
v -0.044829 0.952697 -0.100000
v -0.596593 -0.952697 0.448236
v -0.952697 0.044829 0.100000
v -0.586603 -0.970000 0.400000
v -0.952697 0.403407 0.448236
v -0.570711 -0.997526 0.358579
v -0.036603 0.983397 -0.141421
v -0.926815 0.500000 -0.551764
v -0.970000 0.413397 0.400000
v -0.500000 0.978579 -0.358579
v -0.536603 -0.983397 0.641421
v -0.500000 0.946795 -0.400000
v -0.946795 -0.400000 0.500000
v -0.544829 -0.952697 0.600000
v -0.622474 -0.997526 -0.400000
v -0.550000 -0.933398 0.551764
v -0.551764 -0.926815 0.500000
v -0.070711 0.997526 0.141421
v -0.636603 -0.983398 -0.448236
v -0.550000 -0.933398 0.448236
v -0.641421 -0.978579 -0.500000
v -0.544829 -0.952697 0.400000
v -0.086603 0.970000 0.100000
v -0.536603 -0.983397 0.358579
v -0.997526 0.429289 0.358579
v -0.636603 -0.983398 -0.551764
v -0.500000 0.926815 -0.448236
v -0.500000 -0.946795 0.600000
v -0.622474 -0.997526 -0.600000
v -0.096593 0.952697 0.051764
v -0.500000 -0.926815 0.551764
v -0.500000 -0.926815 0.448236
v -0.500000 0.920000 -0.500000
v -0.100000 0.946795 0.000000
v -0.500000 -0.946795 0.400000
v -0.933398 0.050000 0.051764
v -0.096593 0.952697 -0.051764
v -0.570711 -0.997526 -0.358579
v -0.946795 0.500000 -0.600000
v -0.586603 -0.970000 -0.400000
v -0.086603 0.970000 -0.100000
v -0.070711 0.997526 -0.141421
v -0.596593 -0.952697 -0.448236
v -0.500000 0.926815 -0.551764
v -0.600000 -0.946795 -0.500000
v -0.500000 0.946795 -0.600000
v -0.596593 -0.952697 -0.551764
v -0.463397 0.636603 -0.978579
v -0.586603 -0.970000 -0.600000
v -0.570711 -0.997526 -0.641421
v -0.500000 0.978579 -0.641421
v -0.978579 0.500000 -0.641421
v -0.952697 -0.403407 0.448236
v -0.122474 0.997526 0.100000
v -0.926815 0.051764 0.000000
v -0.997526 0.377526 0.600000
v -0.536603 -0.983397 -0.358579
v -0.136602 0.983397 0.051764
v -0.544829 -0.952697 -0.400000
v -0.550000 -0.933398 -0.448236
v -0.141421 0.978579 0.000000
v -0.983397 0.363397 0.551764
v -0.551764 -0.926815 -0.500000
v -0.536603 0.983397 -0.358579
v -0.550000 -0.933398 -0.551764
v -0.544829 -0.952697 -0.600000
v -0.136602 0.983397 -0.051764
v -0.536603 -0.983397 -0.641421
v -0.122474 0.997526 -0.100000
v -0.997526 -0.429289 -0.358579
v -0.933398 0.050000 -0.051764
v -0.544829 0.952697 -0.400000
v -0.978579 0.358579 0.500000
v -0.500000 -0.946795 -0.400000
v -0.550000 0.933398 -0.448236
v -0.500000 -0.926815 -0.448236
v -0.983397 0.363397 0.448236
v -0.500000 -0.926815 -0.551764
v -0.551764 0.926815 -0.500000
v -0.500000 -0.946795 -0.600000
v -0.550000 0.933398 -0.551764
v -0.983397 0.463397 -0.358579
v -0.544829 0.952697 -0.600000
v -0.997526 0.377526 0.400000
v -0.536603 0.983397 -0.641421
v -0.970000 -0.413397 0.400000
v -0.952697 0.455171 -0.400000
v -0.952697 0.044829 -0.100000
v 0.600000 0.600000 -0.978579
v -0.933398 0.450000 -0.448236
v -0.926815 0.448236 -0.500000
v -0.570711 0.997526 -0.358579
v -0.983397 0.036603 -0.141421
v -0.586603 0.970000 -0.400000
v -0.596593 0.952697 -0.448236
v -0.997526 -0.429289 0.358579
v -0.600000 0.946795 -0.500000
v -0.933398 0.450000 -0.551764
v -0.952697 0.455171 -0.600000
v -0.596593 0.952697 -0.551764
v -0.586603 0.970000 -0.600000
v -0.970000 -0.413397 -0.400000
v 0.000000 0.141421 0.978579
v -0.570711 0.997526 -0.641421
v -0.983397 0.463397 -0.641421
v -0.952697 -0.403407 -0.448236
v -0.978579 0.000000 0.141421
v -0.486603 0.050000 -0.926815
v -0.946795 0.000000 0.100000
v -0.946795 -0.400000 -0.500000
v -0.622474 0.997526 -0.400000
v -0.997526 0.429289 -0.358579
v -0.636603 0.983397 -0.448236
v -0.641421 0.978579 -0.500000
v -0.970000 0.413397 -0.400000
v -0.636603 0.983397 -0.551764
v -0.926815 0.000000 0.051764
v -0.622474 0.997526 -0.600000
v -0.952697 0.403407 -0.448236
v -0.983397 -0.463397 0.641421
v -0.946795 0.400000 -0.500000
v -0.920000 -0.000000 0.000000
v -0.952697 0.403407 -0.551764
v -0.474118 0.096593 -0.946795
v -0.970000 0.413397 -0.600000
v -0.926815 0.000000 -0.051764
v -0.952697 -0.455171 0.600000
v -0.997526 0.429289 -0.641421
v -0.946795 0.000000 -0.100000
v -0.933398 -0.450000 0.551764
v 0.525882 -0.455171 -0.926815
v -0.978579 0.000000 -0.141421
v -0.952697 -0.403407 -0.551764
v -0.997526 0.377526 -0.400000
v -0.926815 -0.448236 0.500000
v -0.983397 0.363397 -0.448236
v 0.550000 -0.413397 -0.946795
v -0.978579 0.358579 -0.500000
v -0.933398 -0.450000 0.448236
v -0.970000 -0.413397 -0.600000
v -0.983397 0.363397 -0.551764
v -0.983397 -0.036603 0.141421
v -0.997526 0.377526 -0.600000
v -0.952697 -0.044829 0.100000
v -0.952697 -0.455171 0.400000
v -0.750000 -0.926777 -0.926777
v -0.933398 -0.050000 0.051764
v -0.983397 -0.463397 0.358579
v -0.926815 -0.051764 0.000000
v -0.997526 -0.429289 -0.641421
v -0.933398 -0.050000 -0.051764
v 0.570711 -0.377526 -0.978579
v -0.952697 -0.044829 -0.100000
v -0.983397 -0.036603 -0.141421
v 0.000000 0.100000 0.946795
v 0.536603 0.036603 -0.926815
v -0.463397 0.136603 -0.978579
v -0.978579 -0.500000 0.641421
v -0.983397 -0.463397 -0.358579
v -0.946795 -0.500000 0.600000
v -0.997526 -0.070711 0.141421
v 0.544829 0.525882 -0.926815
v -0.970000 -0.086603 0.100000
v -0.926815 -0.500000 0.551764
v -0.952697 -0.096593 0.051764
v -0.920000 -0.500000 0.500000
v -0.946795 -0.100000 0.000000
v -0.952697 -0.096593 -0.051764
v 0.586603 0.550000 -0.946795
v -0.970000 -0.086603 -0.100000
v -0.926815 -0.500000 0.448236
v -0.997526 -0.070711 -0.141421
v -0.952697 -0.455171 -0.400000
v -0.933398 -0.450000 -0.448236
v -0.946795 -0.500000 0.400000
v -0.978579 -0.500000 0.358579
v 0.570711 0.070711 -0.946795
v -0.926815 -0.448236 -0.500000
v 0.622474 0.570711 -0.978579
v -0.997526 -0.122474 0.100000
v -0.486603 -0.450000 -0.926815
v -0.983397 -0.136603 0.051764
v -0.978579 -0.141421 0.000000
v -0.933398 -0.450000 -0.551764
v -0.952697 -0.455171 -0.600000
v -0.983397 -0.136603 -0.051764
v -0.983397 -0.536603 0.641421
v -0.997526 -0.122474 -0.100000
v 0.600000 0.100000 -0.978579
v -0.952697 -0.544829 0.600000
v -0.983397 -0.463397 -0.641421
v -0.933398 -0.550000 0.551764
v -0.814682 -0.750000 -0.991488
v -0.926815 -0.551764 0.500000
v -0.474118 0.544829 -0.926815
v -0.933398 -0.550000 0.448236
v 0.000000 0.051764 0.926815
v -0.952697 -0.544829 0.400000
v -0.983397 -0.536603 0.358579
v -0.474118 -0.403407 -0.946795
v -0.450000 0.586603 -0.946795
v -0.463397 -0.363397 -0.978579
v -0.978579 -0.500000 -0.358579
v 0.536603 -0.463397 -0.926815
v -0.946795 -0.500000 -0.400000
v -0.997526 -0.570711 0.641421
v -0.926815 -0.500000 -0.448236
v -0.970000 -0.586603 0.600000
v -0.429289 0.622474 -0.978579
v -0.952697 -0.596593 0.551764
v -0.946795 -0.600000 0.500000
v 0.550000 0.513397 -0.926815
v -0.920000 -0.500000 -0.500000
v -0.952697 -0.596593 0.448236
v -0.970000 -0.586603 0.400000
v 0.596593 0.525882 -0.946795
v -0.997526 -0.570711 0.358579
v -0.926815 -0.500000 -0.551764
v -0.946795 -0.500000 -0.600000
v 0.544829 0.025882 -0.926815
v -0.978579 -0.500000 -0.641421
v -0.816718 -0.817268 -0.981352
v 0.636603 0.536603 -0.978579
v -0.997526 -0.622474 0.600000
v 0.570711 -0.429289 -0.946795
v 0.586603 0.050000 -0.946795
v -0.983397 -0.636603 0.551764
v 0.622474 0.070711 -0.978579
v -0.978579 -0.641421 0.500000
v -0.983397 -0.536603 -0.358579
v -0.983397 -0.636603 0.448236
v 0.600000 -0.400000 -0.978579
v -0.997526 -0.622474 0.400000
v 0.000000 0.000000 0.920000
v -0.952697 -0.544829 -0.400000
v -0.933398 -0.550000 -0.448236
v -0.815629 -0.875404 -0.956075
v -0.474118 0.044829 -0.926815
v -0.926815 -0.551764 -0.500000
v -0.933398 -0.550000 -0.551764
v -0.814287 -0.920752 -0.920912
v -0.952697 -0.544829 -0.600000
v 0.551764 0.500000 -0.926815
v -0.983397 -0.536603 -0.641421
v -0.450000 0.086603 -0.946795
v 0.600000 0.500000 -0.946795
v -0.875020 -0.750000 -0.966495
v 0.641421 0.500000 -0.978579
v -0.875471 -0.816006 -0.955913
v -0.429289 0.122474 -0.978579
v -0.997526 -0.570711 -0.358579
v -0.463397 0.536603 -0.926815
v -0.970000 -0.586603 -0.400000
v -0.952697 -0.596593 -0.448236
v 0.550000 0.013397 -0.926815
v 0.544829 -0.474118 -0.926815
v -0.946795 -0.600000 -0.500000
v 0.596593 0.025882 -0.946795
v -0.952697 -0.596593 -0.551764
v -0.970000 -0.586603 -0.600000
v -0.869084 -0.869142 -0.934727
v -0.997526 -0.570711 -0.641421
v 0.636603 0.036603 -0.978579
v 0.586603 -0.450000 -0.946795
v -0.429289 0.570711 -0.946795
v 0.550000 0.486603 -0.926815
v -0.863846 -0.907375 -0.907392
v 0.596593 0.474118 -0.946795
v -0.997526 -0.622474 -0.400000
v 0.636603 0.463397 -0.978579
v 0.622474 -0.429289 -0.978579
v -0.983397 -0.636603 -0.448236
v -0.400000 0.600000 -0.978579
v -0.978579 -0.641421 -0.500000
v -0.894338 -0.894338 -0.894338
v -0.983397 -0.636603 -0.551764
v -0.814682 -0.991488 -0.750000
v -0.997526 -0.622474 -0.600000
v -0.474118 -0.455171 -0.926815
v 0.036603 0.136603 0.978579
v 0.551764 -0.000000 -0.926815
v 0.600000 -0.000000 -0.946795
v -0.450000 -0.413397 -0.946795
v 0.641421 0.000000 -0.978579
v 0.544829 0.474118 -0.926815
v 0.586603 0.450000 -0.946795
v -0.875020 -0.966495 -0.750000
v 0.622474 0.429289 -0.978579
v -0.463397 0.036603 -0.926815
v -0.429289 -0.377526 -0.978579
v 0.550000 -0.486603 -0.926815
v -0.455171 0.525882 -0.926815
v 0.596593 -0.474118 -0.946795
v -0.429289 0.070711 -0.946795
v 0.636603 -0.463397 -0.978579
v -0.413397 0.550000 -0.946795
v 0.550000 -0.013397 -0.926815
v -0.926777 -0.926777 -0.750000
v 0.536603 0.463397 -0.926815
v 0.570711 0.429289 -0.946795
v 0.596593 -0.025882 -0.946795
v 0.600000 0.400000 -0.978579
v 0.025882 0.096593 0.946795
v -0.377526 0.570711 -0.978579
v 0.636603 -0.036603 -0.978579
v -0.400000 0.100000 -0.978579
v 0.013397 0.050000 0.926815
v -0.750000 -0.991488 -0.814682
v -0.817268 -0.981352 -0.816718
v -0.875404 -0.956075 -0.815629
v 0.551764 -0.500000 -0.926815
v 0.525882 0.455171 -0.926815
v -0.920752 -0.920912 -0.814287
v 0.550000 0.413397 -0.946795
v 0.600000 -0.500000 -0.946795
v -0.750000 -0.966495 -0.875020
v 0.570711 0.377526 -0.978579
v 0.544829 -0.025882 -0.926815
v 0.586603 -0.050000 -0.946795
v 0.641421 -0.500000 -0.978579
v 0.622474 -0.070711 -0.978579
v -0.816006 -0.955913 -0.875471
v -0.450000 0.513397 -0.926815
v -0.463397 -0.463397 -0.926815
v -0.403407 0.525882 -0.946795
v 0.513397 0.450000 -0.926815
v -0.869142 -0.934727 -0.869084
v -0.363397 0.536603 -0.978579
v 0.525882 0.403407 -0.946795
v -0.455171 0.025882 -0.926815
v 0.536603 0.363397 -0.978579
v -0.429289 -0.429289 -0.946795
v -0.413397 0.050000 -0.946795
v 0.550000 -0.513397 -0.926815
v 0.536603 -0.036603 -0.926815
v 0.596593 -0.525882 -0.946795
v 0.570711 -0.070711 -0.946795
v 0.600000 -0.100000 -0.978579
v -0.377526 0.070711 -0.978579
v -0.400000 -0.400000 -0.978579
v 0.997526 0.377526 0.600000
v 0.983397 0.363397 0.551764
v 0.997526 -0.622474 -0.400000
v 0.978579 0.358579 0.500000
v 0.983397 -0.636603 -0.448236
v 0.983397 0.363397 0.448236
v 0.500000 0.448236 -0.926815
v 0.997526 0.377526 0.400000
v 0.978579 -0.641421 -0.500000
v 0.636603 -0.536603 -0.978579
v 0.500000 0.400000 -0.946795
v 0.983397 -0.636603 -0.551764
v 0.997526 -0.622474 -0.600000
v -0.907375 -0.907392 -0.863846
v 0.997526 0.429289 0.641421
v 0.500000 0.358579 -0.978579
v 0.970000 0.413397 0.600000
v -0.991488 -0.750000 -0.814682
v -0.966495 -0.750000 -0.875020
v 0.952697 0.403407 0.551764
v 0.946795 0.400000 0.500000
v 0.070711 0.122474 0.978579
v -0.926777 -0.750000 -0.926777
v 0.952697 0.403407 0.448236
v -0.448236 0.500000 -0.926815
v 0.970000 0.413397 0.400000
v 0.997526 0.429289 0.358579
v 0.997526 -0.570711 -0.358579
v 0.050000 0.086603 0.946795
v 0.970000 -0.586603 -0.400000
v 0.952697 -0.596593 -0.448236
v 0.525882 -0.044829 -0.926815
v 0.983397 0.463397 0.641421
v -0.400000 0.500000 -0.946795
v 0.952697 0.455171 0.600000
v 0.946795 -0.600000 -0.500000
v 0.933398 0.450000 0.551764
v 0.550000 -0.086603 -0.946795
v 0.926815 0.448236 0.500000
v 0.952697 -0.596593 -0.551764
v 0.486603 0.450000 -0.926815
v 0.933398 0.450000 0.448236
v 0.952697 0.455171 0.400000
v 0.970000 -0.586603 -0.600000
v 0.983397 0.463397 0.358579
v 0.474118 0.403407 -0.946795
v 0.997526 -0.570711 -0.641421
v 0.570711 -0.122474 -0.978579
v -0.991488 -0.814682 -0.750000
v 0.463397 0.363397 -0.978579
v 0.978579 0.500000 0.641421
v 0.544829 -0.525882 -0.926815
v -0.358579 0.500000 -0.978579
v 0.946795 0.500000 0.600000
v 0.983397 -0.536603 -0.358579
v 0.926815 0.500000 0.551764
v 0.586603 -0.550000 -0.946795
v 0.920000 0.500000 0.500000
v 0.926815 0.500000 0.448236
v 0.952697 -0.544829 -0.400000
v 0.933398 -0.550000 -0.448236
v 0.946795 0.500000 0.400000
v 0.622474 -0.570711 -0.978579
v 0.978579 0.500000 0.358579
v 0.926815 -0.551764 -0.500000
v 0.025882 0.044829 0.926815
v -0.450000 0.013397 -0.926815
v 0.933398 -0.550000 -0.551764
v 0.952697 -0.544829 -0.600000
v 0.983397 0.536603 0.641421
v -0.981352 -0.816718 -0.817268
v 0.952697 0.544829 0.600000
v 0.983397 -0.536603 -0.641421
v 0.933398 0.550000 0.551764
v -0.403407 0.025882 -0.946795
v 0.926815 0.551764 0.500000
v -0.455171 -0.474118 -0.926815
v 0.933398 0.550000 0.448236
v 0.952697 0.544829 0.400000
v 0.474118 0.455171 -0.926815
v 0.983397 0.536603 0.358579
v 0.513397 -0.050000 -0.926815
v 0.450000 0.413397 -0.946795
v 0.525882 -0.096593 -0.946795
v 0.978579 -0.500000 -0.358579
v 0.946795 -0.500000 -0.400000
v 0.997526 0.570711 0.641421
v 0.429289 0.377526 -0.978579
v 0.970000 0.586603 0.600000
v -0.363397 0.036603 -0.978579
v 0.952697 0.596593 0.551764
v 0.926815 -0.500000 -0.448236
v 0.946795 0.600000 0.500000
v 0.536603 -0.136603 -0.978579
v 0.920000 -0.500000 -0.500000
v 0.952697 0.596593 0.448236
v 0.970000 0.586603 0.400000
v 0.926815 -0.500000 -0.551764
v 0.997526 0.570711 0.358579
v -0.956075 -0.815629 -0.875404
v 0.946795 -0.500000 -0.600000
v -0.413397 -0.450000 -0.946795
v 0.978579 -0.500000 -0.641421
v -0.920912 -0.814287 -0.920752
v 0.536603 -0.536603 -0.926815
v 0.997526 0.622474 0.600000
v -0.450000 0.486603 -0.926815
v -0.377526 -0.429289 -0.978579
v 0.983397 0.636602 0.551764
v 0.570711 -0.570711 -0.946795
v 0.978579 0.641421 0.500000
v 0.463397 0.463397 -0.926815
v 0.983397 0.636602 0.448236
v 0.983397 -0.463397 -0.358579
v 0.997526 0.622474 0.400000
v 0.429289 0.429289 -0.946795
v 0.952697 -0.455171 -0.400000
v 0.933398 -0.450000 -0.448236
v -0.403407 0.474118 -0.946795
v 0.926815 -0.448236 -0.500000
v 0.400000 0.400000 -0.978579
v 0.933398 -0.450000 -0.551764
v 0.600000 -0.600000 -0.978579
v 0.500000 -0.051764 -0.926815
v 0.952697 -0.455171 -0.600000
v 0.983397 -0.463397 -0.641421
v -0.966495 -0.875020 -0.750000
v -0.363397 0.463397 -0.978579
v 0.500000 -0.100000 -0.946795
v 0.500000 -0.141421 -0.978579
v -0.955913 -0.875471 -0.816006
v -0.934727 -0.869084 -0.869142
v 0.997526 -0.429289 -0.358579
v 0.970000 -0.413397 -0.400000
v -0.907392 -0.863846 -0.907375
v -0.750000 -1.000000 0.750000
v 0.952697 -0.403407 -0.448236
v 0.946795 -0.400000 -0.500000
v 0.455171 0.474118 -0.926815
v 0.952697 -0.403407 -0.551764
v 0.413397 0.450000 -0.946795
v 0.970000 -0.413397 -0.600000
v -0.448236 -0.000000 -0.926815
v 0.997526 -0.429289 -0.641421
v 0.377526 0.429289 -0.978579
v 0.100000 0.100000 0.978579
v -0.400000 -0.000000 -0.946795
v 0.525882 -0.544829 -0.926815
v -0.750000 -0.750000 1.000000
v 0.486603 -0.050000 -0.926815
v 0.997526 -0.377526 -0.400000
v 0.550000 -0.586603 -0.946795
v 0.983397 -0.363398 -0.448236
v -0.455171 0.474118 -0.926815
v 0.978579 -0.358579 -0.500000
v 0.474118 -0.096593 -0.946795
v 0.570711 -0.622474 -0.978579
v 0.983397 -0.363398 -0.551764
v 0.450000 0.486603 -0.926815
v 0.997526 -0.377526 -0.600000
v 0.463397 -0.136603 -0.978579
v 0.070711 0.070711 0.946795
v 0.403407 0.474118 -0.946795
v 0.363397 0.463397 -0.978579
v -0.413397 0.450000 -0.946795
v -0.358579 0.000000 -0.978579
v -0.377526 0.429289 -0.978579
v -1.000000 -0.750000 0.750000
v -0.750000 -0.991488 0.814682
v -0.450000 -0.486603 -0.926815
v -0.403407 -0.474118 -0.946795
v 0.513397 -0.550000 -0.926815
v 0.474118 -0.044829 -0.926815
v 0.450000 -0.086603 -0.946795
v 0.448236 0.500000 -0.926815
v 0.036603 0.036603 0.926815
v 0.400000 0.500000 -0.946795
v 0.429289 -0.122474 -0.978579
v 0.358579 0.500000 -0.978579
v 0.525882 -0.596593 -0.946795
v -0.363397 -0.463397 -0.978579
v 0.536603 -0.636603 -0.978579
v -0.750000 -0.966495 0.875020
v -0.750000 -0.926777 0.926777
v -0.450000 -0.013397 -0.926815
v -0.814682 -0.991488 0.750000
v -0.463397 0.463397 -0.926815
v -0.403407 -0.025882 -0.946795
v 0.450000 0.513397 -0.926815
v 0.403407 0.525882 -0.946795
v 0.463397 -0.036603 -0.926815
v -0.429289 0.429289 -0.946795
v 0.363397 0.536603 -0.978579
v 0.429289 -0.070711 -0.946795
v -0.400000 0.400000 -0.978579
v 0.400000 -0.100000 -0.978579
v -0.816718 -0.981352 0.817268
v -0.815629 -0.956075 0.875404
v 0.500000 -0.551764 -0.926815
v 0.500000 -0.600000 -0.946795
v -0.363397 -0.036603 -0.978579
v -0.814287 -0.920912 0.920752
v 0.455171 0.525882 -0.926815
v 0.413397 0.550000 -0.946795
v 0.500000 -0.641421 -0.978579
v 0.377526 0.570711 -0.978579
v -0.875020 -0.966495 0.750000
v -0.875471 -0.955913 0.816006
v -0.869084 -0.934727 0.869142
v 0.455171 -0.025882 -0.926815
v -0.448236 -0.500000 -0.926815
v 0.413397 -0.050000 -0.946795
v 0.122474 0.070711 0.978579
v 0.377526 -0.070711 -0.978579
v 0.086603 0.050000 0.946795
v 0.463397 0.536603 -0.926815
v -0.474118 0.455171 -0.926815
v -0.450000 0.413397 -0.946795
v 0.429289 0.570711 -0.946795
v 0.486603 -0.550000 -0.926815
v 0.400000 0.600000 -0.978579
v -0.400000 -0.500000 -0.946795
v -0.429289 0.377526 -0.978579
v 0.474118 -0.596593 -0.946795
v -0.358579 -0.500000 -0.978579
v 0.463397 -0.636603 -0.978579
v 0.450000 -0.013397 -0.926815
v -0.455171 -0.025882 -0.926815
v 0.403407 -0.025882 -0.946795
v 0.474118 0.544829 -0.926815
v 0.363397 -0.036603 -0.978579
v -0.863846 -0.907392 0.907375
v 0.450000 0.586603 -0.946795
v 0.429289 0.622474 -0.978579
v -0.413397 -0.050000 -0.946795
v -0.377526 -0.070711 -0.978579
v 0.044829 0.025882 0.926815
v -0.894338 -0.894338 0.894338
v -0.814682 -0.750000 0.991488
v -0.875020 -0.750000 0.966495
v -0.926777 -0.750000 0.926777
v 0.474118 -0.544829 -0.926815
v -0.486603 0.450000 -0.926815
v 0.448236 0.000000 -0.926815
v 0.486603 0.550000 -0.926815
v 0.474118 0.596593 -0.946795
v 0.400000 0.000000 -0.946795
v 0.463397 0.636603 -0.978579
v 0.450000 -0.586603 -0.946795
v -0.750000 -0.814682 0.991488
v 0.358579 0.000000 -0.978579
v 0.429289 -0.622474 -0.978579
v -0.474118 0.403407 -0.946795
v -0.463397 0.363397 -0.978579
v -0.817268 -0.816718 0.981352
v -0.875404 -0.815629 0.956075
v -0.920752 -0.814287 0.920912
v -0.463397 -0.036603 -0.926815
v 0.500000 0.551764 -0.926815
v -0.450000 -0.513397 -0.926815
v -0.429289 -0.070711 -0.946795
v 0.450000 0.013397 -0.926815
v 0.403407 0.025882 -0.946795
v 0.463397 -0.536602 -0.926815
v 0.363397 0.036603 -0.978579
v -0.750000 -0.875020 0.966495
v 0.429289 -0.570711 -0.946795
v -0.400000 -0.100000 -0.978579
v -0.403407 -0.525882 -0.946795
v 0.400000 -0.600000 -0.978579
v -0.500000 0.448236 -0.926815
v 0.136603 0.036603 0.978579
v -0.500000 0.400000 -0.946795
v -0.363397 -0.536603 -0.978579
v -0.500000 0.358579 -0.978579
v 0.455171 0.025882 -0.926815
v 0.413397 0.050000 -0.946795
v -0.816006 -0.875471 0.955913
v 0.377526 0.070711 -0.978579
v -0.869142 -0.869084 0.934727
v 0.096593 0.025882 0.946795
v 0.050000 0.013397 0.926815
v 0.455171 -0.525882 -0.926815
v -0.907375 -0.863846 0.907392
v 0.413397 -0.550000 -0.946795
v -0.991488 -0.814682 0.750000
v 0.377526 -0.570711 -0.978579
v -0.966495 -0.875020 0.750000
v 0.463397 0.036603 -0.926815
v -0.474118 -0.044829 -0.926815
v -0.926777 -0.926777 0.750000
v 0.429289 0.070711 -0.946795
v 0.400000 0.100000 -0.978579
v -0.450000 -0.086603 -0.946795
v -0.513397 0.450000 -0.926815
v -0.525882 0.403407 -0.946795
v -0.429289 -0.122474 -0.978579
v -0.455171 -0.525882 -0.926815
v 0.450000 -0.513397 -0.926815
v -0.536603 0.363397 -0.978579
v 0.403407 -0.525882 -0.946795
v -0.991488 -0.750000 0.814682
v 0.474118 0.044829 -0.926815
v -0.981352 -0.817268 0.816718
v 0.450000 0.086603 -0.946795
v 0.363397 -0.536603 -0.978579
v -0.413397 -0.550000 -0.946795
v 0.429289 0.122474 -0.978579
v -0.377526 -0.570711 -0.978579
v -0.956075 -0.875404 0.815629
v -0.920912 -0.920752 0.814287
v -0.966495 -0.750000 0.875020
v 0.141421 0.000000 0.978579
v -0.955913 -0.816006 0.875471
v -0.525882 0.455171 -0.926815
v -0.486603 -0.050000 -0.926815
v 0.486603 0.050000 -0.926815
v 0.448236 -0.500000 -0.926815
v 0.474118 0.096593 -0.946795
v 0.400000 -0.500000 -0.946795
v 0.463397 0.136603 -0.978579
v -0.550000 0.413397 -0.946795
v 0.358579 -0.500000 -0.978579
v -0.570711 0.377526 -0.978579
v 0.100000 -0.000000 0.946795
v -0.474118 -0.096593 -0.946795
v -0.463397 -0.136603 -0.978579
v -0.934727 -0.869142 0.869084
v -0.907392 -0.907375 0.863846
v 0.051764 -0.000000 0.926815
v -0.750000 0.750000 -1.000000
v 0.500000 0.051764 -0.926815
v -0.463397 -0.536603 -0.926815
v 0.450000 -0.486603 -0.926815
v -1.000000 0.750000 -0.750000
v 0.403407 -0.474118 -0.946795
v -0.429289 -0.570711 -0.946795
v 0.363397 -0.463397 -0.978579
v -0.536603 0.463397 -0.926815
v -0.400000 -0.600000 -0.978579
v -0.570711 0.429289 -0.946795
v -0.750000 1.000000 -0.750000
v -0.600000 0.400000 -0.978579
v -0.814682 0.750000 -0.991488
v -0.500000 -0.051764 -0.926815
v -0.875020 0.750000 -0.966495
v -0.500000 -0.100000 -0.946795
v -0.500000 -0.141421 -0.978579
v 0.455171 -0.474118 -0.926815
v -0.926777 0.750000 -0.926777
v 0.413397 -0.450000 -0.946795
v -0.750000 0.814682 -0.991488
v 0.377526 -0.429289 -0.978579
v -0.817268 0.816718 -0.981352
v -0.875404 0.815629 -0.956075
v -0.544829 0.474118 -0.926815
v 0.136603 -0.036603 0.978579
v -0.586603 0.450000 -0.946795
v -0.920752 0.814287 -0.920912
v -0.622474 0.429289 -0.978579
v 0.096593 -0.025882 0.946795
v -0.474118 -0.544829 -0.926815
v 0.463397 -0.463397 -0.926815
v 0.429289 -0.429289 -0.946795
v -0.750000 0.875020 -0.966495
v -0.450000 -0.586603 -0.946795
v 0.400000 -0.400000 -0.978579
v -0.513397 -0.050000 -0.926815
v -0.525882 -0.096593 -0.946795
v 0.050000 -0.013397 0.926815
v -0.429289 -0.622474 -0.978579
v -0.550000 0.486603 -0.926815
v -0.536603 -0.136603 -0.978579
v -0.816006 0.875471 -0.955913
v -0.596593 0.474118 -0.946795
v 0.474118 -0.455171 -0.926815
v -0.869142 0.869084 -0.934727
v 0.450000 -0.413397 -0.946795
v -0.636603 0.463397 -0.978579
v -0.907375 0.863846 -0.907392
v 0.429289 -0.377526 -0.978579
v -0.894338 0.894338 -0.894338
v -0.991488 0.814682 -0.750000
v -0.966495 0.875020 -0.750000
v -0.926777 0.926777 -0.750000
v -0.991488 0.750000 -0.814682
v -0.981352 0.817268 -0.816718
v -0.525882 -0.044829 -0.926815
v -0.486603 -0.550000 -0.926815
v -0.551764 0.500000 -0.926815
v 0.486603 -0.450000 -0.926815
v 0.474118 -0.403407 -0.946795
v -0.550000 -0.086603 -0.946795
v 0.463397 -0.363397 -0.978579
v -0.600000 0.500000 -0.946795
v -0.641421 0.500000 -0.978579
v -0.474118 -0.596593 -0.946795
v -0.570711 -0.122474 -0.978579
v 0.122474 -0.070711 0.978579
v -0.956075 0.875404 -0.815629
v -0.463397 -0.636603 -0.978579
v 0.086603 -0.050000 0.946795
v 0.044829 -0.025882 0.926815
v -0.920912 0.920752 -0.814287
v 0.500000 -0.448236 -0.926815
v -0.966495 0.750000 -0.875020
v -0.955913 0.816006 -0.875471
v -0.550000 0.513397 -0.926815
v -0.934727 0.869142 -0.869084
v -0.596593 0.525882 -0.946795
v -0.536603 -0.036603 -0.926815
v -0.636603 0.536603 -0.978579
v -0.570711 -0.070711 -0.946795
v -0.907392 0.907375 -0.863846
v -0.600000 -0.100000 -0.978579
v -0.750000 0.991488 -0.814682
v -0.750000 0.966495 -0.875020
v -0.500000 -0.551764 -0.926815
v -0.500000 -0.600000 -0.946795
v -0.750000 0.926777 -0.926777
v -0.544829 0.525882 -0.926815
v -0.814682 0.991488 -0.750000
v -0.500000 -0.641421 -0.978579
v -0.586603 0.550000 -0.946795
v -0.622474 0.570711 -0.978579
v -0.816718 0.981352 -0.817268
v 0.100000 -0.100000 0.978579
v -0.815629 0.956075 -0.875404
v -0.544829 -0.025882 -0.926815
v 0.070711 -0.070711 0.946795
v -0.586603 -0.050000 -0.946795
v -0.814287 0.920912 -0.920752
v -0.622474 -0.070711 -0.978579
v 0.036603 -0.036603 0.926815
v -0.875020 0.966495 -0.750000
v -0.536602 0.536603 -0.926815
v -0.875471 0.955913 -0.816006
v -0.570711 0.570711 -0.946795
v -0.513397 -0.550000 -0.926815
v -0.600000 0.600000 -0.978579
v -0.869084 0.934727 -0.869142
v -0.863846 0.907392 -0.907375
v -0.525882 -0.596593 -0.946795
v -0.536603 -0.636603 -0.978579
v -0.750000 0.750000 1.000000
v -0.550000 -0.013397 -0.926815
v -0.750000 1.000000 0.750000
v -0.596593 -0.025882 -0.946795
v -1.000000 0.750000 0.750000
v -0.525882 0.544829 -0.926815
v -0.550000 0.586603 -0.946795
v -0.636603 -0.036603 -0.978579
v -0.570711 0.622474 -0.978579
v -0.750000 0.814682 0.991488
v 0.070711 -0.122474 0.978579
v -0.750000 0.875020 0.966495
v 0.050000 -0.086603 0.946795
v -0.750000 0.926777 0.926777
v 0.025882 -0.044829 0.926815
v -0.525882 -0.544829 -0.926815
v -0.814682 0.750000 0.991488
v -0.550000 -0.586603 -0.946795
v -0.513397 0.550000 -0.926815
v -0.551764 0.000000 -0.926815
v -0.816718 0.817268 0.981352
v -0.525882 0.596593 -0.946795
v -0.536603 0.636603 -0.978579
v -0.600000 0.000000 -0.946795
v -0.570711 -0.622474 -0.978579
v -0.641421 0.000000 -0.978579
v -0.815629 0.875404 0.956075
v -0.814287 0.920752 0.920912
v -0.875020 0.750000 0.966495
v -0.875471 0.816006 0.955913
v -0.869084 0.869142 0.934727
v -0.863846 0.907375 0.907392
v -0.894338 0.894338 0.894338
v -0.500000 0.551764 -0.926815
v 0.036603 -0.136603 0.978579
v -0.550000 0.013397 -0.926815
v -0.814682 0.991488 0.750000
v 0.025882 -0.096593 0.946795
v -0.596593 0.025882 -0.946795
v -0.636603 0.036603 -0.978579
v -0.536603 -0.536602 -0.926815
v -0.875020 0.966495 0.750000
v -0.570711 -0.570711 -0.946795
v -0.926777 0.926777 0.750000
v -0.600000 -0.600000 -0.978579
v 0.013397 -0.050000 0.926815
v -0.750000 0.991488 0.814682
v -0.817268 0.981352 0.816718
v -0.875404 0.956075 0.815629
v -0.544829 0.025882 -0.926815
v -0.920752 0.920912 0.814287
v -0.750000 0.966495 0.875020
v -0.586603 0.050000 -0.946795
v -0.816006 0.955913 0.875471
v -0.622474 0.070711 -0.978579
v -0.869142 0.934727 0.869084
v -0.544829 -0.525882 -0.926815
v -0.907375 0.907392 0.863846
v -0.586603 -0.550000 -0.946795
v 0.000000 -0.141421 0.978579
v -0.622474 -0.570711 -0.978579
v -0.991488 0.750000 0.814682
v -0.000000 -0.100000 0.946795
v -0.966495 0.750000 0.875020
v -0.536602 0.036603 -0.926815
v -0.000000 -0.051764 0.926815
v -0.570711 0.070711 -0.946795
v -0.926777 0.750000 0.926777
v -0.600000 0.100000 -0.978579
v -0.991488 0.814682 0.750000
v -0.981352 0.816718 0.817268
v -0.956075 0.815629 0.875404
v -0.920912 0.814287 0.920752
v -0.550000 -0.513397 -0.926815
v -0.966495 0.875020 0.750000
v -0.596593 -0.525882 -0.946795
v -0.955913 0.875471 0.816006
v -0.525882 0.044829 -0.926815
v -0.934727 0.869084 0.869142
v -0.550000 0.086603 -0.946795
v -0.636603 -0.536603 -0.978579
v -0.570711 0.122474 -0.978579
v -0.907392 0.863846 0.907375
v -0.036603 -0.136603 0.978579
v 0.750000 -0.750000 -1.000000
v 1.000000 -0.750000 -0.750000
v -0.025882 -0.096593 0.946795
v -0.013397 -0.050000 0.926815
v 0.750000 -1.000000 -0.750000
v 0.814682 -0.750000 -0.991488
v -0.551764 -0.500000 -0.926815
v 0.875020 -0.750000 -0.966495
v -0.513397 0.050000 -0.926815
v 0.926777 -0.750000 -0.926777
v -0.525882 0.096593 -0.946795
v -0.536603 0.136603 -0.978579
v -0.600000 -0.500000 -0.946795
v -0.641421 -0.500000 -0.978579
v 0.750000 -0.814682 -0.991488
v 0.817268 -0.816718 -0.981352
v 0.875404 -0.815629 -0.956075
v 0.920752 -0.814287 -0.920912
v 0.750000 -0.875020 -0.966495
v 0.816006 -0.875471 -0.955913
v -0.070711 -0.122474 0.978579
v -0.050000 -0.086603 0.946795
v -0.500000 0.051764 -0.926815
v 0.869142 -0.869084 -0.934727
v 0.907375 -0.863846 -0.907392
v -0.550000 -0.486603 -0.926815
v -0.596593 -0.474118 -0.946795
v -0.025882 -0.044829 0.926815
v 0.894338 -0.894338 -0.894338
v -0.636603 -0.463397 -0.978579
v 0.991488 -0.814682 -0.750000
v 0.966495 -0.875020 -0.750000
v 0.926777 -0.926777 -0.750000
v 0.991488 -0.750000 -0.814682
v 0.981352 -0.817268 -0.816718
v 0.956075 -0.875404 -0.815629
v 0.920912 -0.920752 -0.814287
v -0.100000 -0.100000 0.978579
v -0.544829 -0.474118 -0.926815
v 0.966495 -0.750000 -0.875020
v -0.070711 -0.070711 0.946795
v -0.586603 -0.450000 -0.946795
v -0.622474 -0.429289 -0.978579
v 0.955913 -0.816006 -0.875471
v -0.036603 -0.036603 0.926815
v 0.934727 -0.869142 -0.869084
v 0.907392 -0.907375 -0.863846
v 0.750000 -0.991488 -0.814682
v 0.750000 -0.966495 -0.875020
v 0.750000 -0.926777 -0.926777
v 0.814682 -0.991488 -0.750000
v 0.816718 -0.981352 -0.817268
v -0.536602 -0.463397 -0.926815
v 0.815629 -0.956075 -0.875404
v 0.814287 -0.920912 -0.920752
v -0.570711 -0.429289 -0.946795
v -0.122474 -0.070711 0.978579
v -0.600000 -0.400000 -0.978579
v 0.875020 -0.966495 -0.750000
v -0.086603 -0.050000 0.946795
v 0.875471 -0.955913 -0.816006
v -0.044829 -0.025882 0.926815
v 0.869084 -0.934727 -0.869142
v 0.863846 -0.907392 -0.907375
v 0.750000 -0.750000 1.000000
v 0.750000 -1.000000 0.750000
v -0.525882 -0.455171 -0.926815
v 1.000000 -0.750000 0.750000
v -0.550000 -0.413397 -0.946795
v 0.750000 -0.814682 0.991488
v 0.750000 -0.875020 0.966495
v -0.570711 -0.377526 -0.978579
v 0.750000 -0.926777 0.926777
v 0.814682 -0.750000 0.991488
v -0.136603 -0.036603 0.978579
v 0.816718 -0.817268 0.981352
v 0.815629 -0.875404 0.956075
v -0.096593 -0.025882 0.946795
v 0.814287 -0.920752 0.920912
v -0.050000 -0.013397 0.926815
v 0.875020 -0.750000 0.966495
v -0.513397 -0.450000 -0.926815
v -0.525882 -0.403407 -0.946795
v 0.875471 -0.816006 0.955913
v 0.869084 -0.869142 0.934727
v -0.536603 -0.363397 -0.978579
v 0.863846 -0.907375 0.907392
v 0.894338 -0.894338 0.894338
v 0.814682 -0.991488 0.750000
v 0.875020 -0.966495 0.750000
v 0.926777 -0.926777 0.750000
v 0.750000 -0.991488 0.814682
v -0.141421 0.000000 0.978579
v -0.100000 0.000000 0.946795
v -0.500000 -0.448236 -0.926815
v 0.817268 -0.981352 0.816718
v 0.875404 -0.956075 0.815629
v -0.051764 0.000000 0.926815
v 0.920752 -0.920912 0.814287
v 0.750000 -0.966495 0.875020
v 0.816006 -0.955913 0.875471
v 0.869142 -0.934727 0.869084
v 0.907375 -0.907392 0.863846
v 0.991488 -0.750000 0.814682
v 0.966495 -0.750000 0.875020
v 0.926777 -0.750000 0.926777
v -0.136603 0.036603 0.978579
v 0.991488 -0.814682 0.750000
v -0.096593 0.025882 0.946795
v 0.981352 -0.816718 0.817268
v -0.050000 0.013397 0.926815
v 0.956075 -0.815629 0.875404
v 0.920912 -0.814287 0.920752
v 0.966495 -0.875020 0.750000
v 0.955913 -0.875471 0.816006
v 0.934727 -0.869084 0.869142
v 0.907392 -0.863846 0.907375
v 0.750000 0.750000 -1.000000
v 0.750000 1.000000 -0.750000
v 1.000000 0.750000 -0.750000
v 0.750000 0.814682 -0.991488
v -0.122474 0.070711 0.978579
v -0.086602 0.050000 0.946795
v 0.750000 0.875020 -0.966495
v -0.044829 0.025882 0.926815
v 0.750000 0.926777 -0.926777
v 0.814682 0.750000 -0.991488
v 0.816718 0.817268 -0.981352
v 0.815629 0.875404 -0.956075
v 0.814287 0.920752 -0.920912
v 0.875020 0.750000 -0.966495
v 0.875471 0.816006 -0.955913
v 0.869084 0.869142 -0.934727
v 0.863846 0.907375 -0.907392
v -0.100000 0.100000 0.978579
v 0.894338 0.894338 -0.894338
v -0.070711 0.070711 0.946795
v 0.814682 0.991488 -0.750000
v -0.036603 0.036603 0.926815
v 0.875020 0.966495 -0.750000
v 0.926777 0.926777 -0.750000
v 0.750000 0.991488 -0.814682
v 0.817268 0.981352 -0.816718
v 0.875404 0.956075 -0.815629
v 0.920752 0.920912 -0.814287
v 0.750000 0.966495 -0.875020
v 0.816006 0.955913 -0.875471
v 0.869142 0.934727 -0.869084
v 0.907375 0.907392 -0.863846
v -0.070711 0.122474 0.978579
v 0.991488 0.750000 -0.814682
v -0.050000 0.086603 0.946795
v -0.025882 0.044829 0.926815
v 0.966495 0.750000 -0.875020
v 0.926777 0.750000 -0.926777
v 0.991488 0.814682 -0.750000
v 0.981352 0.816718 -0.817268
v 0.956075 0.815629 -0.875404
v 0.920912 0.814287 -0.920752
v 0.966495 0.875020 -0.750000
v 0.955913 0.875471 -0.816006
v 0.934727 0.869084 -0.869142
v 0.907392 0.863846 -0.907375
v -0.036603 0.136603 0.978579
v -0.025882 0.096593 0.946795
v 0.750000 0.750000 1.000000
v -0.013397 0.050000 0.926815
v 1.000000 0.750000 0.750000
v 0.750000 1.000000 0.750000
v 0.814682 0.750000 0.991488
v 0.875020 0.750000 0.966495
v 0.926777 0.750000 0.926777
v 0.750000 0.814682 0.991488
v 0.817268 0.816718 0.981352
v 0.875404 0.815629 0.956075
v 0.920752 0.814287 0.920912
v 0.750000 0.875020 0.966495
v 0.816006 0.875471 0.955913
v 0.869142 0.869084 0.934727
v 0.907375 0.863846 0.907392
v 0.894338 0.894338 0.894338
v 0.991488 0.814682 0.750000
v 0.966495 0.875020 0.750000
v 0.926777 0.926777 0.750000
v 0.991488 0.750000 0.814682
v 0.981352 0.817268 0.816718
v 0.956075 0.875404 0.815629
v 0.920912 0.920752 0.814287
v 0.966495 0.750000 0.875020
v 0.955913 0.816006 0.875471
v 0.934727 0.869142 0.869084
v 0.907392 0.907375 0.863846
v 0.750000 0.991488 0.814682
v 0.750000 0.966495 0.875020
v 0.750000 0.926777 0.926777
v 0.814682 0.991488 0.750000
v 0.816718 0.981352 0.817268
v 0.815629 0.956075 0.875404
v 0.814287 0.920912 0.920752
v 0.875020 0.966495 0.750000
v 0.875471 0.955913 0.816006
v 0.869084 0.934727 0.869142
v 0.863846 0.907392 0.907375
v -0.157859 0.000000 1.000000
v -0.152480 -0.040857 1.000000
v -0.152480 0.040857 1.000000
v -0.136709 -0.078929 1.000000
v -0.136709 0.078929 1.000000
v -0.111623 -0.111623 1.000000
v -0.040857 0.152480 1.000000
v -0.078929 0.136709 1.000000
v 0.040857 0.152480 1.000000
v 0.111623 0.111623 1.000000
v 0.078929 0.136710 1.000000
v 0.000000 0.157859 1.000000
v -0.111623 0.111623 1.000000
v -0.040857 -0.152480 1.000000
v -0.078929 -0.136709 1.000000
v 0.078929 -0.136710 1.000000
v 0.040857 -0.152480 1.000000
v -0.000000 -0.157859 1.000000
v 0.136710 -0.078929 1.000000
v 0.136710 0.078929 1.000000
v 0.157859 0.000000 1.000000
v 0.152480 -0.040857 1.000000
v 0.152480 0.040857 1.000000
v 0.111623 -0.111623 1.000000
v -0.652480 -0.540857 -1.000000
v -0.657859 -0.500000 -1.000000
v -0.636709 -0.421071 -1.000000
v -0.636710 -0.578929 -1.000000
v -0.652480 -0.459143 -1.000000
v -0.611623 -0.611623 -1.000000
v -0.540857 -0.652480 -1.000000
v -0.540857 -0.347520 -1.000000
v -0.578929 -0.636710 -1.000000
v -0.578929 -0.363291 -1.000000
v -0.611623 -0.388377 -1.000000
v -0.421071 -0.636710 -1.000000
v -0.421071 -0.363290 -1.000000
v -0.459143 -0.652480 -1.000000
v -0.459143 -0.347520 -1.000000
v -0.363290 -0.421071 -1.000000
v -0.342141 -0.500000 -1.000000
v -0.347520 -0.540857 -1.000000
v -0.347520 -0.459143 -1.000000
v -0.363290 -0.578929 -1.000000
v -0.388377 -0.388377 -1.000000
v -0.388377 -0.611623 -1.000000
v -0.500000 -0.657859 -1.000000
v -0.500000 -0.342141 -1.000000
v -0.540857 0.152480 -1.000000
v -0.500000 0.157859 -1.000000
v -0.459143 0.152480 -1.000000
v -0.421071 -0.136710 -1.000000
v -0.421071 0.136710 -1.000000
v -0.363290 0.078929 -1.000000
v -0.347520 -0.040857 -1.000000
v -0.342141 0.000000 -1.000000
v -0.347520 0.040857 -1.000000
v -0.388377 -0.111623 -1.000000
v -0.363290 -0.078929 -1.000000
v -0.388377 0.111623 -1.000000
v -0.459143 -0.152480 -1.000000
v -0.482450 -0.155548 -1.000000
v -0.578929 0.136709 -1.000000
v -0.500000 -0.157859 -1.000000
v -0.509746 -0.156575 -1.000000
v -0.540857 -0.152480 -1.000000
v -0.657859 0.000000 -1.000000
v -0.652480 0.040857 -1.000000
v -0.636710 -0.078929 -1.000000
v -0.652480 -0.040857 -1.000000
v -0.611623 0.111623 -1.000000
v -0.578929 -0.136709 -1.000000
v -0.636709 0.078929 -1.000000
v -0.611623 -0.111623 -1.000000
v -0.611623 0.611623 -1.000000
v -0.540857 0.652480 -1.000000
v -0.578929 0.636709 -1.000000
v -0.421071 0.636710 -1.000000
v -0.459143 0.652480 -1.000000
v -0.500000 0.657859 -1.000000
v -0.363290 0.421071 -1.000000
v -0.363290 0.578929 -1.000000
v -0.342141 0.500000 -1.000000
v -0.347520 0.459143 -1.000000
v -0.347520 0.540857 -1.000000
v -0.388377 0.611623 -1.000000
v -0.652480 0.459143 -1.000000
v -0.636710 0.421071 -1.000000
v -0.657859 0.500000 -1.000000
v -0.611623 0.388377 -1.000000
v -0.652480 0.540857 -1.000000
v -0.557424 0.354383 -1.000000
v -0.578929 0.363291 -1.000000
v -0.540857 0.347520 -1.000000
v -0.636709 0.578929 -1.000000
v -0.459143 0.347520 -1.000000
v -0.388377 0.388377 -1.000000
v -0.421071 0.363290 -1.000000
v -0.500000 0.342141 -1.000000
v 0.342141 -0.500000 -1.000000
v 0.347520 -0.540857 -1.000000
v 0.347520 -0.459143 -1.000000
v 0.363291 -0.578929 -1.000000
v 0.363291 -0.421071 -1.000000
v 0.459143 -0.652480 -1.000000
v 0.459143 -0.347520 -1.000000
v 0.421071 -0.636710 -1.000000
v 0.421071 -0.363291 -1.000000
v 0.388377 -0.611623 -1.000000
v 0.388377 -0.388377 -1.000000
v 0.540857 -0.347520 -1.000000
v 0.578929 -0.636710 -1.000000
v 0.540857 -0.652480 -1.000000
v 0.578929 -0.363290 -1.000000
v 0.636710 -0.578929 -1.000000
v 0.636710 -0.421071 -1.000000
v 0.657859 -0.500000 -1.000000
v 0.652480 -0.540857 -1.000000
v 0.652480 -0.459143 -1.000000
v 0.611623 -0.611623 -1.000000
v 0.611623 -0.388377 -1.000000
v 0.500000 -0.342141 -1.000000
v 0.500000 -0.657859 -1.000000
v 0.636710 -0.078929 -1.000000
v 0.657859 0.000000 -1.000000
v 0.652480 -0.040857 -1.000000
v 0.652480 0.040857 -1.000000
v 0.611623 -0.111623 -1.000000
v 0.636710 0.078929 -1.000000
v 0.578929 -0.136710 -1.000000
v 0.611623 0.111623 -1.000000
v 0.540857 -0.152480 -1.000000
v 0.509746 -0.156575 -1.000000
v 0.500000 -0.157859 -1.000000
v 0.482450 -0.155548 -1.000000
v 0.578929 0.136710 -1.000000
v 0.459143 -0.152480 -1.000000
v 0.342141 0.000000 -1.000000
v 0.347520 -0.040857 -1.000000
v 0.347520 0.040857 -1.000000
v 0.363291 -0.078929 -1.000000
v 0.363291 0.078929 -1.000000
v 0.388377 -0.111623 -1.000000
v 0.421071 -0.136709 -1.000000
v 0.421071 0.136709 -1.000000
v 0.540857 0.152480 -1.000000
v 0.500000 0.157859 -1.000000
v 0.459143 0.152480 -1.000000
v 0.388377 0.111623 -1.000000
v 0.636710 0.421071 -1.000000
v 0.652480 0.459143 -1.000000
v 0.611623 0.388377 -1.000000
v 0.657859 0.500000 -1.000000
v 0.347520 0.459143 -1.000000
v 0.342141 0.500000 -1.000000
v 0.363291 0.578929 -1.000000
v 0.363291 0.421071 -1.000000
v 0.347520 0.540857 -1.000000
v 0.388377 0.388377 -1.000000
v 0.421071 0.363291 -1.000000
v 0.421071 0.636709 -1.000000
v 0.388377 0.611623 -1.000000
v 0.459143 0.652480 -1.000000
v 0.500000 0.342141 -1.000000
v 0.540857 0.347520 -1.000000
v 0.540857 0.652480 -1.000000
v 0.500000 0.657859 -1.000000
v 0.636710 0.578929 -1.000000
v 0.652480 0.540857 -1.000000
v 0.611623 0.611623 -1.000000
v 0.578929 0.636710 -1.000000
v 0.578929 0.363290 -1.000000
v 0.459143 0.347520 -1.000000
v 1.000000 -0.649342 -0.551764
v 1.000000 -0.657858 -0.500000
v 1.000000 -0.624373 -0.600000
v 1.000000 -0.620000 -0.604560
v 1.000000 -0.649342 -0.448236
v 1.000000 -0.624373 -0.400000
v 1.000000 -0.573936 -0.641421
v 1.000000 -0.569282 -0.643614
v 1.000000 -0.532154 -0.654610
v 1.000000 -0.532154 -0.345390
v 1.000000 -0.573936 -0.358579
v 1.000000 -0.620000 -0.395440
v 1.000000 -0.569282 -0.356386
v 1.000000 -0.430718 -0.643614
v 1.000000 -0.426064 -0.641421
v 1.000000 -0.467846 -0.654610
v 1.000000 -0.467846 -0.345390
v 1.000000 -0.375627 -0.600000
v 1.000000 -0.380000 -0.604560
v 1.000000 -0.342142 -0.500000
v 1.000000 -0.350658 -0.551764
v 1.000000 -0.350658 -0.448236
v 1.000000 -0.380000 -0.395440
v 1.000000 -0.375627 -0.400000
v 1.000000 -0.430718 -0.356386
v 1.000000 -0.426064 -0.358579
v 1.000000 -0.500000 -0.657859
v 1.000000 -0.500000 -0.342141
v 1.000000 0.342142 0.500000
v 1.000000 0.350658 0.448236
v 1.000000 0.350658 0.551764
v 1.000000 0.375627 0.400000
v 1.000000 0.380000 0.395440
v 1.000000 0.380000 0.604560
v 1.000000 0.375627 0.600000
v 1.000000 0.426064 0.358579
v 1.000000 0.430718 0.356386
v 1.000000 0.467846 0.345390
v 1.000000 0.467846 0.654610
v 1.000000 0.430718 0.643614
v 1.000000 0.426064 0.641421
v 1.000000 0.532154 0.654610
v 1.000000 0.573936 0.641421
v 1.000000 0.569282 0.356386
v 1.000000 0.573936 0.358579
v 1.000000 0.569282 0.643614
v 1.000000 0.532154 0.345390
v 1.000000 0.624373 0.400000
v 1.000000 0.620000 0.395440
v 1.000000 0.620000 0.604560
v 1.000000 0.624373 0.600000
v 1.000000 0.657858 0.500000
v 1.000000 0.649342 0.448236
v 1.000000 0.649342 0.551764
v 1.000000 0.500000 0.657859
v 1.000000 0.500000 0.342141
v -1.000000 -0.649342 -0.551764
v -1.000000 -0.657858 -0.500000
v -1.000000 -0.649342 -0.448236
v -1.000000 -0.624373 -0.600000
v -1.000000 -0.620000 -0.604560
v -1.000000 -0.620000 -0.395440
v -1.000000 -0.624373 -0.400000
v -1.000000 -0.573936 -0.358579
v -1.000000 -0.532154 -0.345390
v -1.000000 -0.569282 -0.356386
v -1.000000 -0.467846 -0.345390
v -1.000000 -0.426064 -0.358579
v -1.000000 -0.430718 -0.356386
v -1.000000 -0.500000 -0.342141
v -1.000000 -0.573936 -0.641421
v -1.000000 -0.532154 -0.654610
v -1.000000 -0.569282 -0.643614
v -1.000000 -0.467846 -0.654610
v -1.000000 -0.426064 -0.641421
v -1.000000 -0.430718 -0.643614
v -1.000000 -0.500000 -0.657859
v -1.000000 -0.380000 -0.395439
v -1.000000 -0.375627 -0.400000
v -1.000000 -0.342141 -0.500000
v -1.000000 -0.350658 -0.551764
v -1.000000 -0.350658 -0.448236
v -1.000000 -0.380000 -0.604561
v -1.000000 -0.375627 -0.600000
v -1.000000 -0.569282 0.643614
v -1.000000 -0.573936 0.641421
v -1.000000 -0.500000 0.657859
v -1.000000 -0.426064 0.641421
v -1.000000 -0.430718 0.643614
v -1.000000 -0.467846 0.654610
v -1.000000 -0.532154 0.654610
v -1.000000 -0.380000 0.395439
v -1.000000 -0.375627 0.600000
v -1.000000 -0.380000 0.604561
v -1.000000 -0.342141 0.500000
v -1.000000 -0.350658 0.448236
v -1.000000 -0.350658 0.551764
v -1.000000 -0.375627 0.400000
v -1.000000 -0.657858 0.500000
v -1.000000 -0.649342 0.448236
v -1.000000 -0.649342 0.551764
v -1.000000 -0.624373 0.400000
v -1.000000 -0.620000 0.395440
v -1.000000 -0.620000 0.604560
v -1.000000 -0.624373 0.600000
v -1.000000 -0.500000 0.342141
v -1.000000 -0.532154 0.345390
v -1.000000 -0.430718 0.356386
v -1.000000 -0.426064 0.358579
v -1.000000 -0.569282 0.356386
v -1.000000 -0.467846 0.345390
v -1.000000 -0.573936 0.358579
v -1.000000 0.032154 -0.154610
v -1.000000 -0.000000 -0.157859
v -1.000000 0.073936 -0.141421
v -1.000000 0.069282 -0.143614
v -1.000000 0.124373 -0.100000
v -1.000000 0.120000 -0.104561
v -1.000000 0.157859 0.000000
v -1.000000 0.149342 -0.051764
v -1.000000 -0.032154 -0.154610
v -1.000000 0.149342 0.051764
v -1.000000 -0.069282 -0.143614
v -1.000000 -0.073936 -0.141421
v -1.000000 0.120000 0.104561
v -1.000000 0.124373 0.100000
v -1.000000 -0.104935 -0.116616
v -1.000000 -0.124373 -0.100000
v -1.000000 -0.120000 -0.104560
v -1.000000 -0.157859 0.000000
v -1.000000 -0.149342 -0.051764
v -1.000000 -0.120000 0.104560
v -1.000000 -0.124373 0.100000
v -1.000000 -0.149342 0.051764
v -1.000000 -0.032154 0.154610
v -1.000000 0.073936 0.141421
v -1.000000 0.069282 0.143614
v -1.000000 0.032154 0.154610
v -1.000000 -0.000000 0.157859
v -1.000000 -0.069282 0.143614
v -1.000000 -0.073936 0.141421
v -1.000000 0.342141 -0.500000
v -1.000000 0.375627 -0.600000
v -1.000000 0.380000 -0.604560
v -1.000000 0.430718 -0.643614
v -1.000000 0.426064 -0.641421
v -1.000000 0.350658 -0.551764
v -1.000000 0.467846 -0.654610
v -1.000000 0.500000 -0.657859
v -1.000000 0.573936 -0.641421
v -1.000000 0.569282 -0.643614
v -1.000000 0.532154 -0.654610
v -1.000000 0.350658 -0.448236
v -1.000000 0.375627 -0.400000
v -1.000000 0.380000 -0.395440
v -1.000000 0.620000 -0.604561
v -1.000000 0.426064 -0.358579
v -1.000000 0.430718 -0.356386
v -1.000000 0.532154 -0.345390
v -1.000000 0.500000 -0.342141
v -1.000000 0.467846 -0.345390
v -1.000000 0.624373 -0.600000
v -1.000000 0.624373 -0.400000
v -1.000000 0.620000 -0.395439
v -1.000000 0.657858 -0.500000
v -1.000000 0.649342 -0.551764
v -1.000000 0.649342 -0.448236
v -1.000000 0.573936 -0.358579
v -1.000000 0.569282 -0.356386
v -1.000000 0.430718 0.643614
v -1.000000 0.500000 0.342141
v -1.000000 0.467846 0.345390
v -1.000000 0.532154 0.345390
v -1.000000 0.573936 0.358579
v -1.000000 0.569282 0.356386
v -1.000000 0.624373 0.400000
v -1.000000 0.620000 0.395439
v -1.000000 0.657858 0.500000
v -1.000000 0.649342 0.448236
v -1.000000 0.649342 0.551764
v -1.000000 0.426064 0.358579
v -1.000000 0.430718 0.356386
v -1.000000 0.624373 0.600000
v -1.000000 0.620000 0.604561
v -1.000000 0.375627 0.400000
v -1.000000 0.380000 0.395440
v -1.000000 0.342141 0.500000
v -1.000000 0.350658 0.448236
v -1.000000 0.350658 0.551764
v -1.000000 0.380000 0.604560
v -1.000000 0.375627 0.600000
v -1.000000 0.426064 0.641421
v -1.000000 0.467846 0.654610
v -1.000000 0.573936 0.641421
v -1.000000 0.569282 0.643614
v -1.000000 0.532154 0.654610
v -1.000000 0.500000 0.657859
v -0.649342 1.000000 -0.551764
v -0.657858 1.000000 -0.500000
v -0.649342 1.000000 -0.448236
v -0.624373 1.000000 -0.600000
v -0.620000 1.000000 -0.604560
v -0.620000 1.000000 -0.395440
v -0.624373 1.000000 -0.400000
v -0.573936 1.000000 -0.358579
v -0.532154 1.000000 -0.345390
v -0.569282 1.000000 -0.356386
v -0.467846 1.000000 -0.345390
v -0.426064 1.000000 -0.358579
v -0.430718 1.000000 -0.356386
v -0.500000 1.000000 -0.342141
v -0.573936 1.000000 -0.641421
v -0.532154 1.000000 -0.654610
v -0.569282 1.000000 -0.643614
v -0.467846 1.000000 -0.654610
v -0.426064 1.000000 -0.641421
v -0.430718 1.000000 -0.643614
v -0.500000 1.000000 -0.657859
v -0.380000 1.000000 -0.395440
v -0.375627 1.000000 -0.400000
v -0.342142 1.000000 -0.500000
v -0.350658 1.000000 -0.551764
v -0.350658 1.000000 -0.448236
v -0.380000 1.000000 -0.604560
v -0.375627 1.000000 -0.600000
v -0.069282 1.000000 0.143614
v -0.073936 1.000000 0.141421
v -0.000000 1.000000 0.157859
v 0.073936 1.000000 0.141421
v 0.069282 1.000000 0.143614
v 0.032154 1.000000 0.154610
v -0.032154 1.000000 0.154610
v 0.120000 1.000000 -0.104560
v 0.124373 1.000000 0.100000
v 0.120000 1.000000 0.104560
v 0.157858 1.000000 0.000000
v 0.149342 1.000000 -0.051764
v 0.149342 1.000000 0.051764
v 0.124373 1.000000 -0.100000
v -0.149342 1.000000 -0.051764
v -0.157858 1.000000 0.000000
v -0.149342 1.000000 0.051764
v -0.120000 1.000000 0.104560
v -0.124373 1.000000 -0.100000
v -0.120000 1.000000 -0.104560
v -0.124373 1.000000 0.100000
v -0.073936 1.000000 -0.141421
v -0.069282 1.000000 -0.143614
v -0.000000 1.000000 -0.157859
v -0.032154 1.000000 -0.154610
v 0.073936 1.000000 -0.141421
v 0.032154 1.000000 -0.154610
v 0.069282 1.000000 -0.143614
v 0.393431 1.000000 0.384692
v 0.613285 1.000000 0.609934
v 0.426064 1.000000 0.358579
v 0.467846 1.000000 0.345390
v 0.430718 1.000000 0.356386
v 0.532154 1.000000 0.345390
v 0.573936 1.000000 0.358579
v 0.569282 1.000000 0.356386
v 0.500000 1.000000 0.342141
v 0.620000 1.000000 0.604560
v 0.624373 1.000000 0.600000
v 0.657858 1.000000 0.500000
v 0.649342 1.000000 0.448236
v 0.649342 1.000000 0.551764
v 0.620000 1.000000 0.395440
v 0.624373 1.000000 0.400000
v 0.375627 1.000000 0.400000
v 0.380000 1.000000 0.395440
v 0.350658 1.000000 0.448236
v 0.342142 1.000000 0.500000
v 0.380000 1.000000 0.604560
v 0.375627 1.000000 0.600000
v 0.350658 1.000000 0.551764
v 0.467846 1.000000 0.654610
v 0.573936 1.000000 0.641421
v 0.569282 1.000000 0.643614
v 0.532154 1.000000 0.654610
v 0.500000 1.000000 0.657859
v 0.430718 1.000000 0.643614
v 0.426064 1.000000 0.641421
v -0.649342 -1.000000 -0.551764
v -0.657858 -1.000000 -0.500000
v -0.624373 -1.000000 -0.600000
v -0.620000 -1.000000 -0.604560
v -0.649342 -1.000000 -0.448236
v -0.624373 -1.000000 -0.400000
v -0.573936 -1.000000 -0.641421
v -0.569282 -1.000000 -0.643614
v -0.532154 -1.000000 -0.654610
v -0.532154 -1.000000 -0.345390
v -0.573936 -1.000000 -0.358579
v -0.620000 -1.000000 -0.395440
v -0.569282 -1.000000 -0.356386
v -0.430718 -1.000000 -0.643614
v -0.426064 -1.000000 -0.641421
v -0.467846 -1.000000 -0.654610
v -0.467846 -1.000000 -0.345390
v -0.375627 -1.000000 -0.600000
v -0.380000 -1.000000 -0.604561
v -0.342141 -1.000000 -0.500000
v -0.350658 -1.000000 -0.551764
v -0.350658 -1.000000 -0.448236
v -0.380000 -1.000000 -0.395439
v -0.375627 -1.000000 -0.400000
v -0.430718 -1.000000 -0.356386
v -0.426064 -1.000000 -0.358579
v -0.500000 -1.000000 -0.657859
v -0.500000 -1.000000 -0.342141
v -0.573936 -1.000000 0.641421
v -0.532154 -1.000000 0.654610
v -0.569282 -1.000000 0.643614
v -0.467846 -1.000000 0.654610
v -0.430718 -1.000000 0.643614
v -0.426064 -1.000000 0.641421
v -0.500000 -1.000000 0.657859
v -0.375627 -1.000000 0.400000
v -0.380000 -1.000000 0.395439
v -0.342141 -1.000000 0.500000
v -0.350658 -1.000000 0.448236
v -0.350658 -1.000000 0.551764
v -0.380000 -1.000000 0.604561
v -0.375627 -1.000000 0.600000
v -0.657858 -1.000000 0.500000
v -0.649342 -1.000000 0.448236
v -0.649342 -1.000000 0.551764
v -0.620000 -1.000000 0.604560
v -0.624373 -1.000000 0.600000
v -0.624373 -1.000000 0.400000
v -0.620000 -1.000000 0.395440
v -0.532154 -1.000000 0.345390
v -0.467846 -1.000000 0.345390
v -0.426064 -1.000000 0.358579
v -0.430718 -1.000000 0.356386
v -0.573936 -1.000000 0.358579
v -0.569282 -1.000000 0.356386
v -0.500000 -1.000000 0.342141
v 0.426064 -1.000000 -0.358579
v 0.467846 -1.000000 -0.345390
v 0.430718 -1.000000 -0.356386
v 0.532154 -1.000000 -0.345390
v 0.500000 -1.000000 -0.342141
v 0.620000 -1.000000 -0.395439
v 0.624373 -1.000000 -0.400000
v 0.657858 -1.000000 -0.500000
v 0.649342 -1.000000 -0.551764
v 0.649342 -1.000000 -0.448236
v 0.569282 -1.000000 -0.356386
v 0.573936 -1.000000 -0.358579
v 0.624373 -1.000000 -0.600000
v 0.620000 -1.000000 -0.604561
v 0.350658 -1.000000 -0.551764
v 0.342142 -1.000000 -0.500000
v 0.375627 -1.000000 -0.600000
v 0.380000 -1.000000 -0.604560
v 0.350658 -1.000000 -0.448236
v 0.467846 -1.000000 -0.654610
v 0.573936 -1.000000 -0.641421
v 0.569282 -1.000000 -0.643614
v 0.532154 -1.000000 -0.654610
v 0.430718 -1.000000 -0.643614
v 0.500000 -1.000000 -0.657859
v 0.426064 -1.000000 -0.641421
v 0.380000 -1.000000 -0.395440
v 0.375627 -1.000000 -0.400000
v 0.430718 -1.000000 0.643614
v 0.342142 -1.000000 0.500000
v 0.350658 -1.000000 0.448236
v 0.350658 -1.000000 0.551764
v 0.375627 -1.000000 0.400000
v 0.380000 -1.000000 0.395440
v 0.375627 -1.000000 0.600000
v 0.426064 -1.000000 0.358579
v 0.430718 -1.000000 0.356386
v 0.467846 -1.000000 0.345390
v 0.467846 -1.000000 0.654610
v 0.426064 -1.000000 0.641421
v 0.380000 -1.000000 0.604560
v 0.569282 -1.000000 0.356386
v 0.573936 -1.000000 0.358579
v 0.532154 -1.000000 0.345390
v 0.532154 -1.000000 0.654610
v 0.624373 -1.000000 0.400000
v 0.620000 -1.000000 0.395439
v 0.657858 -1.000000 0.500000
v 0.649342 -1.000000 0.448236
v 0.649342 -1.000000 0.551764
v 0.620000 -1.000000 0.604561
v 0.624373 -1.000000 0.600000
v 0.569282 -1.000000 0.643614
v 0.573936 -1.000000 0.641421
v 0.500000 -1.000000 0.657859
v 0.500000 -1.000000 0.342141
f 46 159 588 559
f 159 244 603 588
f 244 512 607 603
f 559 588 615 613
f 588 603 627 615
f 603 607 633 627
f 613 615 810 729
f 615 627 841 810
f 627 633 641 841
f 106 643 675 674
f 643 653 676 675
f 653 664 679 676
f 674 675 688 682
f 675 676 693 688
f 676 679 720 693
f 682 688 607 512
f 688 693 633 607
f 693 720 641 633
f 113 724 777 755
f 724 725 806 777
f 725 729 810 806
f 755 777 837 833
f 777 806 838 837
f 806 810 841 838
f 833 837 679 664
f 837 838 720 679
f 838 841 641 720
f 842 875 903 892
f 875 889 904 903
f 889 890 908 904
f 892 903 914 913
f 903 904 915 914
f 904 908 938 915
f 913 914 1017 997
f 914 915 1035 1017
f 915 938 944 1035
f 855 945 961 956
f 945 946 962 961
f 946 947 963 962
f 956 961 984 972
f 961 962 986 984
f 962 963 990 986
f 972 984 908 890
f 984 986 938 908
f 986 990 944 938
f 874 992 1010 1008
f 992 994 1016 1010
f 994 997 1017 1016
f 1008 1010 1020 1018
f 1010 1016 1034 1020
f 1016 1017 1035 1034
f 1018 1020 963 947
f 1020 1034 990 963
f 1034 1035 944 990
f 1037 1050 1060 1058
f 1050 1052 1061 1060
f 1052 1056 1065 1061
f 1058 1060 1080 1071
f 1060 1061 1083 1080
f 1061 1065 1086 1083
f 1071 1080 1138 1126
f 1080 1083 1148 1138
f 1083 1086 1088 1148
f 1041 1089 1093 1092
f 1089 1090 1106 1093
f 1090 1091 1110 1106
f 1092 1093 1113 1112
f 1093 1106 1115 1113
f 1106 1110 1120 1115
f 1112 1113 1065 1056
f 1113 1115 1086 1065
f 1115 1120 1088 1086
f 1048 1122 1132 1128
f 1122 1123 1134 1132
f 1123 1126 1138 1134
f 1128 1132 1143 1141
f 1132 1134 1147 1143
f 1134 1138 1148 1147
f 1141 1143 1110 1091
f 1143 1147 1120 1110
f 1147 1148 1088 1120
f 1151 1160 1171 1167
f 1160 1162 1177 1171
f 1162 1164 1178 1177
f 1167 1171 1180 1179
f 1171 1177 1181 1180
f 1177 1178 1182 1181
f 1179 1180 1223 1218
f 1180 1181 1233 1223
f 1181 1182 1183 1233
f 1153 1187 1198 1197
f 1187 1192 1199 1198
f 1192 1194 1201 1199
f 1197 1198 1204 1202
f 1198 1199 1206 1204
f 1199 1201 1208 1206
f 1202 1204 1178 1164
f 1204 1206 1182 1178
f 1206 1208 1183 1182
f 1155 1212 1221 1220
f 1212 1214 1222 1221
f 1214 1218 1223 1222
f 1220 1221 1227 1225
f 1221 1222 1229 1227
f 1222 1223 1233 1229
f 1225 1227 1201 1194
f 1227 1229 1208 1201
f 1229 1233 1183 1208
f 1235 1240 1250 1249
f 1240 1242 1251 1250
f 1242 1244 1252 1251
f 1249 1250 1254 1253
f 1250 1251 1258 1254
f 1251 1252 1259 1258
f 1253 1254 1289 1284
f 1254 1258 1298 1289
f 1258 1259 1263 1298
f 1236 1265 1269 1268
f 1265 1266 1270 1269
f 1266 1267 1271 1270
f 1268 1269 1278 1274
f 1269 1270 1280 1278
f 1270 1271 1281 1280
f 1274 1278 1252 1244
f 1278 1280 1259 1252
f 1280 1281 1263 1259
f 1239 1282 1286 1285
f 1282 1283 1288 1286
f 1283 1284 1289 1288
f 1285 1286 1295 1293
f 1286 1288 1297 1295
f 1288 1289 1298 1297
f 1293 1295 1271 1267
f 1295 1297 1281 1271
f 1297 1298 1263 1281
f 1299 1304 1310 1308
f 1304 1305 1311 1310
f 1305 1307 1313 1311
f 1308 1310 1318 1315
f 1310 1311 1319 1318
f 1311 1313 1321 1319
f 1315 1318 1347 1340
f 1318 1319 1351 1347
f 1319 1321 1322 1351
f 1300 1323 1330 1326
f 1323 1324 1331 1330
f 1324 1325 1333 1331
f 1326 1330 1335 1334
f 1330 1331 1336 1335
f 1331 1333 1337 1336
f 1334 1335 1313 1307
f 1335 1336 1321 1313
f 1336 1337 1322 1321
f 1302 1338 1344 1342
f 1338 1339 1346 1344
f 1339 1340 1347 1346
f 1342 1344 1349 1348
f 1344 1346 1350 1349
f 1346 1347 1351 1350
f 1348 1349 1333 1325
f 1349 1350 1337 1333
f 1350 1351 1322 1337
f 1352 1355 1362 1361
f 1355 1358 1363 1362
f 1358 1360 1364 1363
f 1361 1362 1366 1365
f 1362 1363 1367 1366
f 1363 1364 1368 1367
f 1365 1366 1393 1389
f 1366 1367 1397 1393
f 1367 1368 1370 1397
f 1353 1372 1377 1376
f 1372 1374 1378 1377
f 1374 1375 1379 1378
f 1376 1377 1381 1380
f 1377 1378 1382 1381
f 1378 1379 1383 1382
f 1380 1381 1364 1360
f 1381 1382 1368 1364
f 1382 1383 1370 1368
f 1354 1385 1391 1390
f 1385 1388 1392 1391
f 1388 1389 1393 1392
f 1390 1391 1395 1394
f 1391 1392 1396 1395
f 1392 1393 1397 1396
f 1394 1395 1379 1375
f 1395 1396 1383 1379
f 1396 1397 1370 1383
f 1400 1404 1408 1407
f 1404 1405 1409 1408
f 1405 1406 1410 1409
f 1407 1408 1412 1411
f 1408 1409 1413 1412
f 1409 1410 1414 1413
f 1411 1412 1433 1429
f 1412 1413 1437 1433
f 1413 1414 1415 1437
f 1402 1416 1420 1419
f 1416 1417 1421 1420
f 1417 1418 1422 1421
f 1419 1420 1424 1423
f 1420 1421 1425 1424
f 1421 1422 1426 1425
f 1423 1424 1410 1406
f 1424 1425 1414 1410
f 1425 1426 1415 1414
f 1403 1427 1431 1430
f 1427 1428 1432 1431
f 1428 1429 1433 1432
f 1430 1431 1435 1434
f 1431 1432 1436 1435
f 1432 1433 1437 1436
f 1434 1435 1422 1418
f 1435 1436 1426 1422
f 1436 1437 1415 1426
f 1037 46 559 1050
f 1050 559 613 1052
f 1052 613 729 1056
f 1056 729 725 1112
f 1112 725 724 1092
f 1092 724 113 1041
f 106 842 892 643
f 643 892 913 653
f 653 913 997 664
f 664 997 994 833
f 833 994 992 755
f 755 992 874 113
f 855 1151 1167 945
f 945 1167 1179 946
f 946 1179 1218 947
f 947 1218 1214 1018
f 1018 1214 1212 1008
f 1008 1212 1155 874
f 1153 1048 1128 1187
f 1187 1128 1141 1192
f 1192 1141 1091 1194
f 1194 1091 1090 1225
f 1225 1090 1089 1220
f 1220 1089 1041 1155
f 1352 1037 1058 1355
f 1355 1058 1071 1358
f 1358 1071 1126 1360
f 1360 1126 1123 1380
f 1380 1123 1122 1376
f 1376 1122 1048 1353
f 1151 1400 1407 1160
f 1160 1407 1411 1162
f 1162 1411 1429 1164
f 1164 1429 1428 1202
f 1202 1428 1427 1197
f 1197 1427 1403 1153
f 1402 1354 1390 1416
f 1416 1390 1394 1417
f 1417 1394 1375 1418
f 1418 1375 1374 1434
f 1434 1374 1372 1430
f 1430 1372 1353 1403
f 1235 1352 1361 1240
f 1240 1361 1365 1242
f 1242 1365 1389 1244
f 1244 1389 1388 1274
f 1274 1388 1385 1268
f 1268 1385 1354 1236
f 1400 1299 1308 1404
f 1404 1308 1315 1405
f 1405 1315 1340 1406
f 1406 1340 1339 1423
f 1423 1339 1338 1419
f 1419 1338 1302 1402
f 1300 1239 1285 1323
f 1323 1285 1293 1324
f 1324 1293 1267 1325
f 1325 1267 1266 1348
f 1348 1266 1265 1342
f 1342 1265 1236 1302
f 46 1235 1249 159
f 159 1249 1253 244
f 244 1253 1284 512
f 512 1284 1283 682
f 682 1283 1282 674
f 674 1282 1239 106
f 1299 855 956 1304
f 1304 956 972 1305
f 1305 972 890 1307
f 1307 890 889 1334
f 1334 889 875 1326
f 1326 875 842 1300
f 1501 1499 1476 1485 1502
f 1503 1502 1485 1469 1471 1472 1464 1466 1463 1462 1465 1467 46 1037 1512 1532 1528 1526 1524 1525 1527 1530 1529 1487 1486 1500 1508 1510 1505 1504 1507 1506 1511 1509
f 1549 1557 1235 1479 1537 1538 1540 1546 1544 1542 1560 1550
f 1610 1601 1584 1585 1582 1586 1579 1577 1575 1576 1578 1580 1581 1574 1572 1543 1545 1547 1541 1539 1537 1479 1478 1480 1477 1482 1474 1476 1499 1498 1489 1495 1496 1492 1493 1494 1491 1497 1490 1488 1487 1529 1531 1536 1533 1535 1534 1518 1521 1520 1522 1519 1523 1515 1516 1517 1513 1514 1512 1037 1352 1607 1608 1603 1604 1600 1598 1599 1593 1595 1592 1591 1594 1596 1597
f 1605 1607 1352 1235 1557 1552 1555 1554 1556 1553 1558 1551 1548 1559 1570 1569 1567 1565 1561 1563 1562 1564 1566 1568 1573 1583 1584 1601 1602 1609 1589 1587 1588 1590 1606
f 1571 1570 1559 1543 1572
f 1481 1479 1235 46 1467 1470 1468 1484 1475 1473 1483
f 1670 1671 113 874 1675 1676 1674 1672 1673 1669 1668 1667
f 1696 1714 874 1155 1794 1804 1805 1806 1807 1803 1780 1802 1800 1801 1799 1797 1798 1795 1796 1735 1746 1747 1748 1749 1745 1750 1751 1742 1743 1744 1740 1741 1738 1739 1688 1678 1679 1716 1721 1718 1719 1702 1708 1706 1705 1707 1703 1704 1698 1699 1700 1697 1701 1695
f 1793 1794 1155 1041 1766 1772 1776 1775 1777 1773 1774 1778 1779 1769 1770 1771 1768 1767 1765 1728 1727 1730 1729 1732 1736 1735 1796 1791 1792 1782 1781 1783 1785 1784 1787 1786 1789 1788 1790
f 1760 1766 1041 113 1671 1681 1683 1682 1687 1684 1686 1685 1693 1694 1691 1690 1692 1689 1737 1734 1733 1731 1724 1723 1726 1725 1728 1765 1764 1763 1752 1757 1753 1754 1756 1755 1758 1759 1762 1761
f 1688 1739 1737 1689
f 1717 1716 1679 1677 1680 1675 874 1714 1715 1711 1709 1710 1712 1713 1722 1720
f 1900 1897 106 1239 1963 1970 1971 1972 1974 1969 1973 1975 1967 1966 1964 1965 1916 1917 1915 1913 1914 1911 1912 1908 1907 1909 1920 1902 1901
f 1962 1963 1239 1300 2000 2001 1999 1997 1998 1995 1996 1992 1991 1993 2005 1987 1977 1976 1950 1952 1951 1954 1953 1960 1961 1955 1956 1959 1957 1958
f 2000 1300 842 1939 1922 1924 1923 1928 1925 1926 1927 1934 1935 1933 1931 1932 1929 1930 1945 1946 1944 1949 1919 1916 1965 1968 1977 1987 1986 1985 1983 1982 1980 1979 1981 1984 1990 1989 1978 1988 2004 1994 2002 2003
f 1940 1939 842 1903 1921 1910 1918 1919 1949 1943 1948 1947 1942 1941 1937 1936 1938
f 1906 1903 842 106 1897 1896 1894 1895 1898 1899 1905 1904
f 1448 1447 1400 1151 855 1299 1461 1453 1454 1455 1451 1452 1443 1441 1439 1438 1440 1442 1450 1445 1444 1449 1446
f 1456 1461 1299 1400 1447 1457 1460 1458 1459
f 1811 1812 1048 1153 1816 1817 1815 1813 1814 1810 1809 1808
f 1873 1865 1403 1353 1048 1812 1822 1824 1823 1828 1825 1827 1826 1834 1835 1832 1831 1833 1830 1829 1819 1820 1854 1855 1857 1858 1860 1859 1862 1863 1861 1843 1849 1847 1846 1848 1844 1845 1864 1866 1868 1867 1872 1869 1871 1870 1878 1879 1876 1875 1877 1874
f 1864 1845 1839 1840 1841 1838 1842 1836 1837 1853 1856 1852 1851 1850 1854 1820 1818 1821 1816 1153 1403 1865 1888 1889 1890 1891 1887 1892 1893 1884 1885 1886 1883 1882 1880 1881
f 1654 1657 1354 1402 1660 1661 1664 1662 1663 1658 1659 1655
f 1653 1660 1402 1302 1620 1638 1627 1635 1636 1633 1634 1632 1630 1631 1628 1629 1625 1624 1626 1637 1619 1618 1617 1614 1236 1354 1657 1666 1648 1647 1646 1643 1642 1640 1639 1641 1645 1644 1651 1650 1649 1665 1652 1656
f 1623 1620 1302 1236 1614 1613 1611 1612 1615 1616 1622 1621
f 1449 469 646 1446
f 521 669 646 469
f 563 673 669 521
f 600 673 563
f 673 772 735 669
f 600 772 673
f 1446 646 728 1448
f 669 735 728 646
f 735 868 852 728
f 772 882 868 735
f 600 882 772
f 1448 728 852 1447
f 600 943 882
f 852 919 1457 1447
f 868 921 919 852
f 882 943 921 868
f 943 988 987 921
f 600 988 943
f 919 978 1460 1457
f 921 987 978 919
f 987 1031 1019 978
f 988 1036 1031 987
f 600 1036 988
f 978 1019 1458 1460
f 600 1076 1036
f 1019 1063 1459 1458
f 1031 1067 1063 1019
f 1036 1076 1067 1031
f 1076 1109 1108 1067
f 600 1109 1076
f 1063 1105 1456 1459
f 1067 1108 1105 1063
f 1105 1133 1461 1456
f 1108 1136 1133 1105
f 1109 1140 1136 1108
f 600 1140 1109
f 600 1165 1140
f 1133 1161 1453 1461
f 1136 1163 1161 1133
f 1140 1165 1163 1136
f 1163 1188 1185 1161
f 1165 1196 1188 1163
f 600 1196 1165
f 1161 1185 1454 1453
f 1185 1210 1455 1454
f 1188 1213 1210 1185
f 1196 1216 1213 1188
f 600 1216 1196
f 1216 1238 1237 1213
f 600 1238 1216
f 1210 1234 1451 1455
f 1213 1237 1234 1210
f 1237 1256 1255 1234
f 1238 1262 1256 1237
f 600 1262 1238
f 1234 1255 1452 1451
f 600 1279 1262
f 1255 1272 1443 1452
f 1256 1275 1272 1255
f 1262 1279 1275 1256
f 1279 1296 1294 1275
f 600 1296 1279
f 1272 1291 1441 1443
f 1275 1294 1291 1272
f 1294 1312 1309 1291
f 1296 1314 1312 1294
f 600 1314 1296
f 1291 1309 1439 1441
f 600 1332 1314
f 1309 1327 1438 1439
f 1312 1328 1327 1309
f 1314 1332 1328 1312
f 1332 1345 1343 1328
f 600 1345 1332
f 1438 1327 1341 1440
f 1328 1343 1341 1327
f 1343 1357 1356 1341
f 1345 1359 1357 1343
f 600 1359 1345
f 1440 1341 1356 1442
f 600 1373 1359
f 1442 1356 1369 1450
f 1357 1371 1369 1356
f 1359 1373 1371 1357
f 1373 1387 1386 1371
f 600 1387 1373
f 1369 1384 1445 1450
f 1371 1386 1384 1369
f 1386 1399 1398 1384
f 1387 1401 1399 1386
f 600 1401 1387
f 1384 1398 1444 1445
f 600 563 1401
f 1398 469 1449 1444
f 1399 521 469 1398
f 1401 563 521 1399
f 139 568 566 102
f 1476 568 139 1485
f 1329 547 92
f 102 566 547 1329
f 1474 656 568 1476
f 547 645 92
f 566 649 645 547
f 568 656 649 566
f 656 706 698 649
f 1482 706 656 1474
f 645 690 92
f 649 698 690 645
f 698 808 783 690
f 706 814 808 698
f 814 706 1482 1477
f 690 783 92
f 887 814 1477 1480
f 783 876 92
f 808 877 876 783
f 814 887 877 808
f 887 931 928 877
f 1478 931 887 1480
f 876 917 92
f 877 928 917 876
f 928 975 966 917
f 931 980 975 928
f 1479 980 931 1478
f 917 966 92
f 1481 1015 980 1479
f 966 1004 92
f 975 1013 1004 966
f 980 1015 1013 975
f 1015 1046 1043 1013
f 1483 1046 1015 1481
f 1004 1039 92
f 1013 1043 1039 1004
f 1039 1068 92
f 1043 1072 1068 1039
f 1046 1077 1072 1043
f 1077 1046 1483 1473
f 1107 1077 1473 1475
f 1068 1095 92
f 1072 1103 1095 1068
f 1077 1107 1103 1072
f 1103 1125 1124 1095
f 1107 1129 1125 1103
f 1484 1129 1107 1475
f 1095 1124 92
f 1124 1145 92
f 1125 1149 1145 1124
f 1129 1150 1149 1125
f 1468 1150 1129 1484
f 1150 1175 1168 1149
f 1470 1175 1150 1468
f 1145 1166 92
f 1149 1168 1166 1145
f 1168 1193 1191 1166
f 1175 1195 1193 1168
f 1467 1195 1175 1470
f 1166 1191 92
f 1465 1211 1195 1467
f 1191 1207 92
f 1193 1209 1207 1191
f 1195 1211 1209 1193
f 1211 1231 1226 1209
f 1462 1231 1211 1465
f 1207 1224 92
f 1209 1226 1224 1207
f 1226 1247 1241 1224
f 1231 1248 1247 1226
f 1463 1248 1231 1462
f 1224 1241 92
f 1466 1264 1248 1463
f 1241 1260 92
f 1247 1261 1260 1241
f 1248 1264 1261 1247
f 1264 1277 1276 1261
f 1464 1277 1264 1466
f 1260 1273 92
f 1261 1276 1273 1260
f 1276 1290 1287 1273
f 1277 1292 1290 1276
f 1472 1292 1277 1464
f 1273 1287 92
f 1471 1306 1292 1472
f 1287 1301 92
f 1290 1303 1301 1287
f 1292 1306 1303 1290
f 1306 1320 1317 1303
f 1469 1320 1306 1471
f 1301 1316 92
f 1303 1317 1316 1301
f 1317 102 1329 1316
f 1320 139 102 1317
f 1485 139 1320 1469
f 1316 1329 92
f 96 523 490 90
f 1488 523 96 1487
f 1257 474 70
f 90 490 474 1257
f 1490 616 523 1488
f 474 604 70
f 490 611 604 474
f 523 616 611 490
f 616 672 660 611
f 1497 672 616 1490
f 604 655 70
f 611 660 655 604
f 660 699 696 655
f 672 705 699 660
f 705 672 1497 1491
f 655 696 70
f 796 705 1491 1494
f 696 773 70
f 699 781 773 696
f 705 796 781 699
f 796 872 853 781
f 1493 872 796 1494
f 773 849 70
f 781 853 849 773
f 853 894 891 849
f 872 907 894 853
f 1492 907 872 1493
f 849 891 70
f 1496 942 907 1492
f 891 934 70
f 894 941 934 891
f 907 942 941 894
f 942 974 967 941
f 1495 974 942 1496
f 934 964 70
f 941 967 964 934
f 964 996 70
f 967 1000 996 964
f 974 1003 1000 967
f 1003 974 1495 1489
f 1033 1003 1489 1498
f 996 1022 70
f 1000 1032 1022 996
f 1003 1033 1032 1000
f 1032 1053 1051 1022
f 1033 1054 1053 1032
f 1499 1501 1054 1033 1498
f 1022 1051 70
f 1051 1074 70
f 1053 1075 1074 1051
f 1054 1079 1075 1053
f 1503 1079 1054 1501 1502
f 1079 1104 1099 1075
f 1509 1104 1079 1503
f 1074 1094 70
f 1075 1099 1094 1074
f 1099 1119 1117 1094
f 1104 1121 1119 1099
f 1511 1121 1104 1509
f 1094 1117 70
f 1506 1139 1121 1511
f 1117 1135 70
f 1119 1137 1135 1117
f 1121 1139 1137 1119
f 1139 1158 1154 1137
f 1507 1158 1139 1506
f 1135 1152 70
f 1137 1154 1152 1135
f 1154 1174 1170 1152
f 1158 1176 1174 1154
f 1504 1176 1158 1507
f 1152 1170 70
f 1505 1190 1176 1504
f 1170 1186 70
f 1174 1189 1186 1170
f 1176 1190 1189 1174
f 1190 1205 1203 1189
f 1510 1205 1190 1505
f 1186 1200 70
f 1189 1203 1200 1186
f 1203 1217 1215 1200
f 1205 1219 1217 1203
f 1508 1219 1205 1510
f 1200 1215 70
f 1500 1232 1219 1508
f 1215 1228 70
f 1217 1230 1228 1215
f 1219 1232 1230 1217
f 1232 1246 1245 1230
f 1486 1246 1232 1500
f 1228 1243 70
f 1230 1245 1243 1228
f 1245 90 1257 1243
f 1246 96 90 1245
f 1487 96 1246 1486
f 1243 1257 70
f 85 414 187 54
f 1516 414 85 1517
f 1184 116 2
f 54 187 116 1184
f 1515 575 414 1516
f 116 561 2
f 187 567 561 116
f 414 575 567 187
f 575 639 631 567
f 1523 639 575 1515
f 561 618 2
f 567 631 618 561
f 631 662 658 618
f 639 670 662 631
f 670 639 1523 1519
f 618 658 2
f 694 670 1519 1522
f 658 689 2
f 662 691 689 658
f 670 694 691 662
f 694 759 740 691
f 1520 759 694 1522
f 689 731 2
f 691 740 731 689
f 740 825 813 731
f 759 834 825 740
f 1521 834 759 1520
f 731 813 2
f 1518 873 834 1521
f 813 860 2
f 825 871 860 813
f 834 873 871 825
f 873 901 898 871
f 1534 901 873 1518
f 860 893 2
f 871 898 893 860
f 893 923 2
f 898 924 923 893
f 901 929 924 898
f 929 901 1534 1535
f 960 929 1535 1533
f 923 949 2
f 924 959 949 923
f 929 960 959 924
f 959 979 977 949
f 960 981 979 959
f 1536 981 960 1533
f 949 977 2
f 977 1001 2
f 979 1002 1001 977
f 981 1006 1002 979
f 1006 981 1536 1531
f 1006 1030 1028 1002
f 1529 1530 1030 1006 1531
f 1001 1021 2
f 1002 1028 1021 1001
f 1028 1047 1045 1021
f 1030 1049 1047 1028
f 1527 1049 1030 1530
f 1021 1045 2
f 1525 1066 1049 1527
f 1045 1062 2
f 1047 1064 1062 1045
f 1049 1066 1064 1047
f 1066 1085 1081 1064
f 1524 1085 1066 1525
f 1062 1078 2
f 1064 1081 1078 1062
f 1081 1101 1096 1078
f 1085 1102 1101 1081
f 1526 1102 1085 1524
f 1078 1096 2
f 1528 1118 1102 1526
f 1096 1114 2
f 1101 1116 1114 1096
f 1102 1118 1116 1101
f 1118 1131 1130 1116
f 1532 1131 1118 1528
f 1114 1127 2
f 1116 1130 1127 1114
f 1130 1144 1142 1127
f 1131 1146 1144 1130
f 1512 1146 1131 1532
f 1127 1142 2
f 1514 1159 1146 1512
f 1142 1156 2
f 1144 1157 1156 1142
f 1146 1159 1157 1144
f 1159 1173 1172 1157
f 1513 1173 1159 1514
f 1156 1169 2
f 1157 1172 1169 1156
f 1172 54 1184 1169
f 1173 85 54 1172
f 1517 85 1173 1513
f 1169 1184 2
f 66 115 110 36
f 1548 115 66 1559
f 1111 104 20
f 36 110 104 1111
f 1551 518 115 1548
f 104 497 20
f 110 503 497 104
f 115 518 503 110
f 518 598 591 503
f 1558 598 518 1551
f 497 570 20
f 503 591 570 497
f 591 630 622 570
f 598 637 630 591
f 637 598 1558 1553
f 570 622 20
f 661 637 1553 1556
f 622 657 20
f 630 659 657 622
f 637 661 659 630
f 661 686 681 659
f 1554 686 661 1556
f 657 677 20
f 659 681 677 657
f 681 702 700 677
f 686 716 702 681
f 1555 716 686 1554
f 677 700 20
f 1552 769 716 1555
f 700 758 20
f 702 763 758 700
f 716 769 763 702
f 769 829 816 763
f 1557 829 769 1552
f 758 811 20
f 763 816 811 758
f 811 854 20
f 816 858 854 811
f 829 863 858 816
f 863 829 1557 1549
f 888 863 1549 1550
f 854 878 20
f 858 886 878 854
f 863 888 886 858
f 886 906 905 878
f 888 911 906 886
f 1560 911 888 1550
f 878 905 20
f 905 926 20
f 906 930 926 905
f 911 932 930 906
f 1542 932 911 1560
f 932 958 955 930
f 1544 958 932 1542
f 926 948 20
f 930 955 948 926
f 955 973 970 948
f 958 976 973 955
f 1546 976 958 1544
f 948 970 20
f 1540 993 976 1546
f 970 989 20
f 973 991 989 970
f 976 993 991 973
f 993 1012 1007 991
f 1538 1012 993 1540
f 989 1005 20
f 991 1007 1005 989
f 1007 1026 1024 1005
f 1012 1029 1026 1007
f 1537 1029 1012 1538
f 1005 1024 20
f 1539 1044 1029 1537
f 1024 1040 20
f 1026 1042 1040 1024
f 1029 1044 1042 1026
f 1044 1059 1057 1042
f 1541 1059 1044 1539
f 1040 1055 20
f 1042 1057 1055 1040
f 1057 1070 1069 1055
f 1059 1073 1070 1057
f 1547 1073 1059 1541
f 1055 1069 20
f 1545 1087 1073 1547
f 1069 1082 20
f 1070 1084 1082 1069
f 1073 1087 1084 1070
f 1087 1100 1098 1084
f 1543 1100 1087 1545
f 1082 1097 20
f 1084 1098 1097 1082
f 1098 36 1111 1097
f 1100 66 36 1098
f 1559 66 1100 1543
f 1097 1111 20
f 30 93 91 29
f 1583 93 30 1584
f 1038 89 17
f 29 91 89 1038
f 207 93 1583 1573
f 89 149 17
f 91 171 149 89
f 93 207 171 91
f 207 555 543 171
f 1568 555 207 1573
f 149 522 17
f 171 543 522 149
f 543 592 586 522
f 555 594 592 543
f 594 555 1568 1566
f 522 586 17
f 629 594 1566 1564
f 586 621 17
f 592 624 621 586
f 594 629 624 592
f 629 650 648 624
f 1562 650 629 1564
f 621 647 17
f 624 648 647 621
f 648 667 663 647
f 650 671 667 648
f 1563 671 650 1562
f 647 663 17
f 1561 687 671 1563
f 663 684 17
f 667 685 684 663
f 671 687 685 667
f 687 704 703 685
f 1565 704 687 1561
f 684 701 17
f 685 703 701 684
f 701 738 17
f 703 744 738 701
f 704 754 744 703
f 754 704 1565 1567
f 800 754 1567 1569
f 738 788 17
f 744 790 788 738
f 754 800 790 744
f 790 835 830 788
f 800 836 835 790
f 836 800 1569 1570 1571
f 788 830 17
f 830 856 17
f 835 862 856 830
f 836 867 862 835
f 1572 1574 867 836 1571
f 867 884 880 862
f 1581 884 867 1574
f 856 879 17
f 862 880 879 856
f 880 900 897 879
f 884 902 900 880
f 1580 902 884 1581
f 879 897 17
f 1578 920 902 1580
f 897 916 17
f 900 918 916 897
f 902 920 918 900
f 920 937 935 918
f 1576 937 920 1578
f 916 933 17
f 918 935 933 916
f 935 953 950 933
f 937 957 953 935
f 1575 957 937 1576
f 933 950 17
f 1577 971 957 1575
f 950 968 17
f 953 969 968 950
f 957 971 969 953
f 971 985 983 969
f 1579 985 971 1577
f 968 982 17
f 969 983 982 968
f 983 998 995 982
f 985 999 998 983
f 1586 999 985 1579
f 982 995 17
f 1582 1014 999 1586
f 995 1009 17
f 998 1011 1009 995
f 999 1014 1011 998
f 1014 1027 1025 1011
f 1585 1027 1014 1582
f 1009 1023 17
f 1011 1025 1023 1009
f 1025 29 1038 1023
f 1027 30 29 1025
f 1584 30 1027 1585
f 1023 1038 17
f 26 83 73 6
f 1603 83 26 1604
f 965 64 1
f 6 73 64 965
f 1608 114 83 1603
f 64 108 1
f 73 112 108 64
f 83 114 112 73
f 114 455 331 112
f 1607 455 114 1608
f 108 276 1
f 112 331 276 108
f 331 535 528 276
f 455 545 535 331
f 545 455 1607 1605
f 276 528 1
f 589 545 1605 1606
f 528 578 1
f 535 582 578 528
f 545 589 582 535
f 589 614 612 582
f 1590 614 589 1606
f 578 609 1
f 582 612 609 578
f 612 634 632 609
f 614 636 634 612
f 636 614 1590 1588
f 609 632 1
f 1587 654 636 1588
f 632 651 1
f 634 652 651 632
f 636 654 652 634
f 654 668 666 652
f 1589 668 654 1587
f 651 665 1
f 652 666 665 651
f 665 678 1
f 666 680 678 665
f 668 683 680 666
f 683 668 1589 1609
f 697 683 1609 1602
f 678 692 1
f 680 695 692 678
f 683 697 695 680
f 695 717 713 692
f 697 722 717 695
f 1601 722 697 1602
f 692 713 1
f 713 747 1
f 717 752 747 713
f 722 756 752 717
f 1610 756 722 1601
f 756 794 789 752
f 1597 794 756 1610
f 747 786 1
f 752 789 786 747
f 789 822 818 786
f 794 827 822 789
f 1596 827 794 1597
f 786 818 1
f 1594 851 827 1596
f 818 845 1
f 822 847 845 818
f 827 851 847 822
f 851 870 869 847
f 1591 870 851 1594
f 845 865 1
f 847 869 865 845
f 869 883 881 865
f 870 885 883 869
f 1592 885 870 1591
f 865 881 1
f 1595 899 885 1592
f 881 895 1
f 883 896 895 881
f 885 899 896 883
f 899 912 910 896
f 1593 912 899 1595
f 895 909 1
f 896 910 909 895
f 910 925 922 909
f 912 927 925 910
f 1599 927 912 1593
f 909 922 1
f 1598 940 927 1599
f 922 936 1
f 925 939 936 922
f 927 940 939 925
f 940 954 952 939
f 1600 954 940 1598
f 936 951 1
f 939 952 951 936
f 952 6 965 951
f 954 26 6 952
f 1604 26 954 1600
f 951 965 1
f 719 1613 1614
f 1612 715 711 1615
f 1611 718 715 1612
f 709 1622 1616
f 1613 719 718 1611
f 1615 711 709 1616
f 1621 1622 709 736 734
f 719 750 746 718
f 711 737 736 709
f 1614 1617 753 750 719
f 715 742 737 711
f 734 1623 1621
f 753 1617 1618
f 718 746 742 715
f 734 761 1620 1623
f 779 753 1618 1619
f 746 774 771 742
f 736 766 761 734
f 750 775 774 746
f 737 767 766 736
f 753 779 775 750
f 742 771 767 737
f 767 798 792 766
f 779 809 807 775
f 771 801 798 767
f 761 791 1638 1620
f 809 779 1619 1637
f 774 804 801 771
f 766 792 791 761
f 775 807 804 774
f 792 823 820 791
f 807 831 828 804
f 798 824 823 792
f 809 832 831 807
f 801 826 824 798
f 791 820 1627 1638
f 832 809 1637 1626
f 804 828 826 801
f 826 844 843 824
f 820 839 1635 1627
f 850 832 1626 1624
f 828 846 844 826
f 823 840 839 820
f 831 848 846 828
f 824 843 840 823
f 832 850 848 831
f 843 859 857 840
f 1625 1629 866 848 850
f 844 861 859 843
f 839 1636 1635
f 850 1624 1625
f 846 864 861 844
f 1633 1636 839 840 857
f 848 866 864 846
f 1630 861 864 1631
f 857 1634 1633
f 1631 864 866 1628
f 1634 857 859 1632
f 866 1629 1628
f 1632 859 861 1630
f 714 1642 1643
f 1639 710 708 1641
f 1640 712 710 1639
f 707 1644 1645
f 1642 714 712 1640
f 1641 708 707 1645
f 1644 707 723 721 1651
f 714 732 730 712
f 708 726 723 707
f 1646 733 732 714 1643
f 710 727 726 708
f 721 1650 1651
f 733 1646 1647
f 712 730 727 710
f 721 739 1649 1650
f 751 733 1647 1648
f 730 748 745 727
f 723 741 739 721
f 732 749 748 730
f 726 743 741 723
f 733 751 749 732
f 727 745 743 726
f 743 762 760 741
f 751 770 768 749
f 745 764 762 743
f 739 757 1665 1649
f 770 751 1648 1666
f 748 765 764 745
f 741 760 757 739
f 749 768 765 748
f 760 778 776 757
f 768 785 784 765
f 762 780 778 760
f 770 787 785 768
f 764 782 780 762
f 757 776 1652 1665
f 787 770 1666 1657
f 765 784 782 764
f 782 799 797 780
f 776 793 1656 1652
f 805 787 1657 1654
f 784 802 799 782
f 778 795 793 776
f 785 803 802 784
f 780 797 795 778
f 787 805 803 785
f 797 815 812 795
f 1659 821 803 805 1655
f 799 817 815 797
f 793 1653 1656
f 805 1654 1655
f 802 819 817 799
f 1653 793 795 812 1660
f 803 821 819 802
f 1662 817 819 1663
f 812 1661 1660
f 1663 819 821 1658
f 1661 812 815 1664
f 821 1659 1658
f 1664 815 817 1662
f 168 153 1692 1690
f 174 168 1690 1691
f 1688 1689 132
f 179 174 1691 1694
f 153 132 1689 1692
f 1693 179 1694
f 153 472 468 132
f 1685 516 506 179 1693
f 168 476 472 153
f 1678 436 1679
f 1686 516 1685
f 174 499 476 168
f 1678 1688 132 468 436
f 179 506 499 174
f 499 550 544 476
f 468 539 525 436
f 506 551 550 499
f 472 540 539 468
f 516 557 551 506
f 476 544 540 472
f 1679 436 525 1677
f 1684 557 516 1686
f 544 579 573 540
f 1677 525 569 1680
f 1687 587 557 1684
f 550 584 579 544
f 539 571 569 525
f 551 585 584 550
f 540 573 571 539
f 557 587 585 551
f 585 608 606 584
f 573 602 601 571
f 587 610 608 585
f 579 605 602 573
f 1680 569 596 1675
f 1682 610 587 1687
f 584 606 605 579
f 571 601 596 569
f 606 625 623 605
f 601 619 617 596
f 608 626 625 606
f 602 620 619 601
f 610 628 626 608
f 605 623 620 602
f 1675 596 617 1676
f 1683 628 610 1682
f 1671 644 626 628 1681
f 623 640 638 620
f 1676 617 1674
f 1683 1681 628
f 625 642 640 623
f 1672 1674 617 619 635
f 626 644 642 625
f 620 638 635 619
f 642 644 1670 1667
f 635 638 1669 1673
f 1670 644 1671
f 638 640 1668 1669
f 640 642 1667 1668
f 1672 635 1673
f 143 138 1707 1705
f 152 143 1705 1706
f 1704 1703 120
f 157 152 1706 1708
f 138 120 1703 1707
f 1702 157 1708
f 138 282 265 120
f 1702 1719 462 452 157
f 143 379 282 138
f 1698 237 1699
f 1718 462 1719
f 152 419 379 143
f 1698 1704 120 265 237
f 157 452 419 152
f 419 505 501 379
f 265 493 486 237
f 452 511 505 419
f 282 496 493 265
f 462 514 511 452
f 379 501 496 282
f 1699 237 486 1700
f 1721 514 462 1718
f 501 532 530 496
f 1700 486 524 1697
f 1716 542 514 1721
f 505 537 532 501
f 493 526 524 486
f 511 541 537 505
f 496 530 526 493
f 514 542 541 511
f 541 564 562 537
f 530 558 556 526
f 542 565 564 541
f 532 560 558 530
f 1697 524 553 1701
f 1717 565 542 1716
f 537 562 560 532
f 526 556 553 524
f 562 580 577 560
f 556 574 572 553
f 564 581 580 562
f 558 576 574 556
f 565 583 581 564
f 560 577 576 558
f 1701 553 572 1695
f 1720 583 565 1717
f 1713 599 581 583 1722
f 577 595 593 576
f 1695 572 1696
f 1720 1722 583
f 580 597 595 577
f 1696 572 574 590 1714
f 581 599 597 580
f 576 593 590 574
f 597 599 1712 1710
f 590 593 1711 1715
f 1712 599 1713
f 593 595 1709 1711
f 595 597 1710 1709
f 1714 590 1715
f 1728 146 1727
f 136 133 1732 1729
f 142 136 1729 1730
f 1735 1736 129
f 146 142 1730 1727
f 1732 133 129 1736
f 1735 129 170 163 1746
f 146 200 183 142
f 133 172 170 129
f 1725 219 200 146 1728
f 136 177 172 133
f 1746 163 1747
f 1726 219 1725
f 142 183 177 136
f 1747 163 286 1748
f 1723 459 219 1726
f 183 437 421 177
f 170 369 286 163
f 200 454 437 183
f 172 402 369 170
f 219 459 454 200
f 177 421 402 172
f 402 483 475 369
f 459 498 495 454
f 421 488 483 402
f 1748 286 473 1749
f 1724 498 459 1723
f 437 492 488 421
f 369 475 473 286
f 454 495 492 437
f 475 510 508 473
f 495 519 517 492
f 483 513 510 475
f 498 520 519 495
f 488 515 513 483
f 1749 473 508 1745
f 1731 520 498 1724
f 492 517 515 488
f 515 533 531 513
f 1745 508 527 1750
f 1733 538 520 1731
f 517 534 533 515
f 510 529 527 508
f 519 536 534 517
f 513 531 529 510
f 520 538 536 519
f 531 548 546 529
f 1737 1739 554 536 538 1734
f 533 549 548 531
f 1750 527 1751
f 538 1733 1734
f 534 552 549 533
f 1742 1751 527 529 546
f 536 554 552 534
f 549 552 1741 1740
f 1742 546 1743
f 552 554 1738 1741
f 546 548 1744 1743
f 1738 554 1739
f 548 549 1740 1744
f 131 127 1777 1775
f 134 131 1775 1776
f 1774 1773 121
f 135 134 1776 1772
f 127 121 1773 1777
f 1766 135 1772
f 127 154 151 121
f 1766 1760 169 166 135
f 131 155 154 127
f 1778 148 1779
f 1761 169 1760
f 134 161 155 131
f 1778 1774 121 151 148
f 135 166 161 134
f 161 202 189 155
f 151 181 175 148
f 166 216 202 161
f 154 185 181 151
f 169 226 216 166
f 155 189 185 154
f 1779 148 175 1769
f 1762 226 169 1761
f 189 360 322 185
f 1769 175 283 1770
f 1759 418 226 1762
f 202 374 360 189
f 181 284 283 175
f 216 405 374 202
f 185 322 284 181
f 226 418 405 216
f 405 465 464 374
f 322 456 453 284
f 418 471 465 405
f 360 457 456 322
f 1770 283 448 1771
f 1758 471 418 1759
f 374 464 457 360
f 284 453 448 283
f 464 489 487 457
f 453 481 478 448
f 465 491 489 464
f 456 485 481 453
f 471 494 491 465
f 457 487 485 456
f 1771 448 478 1768
f 1755 494 471 1758
f 1754 509 491 494 1756
f 487 504 502 485
f 1768 478 1767
f 1755 1756 494
f 489 507 504 487
f 1767 478 481 500 1765
f 491 509 507 489
f 485 502 500 481
f 507 509 1753 1757
f 1764 500 502 1763
f 1753 509 1754
f 1763 502 504 1752
f 504 507 1757 1752
f 1765 500 1764
f 125 124 1790 1788
f 128 125 1788 1789
f 118 1794 1793
f 130 128 1789 1786
f 1790 124 118 1793
f 1787 130 1786
f 124 141 140 118
f 1784 150 147 130 1787
f 125 144 141 124
f 1804 137 1805
f 1785 150 1784
f 128 145 144 125
f 1804 1794 118 140 137
f 130 147 145 128
f 145 164 162 144
f 140 158 156 137
f 147 165 164 145
f 141 160 158 140
f 150 167 165 147
f 144 162 160 141
f 1805 137 156 1806
f 1783 167 150 1785
f 162 180 178 160
f 1806 156 173 1807
f 1781 186 167 1783
f 164 182 180 162
f 158 176 173 156
f 165 184 182 164
f 160 178 176 158
f 167 186 184 165
f 184 251 240 182
f 178 224 217 176
f 186 268 251 184
f 180 231 224 178
f 1807 173 210 1803
f 1782 268 186 1781
f 182 240 231 180
f 176 217 210 173
f 240 371 365 231
f 217 328 316 210
f 251 375 371 240
f 224 351 328 217
f 268 391 375 251
f 231 365 351 224
f 1803 210 316 1780
f 1792 391 268 1782
f 1796 450 375 391 1791
f 365 439 428 351
f 1780 316 1802
f 1792 1791 391
f 371 443 439 365
f 1800 1802 316 328 422
f 375 450 443 371
f 351 428 422 328
f 1798 443 450 1795
f 422 428 1799 1801
f 1795 450 1796
f 428 439 1797 1799
f 439 443 1798 1797
f 1800 422 1801
f 212 1835 1834
f 1831 204 198 1833
f 1832 205 204 1831
f 193 1829 1830
f 1835 212 205 1832
f 1833 198 193 1830
f 212 257 254 205
f 198 238 236 193
f 1834 1826 271 257 212
f 204 247 238 198
f 235 1820 1819
f 271 1826 1827
f 205 254 247 204
f 1829 193 236 235 1819
f 357 271 1827 1825
f 254 334 329 247
f 236 311 305 235
f 257 353 334 254
f 238 324 311 236
f 271 357 353 257
f 247 329 324 238
f 1820 235 305 1818
f 357 417 412 353
f 329 399 393 324
f 305 376 1821 1818
f 1828 417 357 1825
f 334 410 399 329
f 311 378 376 305
f 353 412 410 334
f 324 393 378 311
f 412 449 447 410
f 393 441 438 378
f 417 451 449 412
f 399 445 441 393
f 376 430 1816 1821
f 1823 451 417 1828
f 410 447 445 399
f 378 438 430 376
f 430 458 1817 1816
f 1824 470 451 1823
f 447 466 463 445
f 438 460 458 430
f 449 467 466 447
f 441 461 460 438
f 451 470 467 449
f 445 463 461 441
f 1822 1812 484 467 470
f 463 480 479 461
f 1817 458 1815
f 470 1824 1822
f 466 482 480 463
f 1815 458 460 477 1813
f 467 484 482 466
f 461 479 477 460
f 477 1814 1813
f 1808 482 484 1811
f 1814 477 479 1810
f 484 1812 1811
f 1810 479 480 1809
f 1809 480 482 1808
f 201 1849 1843
f 1846 196 194 1848
f 1847 199 196 1846
f 190 1845 1844
f 1849 201 199 1847
f 1848 194 190 1844
f 201 229 227 199
f 194 220 218 190
f 1861 233 229 201 1843
f 196 221 220 194
f 213 1840 1839
f 233 1861 1863
f 199 227 221 196
f 1845 190 218 213 1839
f 266 233 1863 1862
f 227 259 253 221
f 218 245 242 213
f 229 261 259 227
f 220 249 245 218
f 233 266 261 229
f 221 253 249 220
f 1840 213 242 1841
f 266 327 320 261
f 253 306 300 249
f 242 285 1838 1841
f 327 266 1862 1859
f 259 313 306 253
f 245 289 285 242
f 261 320 313 259
f 249 300 289 245
f 320 367 363 313
f 300 358 356 289
f 327 373 367 320
f 306 362 358 300
f 285 342 1842 1838
f 1860 373 327 1859
f 313 363 362 306
f 289 356 342 285
f 342 384 1836 1842
f 1858 408 373 1860
f 363 403 400 362
f 356 389 384 342
f 367 407 403 363
f 358 396 389 356
f 373 408 407 367
f 362 400 396 358
f 1857 1855 435 407 408
f 400 427 424 396
f 1836 384 1837
f 408 1858 1857
f 403 433 427 400
f 1853 1837 384 389 420
f 407 435 433 403
f 396 424 420 389
f 420 1856 1853
f 1850 433 435 1854
f 1856 420 424 1852
f 435 1855 1854
f 1852 424 427 1851
f 1851 427 433 1850
f 1877 191 188 1874
f 197 1879 1878
f 1875 192 191 1877
f 1876 195 192 1875
f 188 1873 1874
f 1879 197 195 1876
f 195 211 209 192
f 1873 188 206 203 1888 1865
f 197 214 211 195
f 191 208 206 188
f 1878 1870 215 214 197
f 192 209 208 191
f 203 1889 1888
f 215 1870 1871
f 209 228 225 208
f 1889 203 222 1890
f 234 215 1871 1869
f 211 230 228 209
f 206 223 222 203
f 214 232 230 211
f 208 225 223 206
f 215 234 232 214
f 232 250 248 230
f 225 243 241 223
f 234 252 250 232
f 228 246 243 225
f 222 239 1891 1890
f 1872 252 234 1869
f 230 248 246 228
f 223 241 239 222
f 248 274 269 246
f 241 264 262 239
f 250 277 274 248
f 243 267 264 241
f 252 279 277 250
f 246 269 267 243
f 239 262 1887 1891
f 1867 279 252 1872
f 279 318 315 277
f 269 309 302 267
f 262 287 1892 1887
f 1868 318 279 1867
f 274 312 309 269
f 264 295 287 262
f 277 315 312 274
f 267 302 295 264
f 315 349 346 312
f 302 333 330 295
f 1864 1881 349 315 318 1866
f 309 339 333 302
f 1892 287 1893
f 318 1868 1866
f 312 346 339 309
f 1893 287 295 330 1884
f 1883 339 346 1882
f 330 1885 1884
f 1882 346 349 1880
f 1885 330 333 1886
f 349 1881 1880
f 1886 333 339 1883
f 18 87 80 446
f 13 69 68 442
f 1921 11 47 1910
f 1909 87 18 1920
f 444 71 69 13
f 440 59 47 11
f 446 80 71 444
f 442 68 59 440
f 59 97 94 47
f 80 109 107 71
f 68 100 97 59
f 87 111 109 80
f 69 105 100 68
f 1910 47 94 1918
f 1907 111 87 1909
f 71 107 105 69
f 105 122 119 100
f 1918 94 1919
f 1908 111 1907
f 107 123 122 105
f 1916 1919 94 97 117
f 109 126 123 107
f 100 119 117 97
f 1908 1912 126 109 111
f 117 119 1915 1917
f 1911 126 1912
f 119 122 1913 1915
f 122 123 1914 1913
f 1916 117 1917
f 123 126 1911 1914
f 385 381 1899 1898
f 1897 395 1896
f 387 385 1898 1895
f 392 387 1895 1894
f 1905 1899 381
f 395 392 1894 1896
f 392 413 411 387
f 1904 1905 381 406 404
f 395 415 413 392
f 385 409 406 381
f 1897 1900 416 415 395
f 387 411 409 385
f 1906 1904 404
f 1901 416 1900
f 411 429 426 409
f 404 423 1903 1906
f 1902 434 416 1901
f 413 431 429 411
f 406 425 423 404
f 415 432 431 413
f 409 426 425 406
f 416 434 432 415
f 432 446 444 431
f 426 442 440 425
f 434 18 446 432
f 429 13 442 426
f 423 11 1921 1903
f 1920 18 434 1902
f 431 444 13 429
f 425 440 11 423
f 15 62 56 401
f 12 48 44 397
f 1928 9 34 1925
f 1944 62 15 1949
f 398 50 48 12
f 394 42 34 9
f 401 56 50 398
f 397 44 42 394
f 42 76 72 34
f 56 86 84 50
f 44 77 76 42
f 62 88 86 56
f 48 81 77 44
f 1925 34 72 1926
f 1946 88 62 1944
f 50 84 81 48
f 81 99 98 77
f 1926 72 1927
f 1945 88 1946
f 84 101 99 81
f 1927 72 76 95 1934
f 86 103 101 84
f 77 98 95 76
f 1930 103 86 88 1945
f 95 98 1933 1935
f 1929 103 1930
f 98 99 1931 1933
f 99 101 1932 1931
f 1934 95 1935
f 101 103 1929 1932
f 340 337 1940 1938
f 1942 348 1941
f 345 340 1938 1936
f 347 345 1936 1937
f 1939 1940 337
f 348 347 1937 1941
f 347 368 366 345
f 1939 337 361 359 1922
f 348 370 368 347
f 340 364 361 337
f 1947 372 370 348 1942
f 345 366 364 340
f 1924 1922 359
f 1948 372 1947
f 366 383 382 364
f 359 377 1923 1924
f 1943 390 372 1948
f 368 386 383 366
f 361 380 377 359
f 370 388 386 368
f 364 382 380 361
f 372 390 388 370
f 388 401 398 386
f 382 397 394 380
f 390 15 401 388
f 383 12 397 382
f 377 9 1928 1923
f 1949 15 390 1943
f 386 398 12 383
f 380 394 9 377
f 10 40 38 355
f 8 31 28 352
f 1954 4 22 1953
f 1972 40 10 1974
f 354 32 31 8
f 350 25 22 4
f 355 38 32 354
f 352 28 25 350
f 25 52 49 22
f 38 65 63 32
f 28 58 52 25
f 40 67 65 38
f 31 61 58 28
f 1953 22 49 1960
f 1971 67 40 1972
f 32 63 61 31
f 61 78 75 58
f 1960 49 1961
f 1970 67 1971
f 63 79 78 61
f 1955 1961 49 52 74
f 65 82 79 63
f 58 75 74 52
f 1970 1963 82 65 67
f 74 75 1959 1956
f 82 1963 1962
f 75 78 1957 1959
f 78 79 1958 1957
f 1955 74 1956
f 79 82 1962 1958
f 1968 293 291 1977
f 1967 303 1966
f 297 293 1968 1965
f 301 297 1965 1964
f 291 1976 1977
f 303 301 1964 1966
f 301 323 321 297
f 1950 1976 291 317 314
f 303 325 323 301
f 293 319 317 291
f 326 325 303 1967 1975
f 297 321 319 293
f 1952 1950 314
f 326 1975 1973
f 321 338 336 319
f 314 332 1951 1952
f 1969 344 326 1973
f 323 341 338 321
f 317 335 332 314
f 325 343 341 323
f 319 336 335 317
f 326 344 343 325
f 343 355 354 341
f 336 352 350 335
f 344 10 355 343
f 338 8 352 336
f 332 4 1954 1951
f 1974 10 344 1969
f 341 354 8 338
f 335 350 4 332
f 307 19 16 304
f 7 27 24 310
f 5 21 19 307
f 2004 3 14 1994
f 1993 27 7 2005
f 308 23 21 5
f 304 16 14 3
f 310 24 23 308
f 1994 14 33 2002
f 1991 45 27 1993
f 23 41 39 21
f 16 35 33 14
f 24 43 41 23
f 19 37 35 16
f 27 45 43 24
f 21 39 37 19
f 45 1992 1996 60 43
f 39 55 53 37
f 2002 33 2003
f 1992 45 1991
f 41 57 55 39
f 2003 33 35 51 2000
f 43 60 57 41
f 37 53 51 35
f 2000 51 2001
f 57 60 1995 1998
f 51 53 1999 2001
f 1995 60 1996
f 53 55 1997 1999
f 55 57 1998 1997
f 1990 1984 255
f 263 260 1980 1982
f 256 255 1984 1981
f 1983 263 1982
f 258 256 1981 1979
f 260 258 1979 1980
f 270 1978 1989
f 281 1985 1986
f 260 278 275 258
f 1990 255 272 270 1989
f 263 280 278 260
f 256 273 272 255
f 280 263 1983 1985 281
f 258 275 273 256
f 273 292 290 272
f 281 299 298 280
f 275 294 292 273
f 270 288 1988 1978
f 1987 299 281 1986
f 278 296 294 275
f 272 290 288 270
f 280 298 296 278
f 290 304 3 288
f 298 310 308 296
f 292 307 304 290
f 299 7 310 298
f 294 5 307 292
f 288 3 2004 1988
f 2005 7 299 1987
f 296 308 5 294
