v 1.000000 0.000000 0.000000
v 0.793156 0.104421 0.000000
v 0.965926 0.258819 0.000000
v 0.739104 0.306147 0.000000
v 0.866025 0.500000 0.000000
v 0.634683 0.487009 0.000000
v 0.707107 0.707107 0.000000
v 0.487009 0.634683 0.000000
v 0.500000 0.866025 0.000000
v 0.306147 0.739104 0.000000
v 0.258819 0.965926 0.000000
v 0.104421 0.793156 0.000000
v 0.000000 1.000000 0.000000
v -0.104421 0.793156 0.000000
v -0.258819 0.965926 0.000000
v -0.306147 0.739104 0.000000
v -0.500000 0.866025 0.000000
v -0.487009 0.634683 0.000000
v -0.707107 0.707107 0.000000
v -0.634683 0.487009 0.000000
v -0.866025 0.500000 0.000000
v -0.739104 0.306147 0.000000
v -0.965926 0.258819 0.000000
v -0.793156 0.104421 0.000000
v -1.000000 0.000000 0.000000
v -0.793156 -0.104421 0.000000
v -0.965926 -0.258819 0.000000
v -0.739104 -0.306147 0.000000
v -0.866025 -0.500000 0.000000
v -0.634683 -0.487009 0.000000
v -0.707107 -0.707107 0.000000
v -0.487009 -0.634683 0.000000
v -0.500000 -0.866025 0.000000
v -0.306147 -0.739104 0.000000
v -0.258819 -0.965926 0.000000
v -0.104421 -0.793156 0.000000
v -0.000000 -1.000000 0.000000
v 0.104421 -0.793156 0.000000
v 0.258819 -0.965926 0.000000
v 0.306147 -0.739104 0.000000
v 0.500000 -0.866025 0.000000
v 0.487009 -0.634683 0.000000
v 0.707107 -0.707107 0.000000
v 0.634683 -0.487009 0.000000
v 0.866025 -0.500000 0.000000
v 0.739104 -0.306147 0.000000
v 0.965926 -0.258819 0.000000
v 0.793156 -0.104421 0.000000
v 1.000000 0.000000 0.300000
v 0.793156 0.104421 0.300000
v 0.965926 0.258819 0.300000
v 0.739104 0.306147 0.300000
v 0.866025 0.500000 0.300000
v 0.634683 0.487009 0.300000
v 0.707107 0.707107 0.300000
v 0.487009 0.634683 0.300000
v 0.500000 0.866025 0.300000
v 0.306147 0.739104 0.300000
v 0.258819 0.965926 0.300000
v 0.104421 0.793156 0.300000
v 0.000000 1.000000 0.300000
v -0.104421 0.793156 0.300000
v -0.258819 0.965926 0.300000
v -0.306147 0.739104 0.300000
v -0.500000 0.866025 0.300000
v -0.487009 0.634683 0.300000
v -0.707107 0.707107 0.300000
v -0.634683 0.487009 0.300000
v -0.866025 0.500000 0.300000
v -0.739104 0.306147 0.300000
v -0.965926 0.258819 0.300000
v -0.793156 0.104421 0.300000
v -1.000000 0.000000 0.300000
v -0.793156 -0.104421 0.300000
v -0.965926 -0.258819 0.300000
v -0.739104 -0.306147 0.300000
v -0.866025 -0.500000 0.300000
v -0.634683 -0.487009 0.300000
v -0.707107 -0.707107 0.300000
v -0.487009 -0.634683 0.300000
v -0.500000 -0.866025 0.300000
v -0.306147 -0.739104 0.300000
v -0.258819 -0.965926 0.300000
v -0.104421 -0.793156 0.300000
v -0.000000 -1.000000 0.300000
v 0.104421 -0.793156 0.300000
v 0.258819 -0.965926 0.300000
v 0.306147 -0.739104 0.300000
v 0.500000 -0.866025 0.300000
v 0.487009 -0.634683 0.300000
v 0.707107 -0.707107 0.300000
v 0.634683 -0.487009 0.300000
v 0.866025 -0.500000 0.300000
v 0.739104 -0.306147 0.300000
v 0.965926 -0.258819 0.300000
v 0.793156 -0.104421 0.300000
f 1 2 50 49
f 2 3 51 50
f 3 4 52 51
f 4 5 53 52
f 5 6 54 53
f 6 7 55 54
f 7 8 56 55
f 8 9 57 56
f 9 10 58 57
f 10 11 59 58
f 11 12 60 59
f 12 13 61 60
f 13 14 62 61
f 14 15 63 62
f 15 16 64 63
f 16 17 65 64
f 17 18 66 65
f 18 19 67 66
f 19 20 68 67
f 20 21 69 68
f 21 22 70 69
f 22 23 71 70
f 23 24 72 71
f 24 25 73 72
f 25 26 74 73
f 26 27 75 74
f 27 28 76 75
f 28 29 77 76
f 29 30 78 77
f 30 31 79 78
f 31 32 80 79
f 32 33 81 80
f 33 34 82 81
f 34 35 83 82
f 35 36 84 83
f 36 37 85 84
f 37 38 86 85
f 38 39 87 86
f 39 40 88 87
f 40 41 89 88
f 41 42 90 89
f 42 43 91 90
f 43 44 92 91
f 44 45 93 92
f 45 46 94 93
f 46 47 95 94
f 47 48 96 95
f 48 1 49 96
f 1 2 3 4 5 6 7 8 9 10 11 12 13 14 15 16 17 18 19 20 21 22 23 24 25 26 27 28 29 30 31 32 33 34 35 36 37 38 39 40 41 42 43 44 45 46 47 48
f 49 50 51 52 53 54 55 56 57 58 59 60 61 62 63 64 65 66 67 68 69 70 71 72 73 74 75 76 77 78 79 80 81 82 83 84 85 86 87 88 89 90 91 92 93 94 95 96
