v -0.297893 -0.810000 0.152107
v -0.297893 -0.807893 0.150000
v -0.300000 -0.807893 0.152107
v -0.297893 -0.809719 0.151055
v -0.298945 -0.809719 0.152107
v -0.298901 -0.809445 0.151099
v -0.298945 -0.807893 0.150281
v -0.297893 -0.808945 0.150281
v -0.298901 -0.808901 0.150555
v -0.299719 -0.808945 0.152107
v -0.299719 -0.807893 0.151055
v -0.299445 -0.808901 0.151099
v 0.000018 0.997890 -0.250000
v 0.000000 1.000000 -0.247893
v 0.000009 0.998945 -0.249718
v 0.000002 0.999717 -0.248947
v -0.000000 0.997891 0.250000
v 0.000000 1.000000 0.247893
v -0.000000 0.998945 0.249718
v -0.000000 0.999717 0.248947
v -0.297893 -0.692107 0.150000
v -0.297893 -0.690000 0.152107
v -0.300000 -0.692107 0.152107
v -0.297893 -0.691055 0.150281
v -0.298945 -0.692107 0.150281
v -0.298901 -0.691099 0.150555
v -0.298945 -0.690281 0.152107
v -0.297893 -0.690281 0.151055
v -0.298901 -0.690555 0.151099
v -0.299719 -0.692107 0.151055
v -0.299719 -0.691055 0.152107
v -0.299445 -0.691099 0.151099
v 0.097810 0.993086 -0.250000
v 0.098017 0.995185 -0.247893
v 0.097914 0.994135 -0.249718
v 0.097989 0.994904 -0.248947
v 0.097325 0.993110 0.250000
v 0.098017 0.995185 0.247893
v 0.097671 0.994147 0.249718
v 0.097924 0.994907 0.248947
v 0.297893 -0.807893 0.150000
v 0.297893 -0.810000 0.152107
v 0.300000 -0.807893 0.152107
v 0.297893 -0.808945 0.150281
v 0.298945 -0.807893 0.150281
v 0.298901 -0.808901 0.150555
v 0.298945 -0.809719 0.152107
v 0.297893 -0.809719 0.151055
v 0.298901 -0.809445 0.151099
v 0.299719 -0.807893 0.151055
v 0.299719 -0.808945 0.152107
v 0.299445 -0.808901 0.151099
v 0.194678 0.978717 -0.250000
v 0.195090 0.980785 -0.247893
v 0.194884 0.979751 -0.249718
v 0.195035 0.980508 -0.248947
v 0.194669 0.978668 0.250000
v 0.195090 0.980785 0.247893
v 0.194880 0.979727 0.249718
v 0.195034 0.980502 0.248947
v 0.297893 -0.692107 0.150000
v 0.300000 -0.692107 0.152107
v 0.297893 -0.690000 0.152107
v 0.298945 -0.692107 0.150281
v 0.297893 -0.691055 0.150281
v 0.298901 -0.691099 0.150555
v 0.299719 -0.691055 0.152107
v 0.299719 -0.692107 0.151055
v 0.299445 -0.691099 0.151099
v 0.297893 -0.690281 0.151055
v 0.298945 -0.690281 0.152107
v 0.298901 -0.690555 0.151099
v 0.289672 0.954922 -0.250000
v 0.290285 0.956940 -0.247893
v 0.289979 0.955931 -0.249718
v 0.290203 0.956670 -0.248947
v 0.291309 0.954455 0.250000
v 0.290285 0.956940 0.247893
v 0.290797 0.955698 0.249718
v 0.290422 0.956607 0.248947
v 0.381877 0.921931 -0.250000
v 0.382683 0.923880 -0.247893
v 0.382280 0.922905 -0.249718
v 0.382575 0.923618 -0.248947
v 0.380886 0.922399 0.250000
v 0.382683 0.923880 0.247893
v 0.381785 0.923139 0.249718
v 0.382443 0.923681 0.248947
v 0.470402 0.880061 -0.250000
v 0.471397 0.881921 -0.247893
v 0.470900 0.880991 -0.249718
v 0.471264 0.881672 -0.248947
v 0.470402 0.880061 0.250000
v 0.471397 0.881921 0.247893
v 0.470900 0.880991 0.249718
v 0.471264 0.881672 0.248947
v 0.554398 0.829716 -0.250000
v 0.555570 0.831470 -0.247893
v 0.554984 0.830593 -0.249718
v 0.555413 0.831235 -0.248947
v 0.554398 0.829716 0.250000
v 0.555570 0.831470 0.247893
v 0.554984 0.830593 0.249718
v 0.555413 0.831235 0.248947
v 0.633055 0.771380 -0.250000
v 0.634393 0.773010 -0.247893
v 0.633724 0.772195 -0.249718
v 0.634214 0.772792 -0.248947
v 0.633055 0.771380 0.250000
v 0.634393 0.773010 0.247893
v 0.633724 0.772195 0.249718
v 0.634214 0.772792 0.248947
v 0.705615 0.705615 -0.250000
v 0.707107 0.707107 -0.247893
v 0.706361 0.706361 -0.249718
v 0.706907 0.706907 -0.248947
v 0.705615 0.705615 0.250000
v 0.707107 0.707107 0.247893
v 0.706361 0.706361 0.249718
v 0.706907 0.706907 0.248947
v 0.771713 0.632688 -0.250000
v 0.773010 0.634393 -0.247893
v 0.772362 0.633541 -0.249718
v 0.772837 0.634165 -0.248947
v 0.771380 0.633055 0.250000
v 0.773010 0.634393 0.247893
v 0.772195 0.633724 0.249718
v 0.772792 0.634214 0.248947
v 0.831470 0.555570 -0.247893
v 0.829158 0.555236 -0.250000
v 0.831160 0.555525 -0.248947
v 0.830314 0.555403 -0.249718
v 0.829716 0.554398 0.250000
v 0.831470 0.555570 0.247893
v 0.830593 0.554984 0.249718
v 0.831235 0.555413 0.248947
v 0.880264 0.469975 -0.250000
v 0.881921 0.471397 -0.247893
v 0.881092 0.470686 -0.249718
v 0.881699 0.471206 -0.248947
v 0.880061 0.470402 0.250000
v 0.881921 0.471397 0.247893
v 0.880991 0.470900 0.249718
v 0.881672 0.471264 0.248947
v 0.921931 0.381877 -0.250000
v 0.923880 0.382683 -0.247893
v 0.922905 0.382280 -0.249718
v 0.923618 0.382575 -0.248947
v 0.921931 0.381877 0.250000
v 0.923880 0.382683 0.247893
v 0.922905 0.382280 0.249718
v 0.923618 0.382575 0.248947
v 0.954922 0.289672 -0.250000
v 0.956940 0.290285 -0.247893
v 0.955931 0.289979 -0.249718
v 0.956670 0.290203 -0.248947
v 0.954922 0.289672 0.250000
v 0.956940 0.290285 0.247893
v 0.955931 0.289979 0.249718
v 0.956670 0.290203 0.248947
v 0.978717 0.194678 -0.250000
v 0.980785 0.195090 -0.247893
v 0.979751 0.194884 -0.249718
v 0.980508 0.195035 -0.248947
v 0.978717 0.194678 0.250000
v 0.980785 0.195090 0.247893
v 0.979751 0.194884 0.249718
v 0.980508 0.195035 0.248947
v 0.993086 0.097810 -0.250000
v 0.995185 0.098017 -0.247893
v 0.994135 0.097914 -0.249718
v 0.994904 0.097989 -0.248947
v 0.993086 0.097810 0.250000
v 0.995185 0.098017 0.247893
v 0.994135 0.097914 0.249718
v 0.994904 0.097989 0.248947
v 0.997891 -0.000000 -0.250000
v 1.000000 0.000000 -0.247893
v 0.998945 -0.000000 -0.249718
v 0.999717 -0.000000 -0.248947
v 0.997891 0.000000 0.250000
v 1.000000 0.000000 0.247893
v 0.998945 0.000000 0.249718
v 0.999717 0.000000 0.248947
v 0.993086 -0.097810 -0.250000
v 0.995185 -0.098017 -0.247893
v 0.994135 -0.097914 -0.249718
v 0.994904 -0.097989 -0.248947
v 0.993086 -0.097810 0.250000
v 0.995185 -0.098017 0.247893
v 0.994135 -0.097914 0.249718
v 0.994904 -0.097989 0.248947
v 0.978717 -0.194678 -0.250000
v 0.980785 -0.195090 -0.247893
v 0.979751 -0.194884 -0.249718
v 0.980508 -0.195035 -0.248947
v 0.978717 -0.194678 0.250000
v 0.980785 -0.195090 0.247893
v 0.979751 -0.194884 0.249718
v 0.980508 -0.195035 0.248947
v 0.954922 -0.289672 -0.250000
v 0.956940 -0.290285 -0.247893
v 0.955931 -0.289979 -0.249718
v 0.956670 -0.290203 -0.248947
v 0.954922 -0.289672 0.250000
v 0.956940 -0.290285 0.247893
v 0.955931 -0.289979 0.249718
v 0.956670 -0.290203 0.248947
v 0.921931 -0.381877 -0.250000
v 0.923880 -0.382683 -0.247893
v 0.922905 -0.382280 -0.249718
v 0.923618 -0.382575 -0.248947
v 0.921931 -0.381877 0.250000
v 0.923880 -0.382683 0.247893
v 0.922905 -0.382280 0.249718
v 0.923618 -0.382575 0.248947
v 0.880061 -0.470402 -0.250000
v 0.881921 -0.471397 -0.247893
v 0.880991 -0.470900 -0.249718
v 0.881672 -0.471264 -0.248947
v 0.880061 -0.470402 0.250000
v 0.881921 -0.471397 0.247893
v 0.880991 -0.470900 0.249718
v 0.881672 -0.471264 0.248947
v 0.829716 -0.554398 -0.250000
v 0.831470 -0.555570 -0.247893
v 0.830593 -0.554984 -0.249718
v 0.831235 -0.555413 -0.248947
v 0.829848 -0.554178 0.250000
v 0.831470 -0.555570 0.247893
v 0.830659 -0.554874 0.249718
v 0.831252 -0.555384 0.248947
v 0.771380 -0.633055 -0.250000
v 0.773010 -0.634393 -0.247893
v 0.772195 -0.633724 -0.249718
v 0.772792 -0.634214 -0.248947
v 0.771038 -0.633472 0.250000
v 0.773010 -0.634393 0.247893
v 0.772024 -0.633933 0.249718
v 0.772746 -0.634270 0.248947
v 0.705615 -0.705615 -0.250000
v 0.707107 -0.707107 -0.247893
v 0.706361 -0.706361 -0.249718
v 0.706907 -0.706907 -0.248947
v 0.705810 -0.705439 0.250000
v 0.707107 -0.707107 0.247893
v 0.706458 -0.706273 0.249718
v 0.706933 -0.706883 0.248947
v 0.632688 -0.771713 -0.250000
v 0.634393 -0.773010 -0.247893
v 0.633541 -0.772362 -0.249718
v 0.634165 -0.772837 -0.248947
v 0.633055 -0.771380 0.250000
v 0.634393 -0.773010 0.247893
v 0.633724 -0.772195 0.249718
v 0.634214 -0.772792 0.248947
v 0.555570 -0.831470 -0.247893
v 0.555236 -0.829158 -0.250000
v 0.555525 -0.831160 -0.248947
v 0.555403 -0.830314 -0.249718
v 0.554398 -0.829716 0.250000
v 0.555570 -0.831470 0.247893
v 0.554984 -0.830593 0.249718
v 0.555413 -0.831235 0.248947
v 0.469975 -0.880264 -0.250000
v 0.471397 -0.881921 -0.247893
v 0.470686 -0.881092 -0.249718
v 0.471206 -0.881699 -0.248947
v 0.470402 -0.880061 0.250000
v 0.471397 -0.881921 0.247893
v 0.470900 -0.880991 0.249718
v 0.471264 -0.881672 0.248947
v 0.381877 -0.921931 -0.250000
v 0.382683 -0.923880 -0.247893
v 0.382280 -0.922905 -0.249718
v 0.382575 -0.923618 -0.248947
v 0.381877 -0.921931 0.250000
v 0.382683 -0.923880 0.247893
v 0.382280 -0.922905 0.249718
v 0.382575 -0.923618 0.248947
v 0.289672 -0.954922 -0.250000
v 0.290285 -0.956940 -0.247893
v 0.289979 -0.955931 -0.249718
v 0.290203 -0.956670 -0.248947
v 0.289672 -0.954922 0.250000
v 0.290285 -0.956940 0.247893
v 0.289979 -0.955931 0.249718
v 0.290203 -0.956670 0.248947
v 0.194661 -0.978721 -0.250000
v 0.195090 -0.980785 -0.247893
v 0.194876 -0.979753 -0.249718
v 0.195033 -0.980509 -0.248947
v 0.194678 -0.978717 0.250000
v 0.195090 -0.980785 0.247893
v 0.194884 -0.979751 0.249718
v 0.195035 -0.980508 0.248947
v 0.098017 -0.995185 -0.247893
v 0.097847 -0.993082 -0.250000
v 0.097994 -0.994903 -0.248947
v 0.097932 -0.994133 -0.249718
v 0.097810 -0.993086 0.250000
v 0.098017 -0.995185 0.247893
v 0.097914 -0.994135 0.249718
v 0.097989 -0.994904 0.248947
v -0.000018 -0.997890 -0.250000
v 0.000000 -1.000000 -0.247893
v -0.000009 -0.998945 -0.249718
v -0.000002 -0.999717 -0.248947
v 0.000000 -0.997891 0.250000
v 0.000000 -1.000000 0.247893
v 0.000000 -0.998945 0.249718
v 0.000000 -0.999717 0.248947
v -0.097810 -0.993086 -0.250000
v -0.098017 -0.995185 -0.247893
v -0.097914 -0.994135 -0.249718
v -0.097989 -0.994904 -0.248947
v -0.097810 -0.993086 0.250000
v -0.098017 -0.995185 0.247893
v -0.097914 -0.994135 0.249718
v -0.097989 -0.994904 0.248947
v -0.194678 -0.978717 -0.250000
v -0.195090 -0.980785 -0.247893
v -0.194884 -0.979751 -0.249718
v -0.195035 -0.980508 -0.248947
v -0.194679 -0.978717 0.250000
v -0.195090 -0.980785 0.247893
v -0.194885 -0.979751 0.249718
v -0.195035 -0.980508 0.248947
v -0.289672 -0.954922 -0.250000
v -0.290285 -0.956940 -0.247893
v -0.289979 -0.955931 -0.249718
v -0.290203 -0.956670 -0.248947
v -0.289672 -0.954922 0.250000
v -0.290285 -0.956940 0.247893
v -0.289979 -0.955931 0.249718
v -0.290203 -0.956670 0.248947
v -0.381877 -0.921931 -0.250000
v -0.382683 -0.923880 -0.247893
v -0.382280 -0.922905 -0.249718
v -0.382575 -0.923618 -0.248947
v -0.381877 -0.921931 0.250000
v -0.382683 -0.923880 0.247893
v -0.382280 -0.922905 0.249718
v -0.382575 -0.923618 0.248947
v -0.470402 -0.880061 -0.250000
v -0.471397 -0.881921 -0.247893
v -0.470900 -0.880991 -0.249718
v -0.471264 -0.881672 -0.248947
v -0.470402 -0.880061 0.250000
v -0.471397 -0.881921 0.247893
v -0.470900 -0.880991 0.249718
v -0.471264 -0.881672 0.248947
v -0.554178 -0.829848 -0.250000
v -0.555570 -0.831470 -0.247893
v -0.554874 -0.830659 -0.249718
v -0.555384 -0.831252 -0.248947
v -0.554178 -0.829848 0.250000
v -0.555570 -0.831470 0.247893
v -0.554874 -0.830659 0.249718
v -0.555384 -0.831252 0.248947
v -0.634393 -0.773010 -0.247893
v -0.633472 -0.771038 -0.250000
v -0.634270 -0.772746 -0.248947
v -0.633933 -0.772024 -0.249718
v -0.633472 -0.771038 0.250000
v -0.634393 -0.773010 0.247893
v -0.633933 -0.772024 0.249718
v -0.634270 -0.772746 0.248947
v -0.705439 -0.705810 -0.250000
v -0.707107 -0.707107 -0.247893
v -0.706273 -0.706458 -0.249718
v -0.706883 -0.706933 -0.248947
v -0.705439 -0.705810 0.250000
v -0.707107 -0.707107 0.247893
v -0.706273 -0.706458 0.249718
v -0.706883 -0.706933 0.248947
v -0.771380 -0.633055 -0.250000
v -0.773010 -0.634393 -0.247893
v -0.772195 -0.633724 -0.249718
v -0.772792 -0.634214 -0.248947
v -0.771380 -0.633055 0.250000
v -0.773010 -0.634393 0.247893
v -0.772195 -0.633724 0.249718
v -0.772792 -0.634214 0.248947
v -0.829716 -0.554398 -0.250000
v -0.831470 -0.555570 -0.247893
v -0.830593 -0.554984 -0.249718
v -0.831235 -0.555413 -0.248947
v -0.829716 -0.554398 0.250000
v -0.831470 -0.555570 0.247893
v -0.830593 -0.554984 0.249718
v -0.831235 -0.555413 0.248947
v -0.880061 -0.470402 -0.250000
v -0.881921 -0.471397 -0.247893
v -0.880991 -0.470900 -0.249718
v -0.881672 -0.471264 -0.248947
v -0.880061 -0.470402 0.250000
v -0.881921 -0.471397 0.247893
v -0.880991 -0.470900 0.249718
v -0.881672 -0.471264 0.248947
v -0.921931 -0.381877 -0.250000
v -0.923880 -0.382683 -0.247893
v -0.922905 -0.382280 -0.249718
v -0.923618 -0.382575 -0.248947
v -0.921931 -0.381877 0.250000
v -0.923880 -0.382683 0.247893
v -0.922905 -0.382280 0.249718
v -0.923618 -0.382575 0.248947
v -0.954922 -0.289672 -0.250000
v -0.956940 -0.290285 -0.247893
v -0.955931 -0.289979 -0.249718
v -0.956670 -0.290203 -0.248947
v -0.954922 -0.289672 0.250000
v -0.956940 -0.290285 0.247893
v -0.955931 -0.289979 0.249718
v -0.956670 -0.290203 0.248947
v -0.978717 -0.194678 -0.250000
v -0.980785 -0.195090 -0.247893
v -0.979751 -0.194884 -0.249718
v -0.980508 -0.195035 -0.248947
v -0.978717 -0.194678 0.250000
v -0.980785 -0.195090 0.247893
v -0.979751 -0.194884 0.249718
v -0.980508 -0.195035 0.248947
v -0.993086 -0.097810 -0.250000
v -0.995185 -0.098017 -0.247893
v -0.994135 -0.097914 -0.249718
v -0.994904 -0.097989 -0.248947
v -0.993086 -0.097810 0.250000
v -0.995185 -0.098017 0.247893
v -0.994135 -0.097914 0.249718
v -0.994904 -0.097989 0.248947
v -0.997891 0.000000 -0.250000
v -1.000000 0.000000 -0.247893
v -0.998945 0.000000 -0.249718
v -0.999717 0.000000 -0.248947
v -0.997891 -0.000000 0.250000
v -1.000000 0.000000 0.247893
v -0.998945 -0.000000 0.249718
v -0.999717 -0.000000 0.248947
v -0.993086 0.097810 -0.250000
v -0.995185 0.098017 -0.247893
v -0.994135 0.097914 -0.249718
v -0.994904 0.097989 -0.248947
v -0.993086 0.097810 0.250000
v -0.995185 0.098017 0.247893
v -0.994135 0.097914 0.249718
v -0.994904 0.097989 0.248947
v -0.978717 0.194678 -0.250000
v -0.980785 0.195090 -0.247893
v -0.979751 0.194884 -0.249718
v -0.980508 0.195035 -0.248947
v -0.978717 0.194678 0.250000
v -0.980785 0.195090 0.247893
v -0.979751 0.194884 0.249718
v -0.980508 0.195035 0.248947
v -0.954922 0.289672 -0.250000
v -0.956940 0.290285 -0.247893
v -0.955931 0.289979 -0.249718
v -0.956670 0.290203 -0.248947
v -0.954922 0.289672 0.250000
v -0.956940 0.290285 0.247893
v -0.955931 0.289979 0.249718
v -0.956670 0.290203 0.248947
v -0.921931 0.381877 -0.250000
v -0.923880 0.382683 -0.247893
v -0.922905 0.382280 -0.249718
v -0.923618 0.382575 -0.248947
v -0.921931 0.381877 0.250000
v -0.923880 0.382683 0.247893
v -0.922905 0.382280 0.249718
v -0.923618 0.382575 0.248947
v -0.880061 0.470402 -0.250000
v -0.881921 0.471397 -0.247893
v -0.880991 0.470900 -0.249718
v -0.881672 0.471264 -0.248947
v -0.880061 0.470402 0.250000
v -0.881921 0.471397 0.247893
v -0.880991 0.470900 0.249718
v -0.881672 0.471264 0.248947
v -0.829848 0.554178 -0.250000
v -0.831470 0.555570 -0.247893
v -0.830659 0.554874 -0.249718
v -0.831252 0.555384 -0.248947
v -0.829716 0.554398 0.250000
v -0.831470 0.555570 0.247893
v -0.830593 0.554984 0.249718
v -0.831235 0.555413 0.248947
v -0.773010 0.634393 -0.247893
v -0.771038 0.633472 -0.250000
v -0.772746 0.634270 -0.248947
v -0.772024 0.633933 -0.249718
v -0.771380 0.633055 0.250000
v -0.773010 0.634393 0.247893
v -0.772195 0.633724 0.249718
v -0.772792 0.634214 0.248947
v -0.705810 0.705439 -0.250000
v -0.707107 0.707107 -0.247893
v -0.706458 0.706273 -0.249718
v -0.706933 0.706883 -0.248947
v -0.705615 0.705615 0.250000
v -0.707107 0.707107 0.247893
v -0.706361 0.706361 0.249718
v -0.706907 0.706907 0.248947
v -0.633055 0.771380 -0.250000
v -0.634393 0.773010 -0.247893
v -0.633724 0.772195 -0.249718
v -0.634214 0.772792 -0.248947
v -0.633055 0.771380 0.250000
v -0.634393 0.773010 0.247893
v -0.633724 0.772195 0.249718
v -0.634214 0.772792 0.248947
v -0.554398 0.829716 -0.250000
v -0.555570 0.831470 -0.247893
v -0.554984 0.830593 -0.249718
v -0.555413 0.831235 -0.248947
v -0.554398 0.829716 0.250000
v -0.555570 0.831470 0.247893
v -0.554984 0.830593 0.249718
v -0.555413 0.831235 0.248947
v -0.470402 0.880061 -0.250000
v -0.471397 0.881921 -0.247893
v -0.470900 0.880991 -0.249718
v -0.471264 0.881672 -0.248947
v -0.470402 0.880061 0.250000
v -0.471397 0.881921 0.247893
v -0.470900 0.880991 0.249718
v -0.471264 0.881672 0.248947
v -0.381877 0.921931 -0.250000
v -0.382683 0.923880 -0.247893
v -0.382280 0.922905 -0.249718
v -0.382575 0.923618 -0.248947
v -0.381877 0.921931 0.250000
v -0.382683 0.923880 0.247893
v -0.382280 0.922905 0.249718
v -0.382575 0.923618 0.248947
v -0.289672 0.954922 -0.250000
v -0.290285 0.956940 -0.247893
v -0.289979 0.955931 -0.249718
v -0.290203 0.956670 -0.248947
v -0.288732 0.955258 0.250000
v -0.290285 0.956940 0.247893
v -0.289508 0.956099 0.249718
v -0.290077 0.956715 0.248947
v -0.194661 0.978721 -0.250000
v -0.195090 0.980785 -0.247893
v -0.194876 0.979753 -0.249718
v -0.195033 0.980509 -0.248947
v -0.196625 0.978334 0.250000
v -0.195090 0.980785 0.247893
v -0.195857 0.979560 0.249718
v -0.195296 0.980457 0.248947
v -0.098017 0.995185 -0.247893
v -0.097847 0.993082 -0.250000
v -0.097994 0.994903 -0.248947
v -0.097932 0.994133 -0.249718
v -0.098017 0.995185 0.247893
v -0.096901 0.993130 0.250000
v -0.097868 0.994909 0.248947
v -0.097459 0.994158 0.249718
v -0.350000 0.000000 0.247893
v -0.352111 0.000000 0.250000
v -0.350283 0.000000 0.248947
v -0.351056 0.000000 0.249718
v -0.347006 -0.045684 0.247893
v -0.349099 -0.045960 0.250000
v -0.347286 -0.045721 0.248947
v -0.348052 -0.045822 0.249718
v -0.347006 0.045684 0.247893
v -0.349099 0.045960 0.250000
v -0.347286 0.045721 0.248947
v -0.348052 0.045822 0.249718
v -0.338074 -0.090587 0.247893
v -0.340113 -0.091133 0.250000
v -0.338347 -0.090660 0.248947
v -0.339094 -0.090860 0.249718
v -0.338074 0.090587 0.247893
v -0.340113 0.091133 0.250000
v -0.338347 0.090660 0.248947
v -0.339094 0.090860 0.249718
v -0.323358 -0.133939 0.247893
v -0.325308 -0.134747 0.250000
v -0.323619 -0.134047 0.248947
v -0.324333 -0.134343 0.249718
v -0.303109 -0.175000 0.247893
v -0.304937 -0.176056 0.250000
v -0.303354 -0.175141 0.248947
v -0.304023 -0.175528 0.249718
v -0.277674 0.213067 0.247893
v -0.279349 0.214352 0.250000
v -0.277898 0.213239 0.248947
v -0.278511 0.213709 0.249718
v -0.277674 -0.213067 0.247893
v -0.279373 -0.214316 0.250000
v -0.277901 -0.213234 0.248947
v -0.278523 -0.213691 0.249718
v -0.303109 0.175000 0.247893
v -0.304937 0.176056 0.250000
v -0.303354 0.175141 0.248947
v -0.304023 0.175528 0.249718
v -0.323358 0.133939 0.247893
v -0.325308 0.134747 0.250000
v -0.323619 0.134047 0.248947
v -0.324333 0.134343 0.249718
v -0.247487 0.247487 0.247893
v -0.248980 0.248980 0.250000
v -0.247687 0.247687 0.248947
v -0.248234 0.248234 0.249718
v -0.213067 -0.277674 0.247893
v -0.214388 -0.279325 0.250000
v -0.213243 -0.277895 0.248947
v -0.213727 -0.278499 0.249718
v -0.175000 0.303109 0.247893
v -0.176056 0.304937 0.250000
v -0.175141 0.303354 0.248947
v -0.175528 0.304023 0.249718
v -0.133939 -0.323358 0.247893
v -0.134747 -0.325308 0.250000
v -0.134047 -0.323619 0.248947
v -0.134343 -0.324333 0.249718
v -0.175000 -0.303109 0.247893
v -0.176056 -0.304937 0.250000
v -0.175141 -0.303354 0.248947
v -0.175528 -0.304023 0.249718
v -0.213067 0.277674 0.247893
v -0.214352 0.279349 0.250000
v -0.213239 0.277898 0.248947
v -0.213709 0.278511 0.249718
v -0.090587 -0.338074 0.247893
v -0.091133 -0.340113 0.250000
v -0.090660 -0.338347 0.248947
v -0.090860 -0.339094 0.249718
v -0.068135 -0.342540 0.247893
v -0.068546 -0.344606 0.250000
v -0.068190 -0.342817 0.248947
v -0.068341 -0.343573 0.249718
v -0.090587 0.338074 0.247893
v -0.089489 0.340671 0.250000
v -0.090440 0.338422 0.248947
v -0.090038 0.339373 0.249718
v 0.045684 0.347006 0.247893
v 0.045960 0.349099 0.250000
v 0.045721 0.347286 0.248947
v 0.045822 0.348052 0.249718
v 0.068135 0.342540 0.247893
v 0.068546 0.344606 0.250000
v 0.068190 0.342817 0.248947
v 0.068341 0.343573 0.249718
v 0.000000 0.350000 0.247893
v 0.002254 0.351963 0.250000
v 0.000302 0.350263 0.248947
v 0.001127 0.350982 0.249718
v -0.045684 0.347006 0.247893
v -0.050066 0.348522 0.250000
v -0.046271 0.347209 0.248947
v -0.047875 0.347764 0.249718
v -0.133939 0.323358 0.247893
v -0.134747 0.325308 0.250000
v -0.134047 0.323619 0.248947
v -0.134343 0.324333 0.249718
v -0.248917 -0.249044 0.250000
v -0.247487 -0.247487 0.247893
v -0.248202 -0.248266 0.249718
v -0.247679 -0.247696 0.248947
v -0.045684 -0.347006 0.247893
v -0.045960 -0.349099 0.250000
v -0.045721 -0.347286 0.248947
v -0.045822 -0.348052 0.249718
v 0.000000 -0.350000 0.247893
v -0.000000 -0.352111 0.250000
v -0.000000 -0.350283 0.248947
v -0.000000 -0.351056 0.249718
v 0.090587 -0.338074 0.247893
v 0.091133 -0.340113 0.250000
v 0.090660 -0.338347 0.248947
v 0.090860 -0.339094 0.249718
v 0.045684 -0.347006 0.247893
v 0.045960 -0.349099 0.250000
v 0.045721 -0.347286 0.248947
v 0.045822 -0.348052 0.249718
v 0.133939 0.323358 0.247893
v 0.134201 0.325494 0.250000
v 0.133974 0.323644 0.248947
v 0.134070 0.324426 0.249718
v 0.213067 -0.277674 0.247893
v 0.214316 -0.279373 0.250000
v 0.213234 -0.277901 0.248947
v 0.213691 -0.278523 0.249718
v 0.177054 0.304358 0.250000
v 0.175000 0.303109 0.247893
v 0.176027 0.303733 0.249718
v 0.175275 0.303276 0.248947
v 0.213067 0.277674 0.247893
v 0.213948 0.279702 0.250000
v 0.213185 0.277945 0.248947
v 0.213507 0.278688 0.249718
v 0.175000 -0.303109 0.247893
v 0.176056 -0.304937 0.250000
v 0.175141 -0.303354 0.248947
v 0.175528 -0.304023 0.249718
v 0.133939 -0.323358 0.247893
v 0.134747 -0.325308 0.250000
v 0.134047 -0.323619 0.248947
v 0.134343 -0.324333 0.249718
v 0.090587 0.338074 0.247893
v 0.091133 0.340113 0.250000
v 0.090660 0.338347 0.248947
v 0.090860 0.339094 0.249718
v 0.247487 0.247487 0.247893
v 0.248980 0.248980 0.250000
v 0.247687 0.247687 0.248947
v 0.248234 0.248234 0.249718
v 0.303109 -0.175000 0.247893
v 0.304937 -0.176056 0.250000
v 0.303354 -0.175141 0.248947
v 0.304023 -0.175528 0.249718
v 0.303109 0.175000 0.247893
v 0.304937 0.176056 0.250000
v 0.303354 0.175141 0.248947
v 0.304023 0.175528 0.249718
v 0.277674 -0.213067 0.247893
v 0.279325 -0.214388 0.250000
v 0.277895 -0.213243 0.248947
v 0.278499 -0.213727 0.249718
v 0.277674 0.213067 0.247893
v 0.279349 0.214352 0.250000
v 0.277898 0.213239 0.248947
v 0.278511 0.213709 0.249718
v 0.338074 -0.090587 0.247893
v 0.340113 -0.091133 0.250000
v 0.338347 -0.090660 0.248947
v 0.339094 -0.090860 0.249718
v 0.350000 0.000000 0.247893
v 0.352111 -0.000000 0.250000
v 0.350283 -0.000000 0.248947
v 0.351056 -0.000000 0.249718
v 0.347006 -0.045684 0.247893
v 0.349099 -0.045960 0.250000
v 0.347286 -0.045721 0.248947
v 0.348052 -0.045822 0.249718
v 0.347006 0.045684 0.247893
v 0.349099 0.045960 0.250000
v 0.347286 0.045721 0.248947
v 0.348052 0.045822 0.249718
v 0.323358 -0.133939 0.247893
v 0.325308 -0.134747 0.250000
v 0.323619 -0.134047 0.248947
v 0.324333 -0.134343 0.249718
v 0.338074 0.090587 0.247893
v 0.340113 0.091133 0.250000
v 0.338347 0.090660 0.248947
v 0.339094 0.090860 0.249718
v 0.323358 0.133939 0.247893
v 0.325308 0.134747 0.250000
v 0.323619 0.134047 0.248947
v 0.324333 0.134343 0.249718
v 0.249044 -0.248917 0.250000
v 0.247487 -0.247487 0.247893
v 0.248266 -0.248202 0.249718
v 0.247696 -0.247679 0.248947
v 0.000000 0.350000 -0.247893
v -0.000051 0.352114 -0.250000
v -0.000007 0.350283 -0.248947
v -0.000025 0.351057 -0.249718
v 0.090587 -0.338074 -0.247893
v 0.091182 -0.340097 -0.250000
v 0.090666 -0.338345 -0.248947
v 0.090884 -0.339085 -0.249718
v 0.045854 -0.349113 -0.250000
v 0.045684 -0.347006 -0.247893
v 0.045769 -0.348059 -0.249718
v 0.045707 -0.347288 -0.248947
v 0.045684 0.347006 -0.247893
v 0.045960 0.349099 -0.250000
v 0.045721 0.347286 -0.248947
v 0.045822 0.348052 -0.249718
v 0.090587 0.338074 -0.247893
v 0.091133 0.340113 -0.250000
v 0.090660 0.338347 -0.248947
v 0.090860 0.339094 -0.249718
v 0.133939 -0.323358 -0.247893
v 0.134747 -0.325308 -0.250000
v 0.134047 -0.323619 -0.248947
v 0.134343 -0.324333 -0.249718
v 0.133939 0.323358 -0.247893
v 0.134747 0.325308 -0.250000
v 0.134047 0.323619 -0.248947
v 0.134343 0.324333 -0.249718
v 0.213067 0.277674 -0.247893
v 0.215076 0.278791 -0.250000
v 0.213336 0.277823 -0.248947
v 0.214071 0.278232 -0.249718
v 0.175000 -0.303109 -0.247893
v 0.176056 -0.304937 -0.250000
v 0.175141 -0.303354 -0.248947
v 0.175528 -0.304023 -0.249718
v 0.175000 0.303109 -0.247893
v 0.175649 0.305137 -0.250000
v 0.175087 0.303381 -0.248947
v 0.175325 0.304123 -0.249718
v 0.213067 -0.277674 -0.247893
v 0.214352 -0.279349 -0.250000
v 0.213239 -0.277898 -0.248947
v 0.213709 -0.278511 -0.249718
v 0.247487 -0.247487 -0.247893
v 0.249302 -0.248698 -0.250000
v 0.247730 -0.247650 -0.248947
v 0.248395 -0.248093 -0.249718
v 0.303109 -0.175000 -0.247893
v 0.305137 -0.175649 -0.250000
v 0.303381 -0.175087 -0.248947
v 0.304123 -0.175325 -0.249718
v 0.303109 0.175000 -0.247893
v 0.304937 0.176056 -0.250000
v 0.303354 0.175141 -0.248947
v 0.304023 0.175528 -0.249718
v 0.278791 -0.215076 -0.250000
v 0.277674 -0.213067 -0.247893
v 0.278232 -0.214071 -0.249718
v 0.277823 -0.213336 -0.248947
v 0.277674 0.213067 -0.247893
v 0.279349 0.214352 -0.250000
v 0.277898 0.213239 -0.248947
v 0.278511 0.213709 -0.249718
v 0.338074 0.090587 -0.247893
v 0.340113 0.091133 -0.250000
v 0.338347 0.090660 -0.248947
v 0.339094 0.090860 -0.249718
v 0.350000 0.000000 -0.247893
v 0.352111 0.000000 -0.250000
v 0.350283 0.000000 -0.248947
v 0.351056 0.000000 -0.249718
v 0.347006 -0.045684 -0.247893
v 0.349099 -0.045960 -0.250000
v 0.347286 -0.045721 -0.248947
v 0.348052 -0.045822 -0.249718
v 0.347006 0.045684 -0.247893
v 0.349099 0.045960 -0.250000
v 0.347286 0.045721 -0.248947
v 0.348052 0.045822 -0.249718
v 0.323358 -0.133939 -0.247893
v 0.325308 -0.134747 -0.250000
v 0.323619 -0.134047 -0.248947
v 0.324333 -0.134343 -0.249718
v 0.338074 -0.090587 -0.247893
v 0.340113 -0.091133 -0.250000
v 0.338347 -0.090660 -0.248947
v 0.339094 -0.090860 -0.249718
v 0.323358 0.133939 -0.247893
v 0.325308 0.134747 -0.250000
v 0.323619 0.134047 -0.248947
v 0.324333 0.134343 -0.249718
v 0.247487 0.247487 -0.247893
v 0.248698 0.249302 -0.250000
v 0.247650 0.247730 -0.248947
v 0.248093 0.248395 -0.249718
v -0.350000 0.000000 -0.247893
v -0.352111 -0.000000 -0.250000
v -0.350283 -0.000000 -0.248947
v -0.351056 -0.000000 -0.249718
v -0.347006 -0.045684 -0.247893
v -0.349099 -0.045960 -0.250000
v -0.347286 -0.045721 -0.248947
v -0.348052 -0.045822 -0.249718
v -0.347006 0.045684 -0.247893
v -0.349099 0.045960 -0.250000
v -0.347286 0.045721 -0.248947
v -0.348052 0.045822 -0.249718
v -0.338074 -0.090587 -0.247893
v -0.340113 -0.091133 -0.250000
v -0.338347 -0.090660 -0.248947
v -0.339094 -0.090860 -0.249718
v -0.338074 0.090587 -0.247893
v -0.340113 0.091133 -0.250000
v -0.338347 0.090660 -0.248947
v -0.339094 0.090860 -0.249718
v -0.323358 -0.133939 -0.247893
v -0.325308 -0.134747 -0.250000
v -0.323619 -0.134047 -0.248947
v -0.324333 -0.134343 -0.249718
v -0.303109 0.175000 -0.247893
v -0.304937 0.176056 -0.250000
v -0.303354 0.175141 -0.248947
v -0.304023 0.175528 -0.249718
v -0.277674 -0.213067 -0.247893
v -0.279373 -0.214316 -0.250000
v -0.277901 -0.213234 -0.248947
v -0.278523 -0.213691 -0.249718
v -0.303109 -0.175000 -0.247893
v -0.304937 -0.176056 -0.250000
v -0.303354 -0.175141 -0.248947
v -0.304023 -0.175528 -0.249718
v -0.277674 0.213067 -0.247893
v -0.279349 0.214352 -0.250000
v -0.277898 0.213239 -0.248947
v -0.278511 0.213709 -0.249718
v -0.247487 -0.247487 -0.247893
v -0.248917 -0.249044 -0.250000
v -0.247679 -0.247696 -0.248947
v -0.248202 -0.248266 -0.249718
v -0.323358 0.133939 -0.247893
v -0.325308 0.134747 -0.250000
v -0.323619 0.134047 -0.248947
v -0.324333 0.134343 -0.249718
v -0.213067 -0.277674 -0.247893
v -0.214388 -0.279325 -0.250000
v -0.213243 -0.277895 -0.248947
v -0.213727 -0.278499 -0.249718
v -0.213067 0.277674 -0.247893
v -0.214749 0.279043 -0.250000
v -0.213292 0.277857 -0.248947
v -0.213908 0.278358 -0.249718
v -0.133939 0.323358 -0.247893
v -0.134747 0.325308 -0.250000
v -0.134047 0.323619 -0.248947
v -0.134343 0.324333 -0.249718
v -0.175000 -0.303109 -0.247893
v -0.176056 -0.304937 -0.250000
v -0.175141 -0.303354 -0.248947
v -0.175528 -0.304023 -0.249718
v -0.175000 0.303109 -0.247893
v -0.175835 0.305046 -0.250000
v -0.175112 0.303368 -0.248947
v -0.175418 0.304077 -0.249718
v -0.090587 -0.338074 -0.247893
v -0.091133 -0.340113 -0.250000
v -0.090660 -0.338347 -0.248947
v -0.090860 -0.339094 -0.249718
v -0.090587 0.338074 -0.247893
v -0.091182 0.340097 -0.250000
v -0.090666 0.338345 -0.248947
v -0.090884 0.339085 -0.249718
v 0.000000 -0.350000 -0.247893
v 0.000051 -0.352114 -0.250000
v 0.000007 -0.350283 -0.248947
v 0.000025 -0.351057 -0.249718
v -0.045684 -0.347006 -0.247893
v -0.045960 -0.349099 -0.250000
v -0.045721 -0.347286 -0.248947
v -0.045822 -0.348052 -0.249718
v -0.045684 0.347006 -0.247893
v -0.045854 0.349113 -0.250000
v -0.045707 0.347288 -0.248947
v -0.045769 0.348059 -0.249718
v -0.133939 -0.323358 -0.247893
v -0.134747 -0.325308 -0.250000
v -0.134047 -0.323619 -0.248947
v -0.134343 -0.324333 -0.249718
v -0.247487 0.247487 -0.247893
v -0.248823 0.249159 -0.250000
v -0.247666 0.247711 -0.248947
v -0.248155 0.248323 -0.249718
v 0.398382 0.469093 0.247893
v 0.396327 0.468566 0.250000
v 0.398107 0.469022 0.248947
v 0.397354 0.468829 0.249718
v 0.394975 0.494975 0.247893
v 0.392850 0.494975 0.250000
v 0.394690 0.494975 0.248947
v 0.393912 0.494975 0.249718
v 0.408372 0.444975 0.247893
v 0.406556 0.443871 0.250000
v 0.408129 0.444827 0.248947
v 0.407464 0.444423 0.249718
v 0.398382 0.520857 0.247893
v 0.396330 0.521407 0.250000
v 0.398107 0.520930 0.248947
v 0.397356 0.521132 0.249718
v 0.406532 0.546037 0.250000
v 0.408372 0.544975 0.247893
v 0.407452 0.545506 0.249718
v 0.408126 0.545117 0.248947
v 0.424264 0.565685 0.247893
v 0.422676 0.567077 0.250000
v 0.424051 0.565872 0.248947
v 0.423470 0.566381 0.249718
v 0.469093 0.398382 0.247893
v 0.468543 0.396330 0.250000
v 0.469019 0.398107 0.248947
v 0.468818 0.397356 0.249718
v 0.469093 0.591567 0.247893
v 0.468409 0.593602 0.250000
v 0.469001 0.591840 0.248947
v 0.468751 0.592585 0.249718
v 0.444975 0.408372 0.247893
v 0.443912 0.406532 0.250000
v 0.444832 0.408126 0.248947
v 0.444444 0.407452 0.249718
v 0.444158 0.583559 0.250000
v 0.444975 0.581577 0.247893
v 0.444566 0.582568 0.249718
v 0.444865 0.581843 0.248947
v 0.424264 0.424264 0.247893
v 0.422743 0.422776 0.250000
v 0.424060 0.424065 0.248947
v 0.423504 0.423520 0.249718
v 0.544975 0.408372 0.247893
v 0.546037 0.406532 0.250000
v 0.545117 0.408126 0.248947
v 0.545506 0.407452 0.249718
v 0.544975 0.581577 0.247893
v 0.546037 0.583417 0.250000
v 0.545117 0.581824 0.248947
v 0.545506 0.582497 0.249718
v 0.520857 0.398382 0.247893
v 0.521407 0.396330 0.250000
v 0.520930 0.398107 0.248947
v 0.521132 0.397356 0.249718
v 0.520857 0.591567 0.247893
v 0.521407 0.593620 0.250000
v 0.520930 0.591842 0.248947
v 0.521132 0.592594 0.249718
v 0.581577 0.444975 0.247893
v 0.583417 0.443912 0.250000
v 0.581824 0.444832 0.248947
v 0.582497 0.444443 0.249718
v 0.594975 0.494975 0.247893
v 0.597100 0.494975 0.250000
v 0.595259 0.494975 0.248947
v 0.596037 0.494975 0.249718
v 0.591567 0.469093 0.247893
v 0.593620 0.468543 0.250000
v 0.591842 0.469019 0.248947
v 0.592594 0.468818 0.249718
v 0.591567 0.520857 0.247893
v 0.593620 0.521407 0.250000
v 0.591842 0.520930 0.248947
v 0.592594 0.521132 0.249718
v 0.581577 0.544975 0.247893
v 0.583417 0.546037 0.250000
v 0.581824 0.545117 0.248947
v 0.582497 0.545506 0.249718
v 0.565685 0.565685 0.247893
v 0.567188 0.567188 0.250000
v 0.565887 0.565887 0.248947
v 0.566437 0.566437 0.249718
v 0.494975 0.394975 0.247893
v 0.494975 0.392850 0.250000
v 0.494975 0.394690 0.248947
v 0.494975 0.393912 0.249718
v 0.565685 0.424264 0.247893
v 0.567188 0.422762 0.250000
v 0.565887 0.424063 0.248947
v 0.566437 0.423513 0.249718
v 0.494975 0.594975 0.247893
v 0.494975 0.597100 0.250000
v 0.494975 0.595259 0.248947
v 0.494975 0.596037 0.249718
v 0.394975 0.494975 -0.247893
v 0.392850 0.494975 -0.250000
v 0.394690 0.494975 -0.248947
v 0.393912 0.494975 -0.249718
v 0.398382 0.469093 -0.247893
v 0.396330 0.468543 -0.250000
v 0.398107 0.469019 -0.248947
v 0.397356 0.468818 -0.249718
v 0.398382 0.520857 -0.247893
v 0.396330 0.521407 -0.250000
v 0.398107 0.520930 -0.248947
v 0.397356 0.521132 -0.249718
v 0.444975 0.581577 -0.247893
v 0.443912 0.583417 -0.250000
v 0.444832 0.581824 -0.248947
v 0.444443 0.582497 -0.249718
v 0.424264 0.565685 -0.247893
v 0.422762 0.567188 -0.250000
v 0.424063 0.565887 -0.248947
v 0.423513 0.566437 -0.249718
v 0.408372 0.544975 -0.247893
v 0.406532 0.546037 -0.250000
v 0.408126 0.545117 -0.248947
v 0.407452 0.545506 -0.249718
v 0.494975 0.594975 -0.247893
v 0.494975 0.597100 -0.250000
v 0.494975 0.595259 -0.248947
v 0.494975 0.596037 -0.249718
v 0.544975 0.581577 -0.247893
v 0.546037 0.583417 -0.250000
v 0.545117 0.581824 -0.248947
v 0.545506 0.582497 -0.249718
v 0.520857 0.591567 -0.247893
v 0.521407 0.593620 -0.250000
v 0.520930 0.591842 -0.248947
v 0.521132 0.592594 -0.249718
v 0.581577 0.544975 -0.247893
v 0.583342 0.546136 -0.250000
v 0.581814 0.545130 -0.248947
v 0.582460 0.545555 -0.249718
v 0.591567 0.520857 -0.247893
v 0.593684 0.521163 -0.250000
v 0.591851 0.520898 -0.248947
v 0.592626 0.521010 -0.249718
v 0.565685 0.565685 -0.247893
v 0.567188 0.567188 -0.250000
v 0.565887 0.565887 -0.248947
v 0.566437 0.566437 -0.249718
v 0.469093 0.591567 -0.247893
v 0.468543 0.593620 -0.250000
v 0.469019 0.591842 -0.248947
v 0.468818 0.592594 -0.249718
v 0.408372 0.444975 -0.247893
v 0.406532 0.443912 -0.250000
v 0.408126 0.444832 -0.248947
v 0.407452 0.444444 -0.249718
v 0.594975 0.494975 -0.247893
v 0.597115 0.495094 -0.250000
v 0.595262 0.494991 -0.248947
v 0.596045 0.495034 -0.249718
v 0.422762 0.422762 -0.250000
v 0.424264 0.424264 -0.247893
v 0.423513 0.423513 -0.249718
v 0.424063 0.424063 -0.248947
v 0.444975 0.408372 -0.247893
v 0.443912 0.406532 -0.250000
v 0.444832 0.408126 -0.248947
v 0.444444 0.407452 -0.249718
v 0.593620 0.468543 -0.250000
v 0.591567 0.469093 -0.247893
v 0.592594 0.468818 -0.249718
v 0.591842 0.469019 -0.248947
v 0.446775 0.407627 -0.247893
v 0.444425 0.406320 -0.250000
v 0.446460 0.407451 -0.248947
v 0.445600 0.406973 -0.249718
v 0.469093 0.398382 -0.247893
v 0.468543 0.396330 -0.250000
v 0.469019 0.398107 -0.248947
v 0.468818 0.397356 -0.249718
v 0.581577 0.444975 -0.247893
v 0.583417 0.443912 -0.250000
v 0.581824 0.444832 -0.248947
v 0.582497 0.444443 -0.249718
v 0.494975 0.394975 -0.247893
v 0.494975 0.392850 -0.250000
v 0.494975 0.394690 -0.248947
v 0.494975 0.393912 -0.249718
v 0.520857 0.398382 -0.247893
v 0.521407 0.396330 -0.250000
v 0.520930 0.398107 -0.248947
v 0.521132 0.397356 -0.249718
v 0.544975 0.408372 -0.247893
v 0.546037 0.406532 -0.250000
v 0.545117 0.408126 -0.248947
v 0.545506 0.407452 -0.249718
v 0.565685 0.424264 -0.247893
v 0.567188 0.422762 -0.250000
v 0.565887 0.424063 -0.248947
v 0.566437 0.423513 -0.249718
v -0.594975 0.494975 0.247893
v -0.597100 0.494975 0.250000
v -0.595259 0.494975 0.248947
v -0.596037 0.494975 0.249718
v -0.591567 0.469093 0.247893
v -0.593620 0.468543 0.250000
v -0.591842 0.469019 0.248947
v -0.592594 0.468818 0.249718
v -0.591567 0.520857 0.247893
v -0.593620 0.521407 0.250000
v -0.591842 0.520930 0.248947
v -0.592594 0.521132 0.249718
v -0.581577 0.444975 0.247893
v -0.583417 0.443912 0.250000
v -0.581824 0.444832 0.248947
v -0.582497 0.444443 0.249718
v -0.581577 0.544975 0.247893
v -0.583417 0.546037 0.250000
v -0.581824 0.545117 0.248947
v -0.582497 0.545506 0.249718
v -0.520857 0.398382 0.247893
v -0.521407 0.396330 0.250000
v -0.520930 0.398107 0.248947
v -0.521132 0.397356 0.249718
v -0.520857 0.591567 0.247893
v -0.521407 0.593620 0.250000
v -0.520930 0.591842 0.248947
v -0.521132 0.592594 0.249718
v -0.544975 0.408372 0.247893
v -0.546037 0.406532 0.250000
v -0.545117 0.408126 0.248947
v -0.545506 0.407452 0.249718
v -0.544975 0.581577 0.247893
v -0.546037 0.583417 0.250000
v -0.545117 0.581824 0.248947
v -0.545506 0.582497 0.249718
v -0.494975 0.394975 0.247893
v -0.494975 0.392850 0.250000
v -0.494975 0.394690 0.248947
v -0.494975 0.393912 0.249718
v -0.565685 0.424264 0.247893
v -0.567188 0.422762 0.250000
v -0.565887 0.424063 0.248947
v -0.566437 0.423513 0.249718
v -0.565685 0.565685 0.247893
v -0.567188 0.567188 0.250000
v -0.565887 0.565887 0.248947
v -0.566437 0.566437 0.249718
v -0.469093 0.398382 0.247893
v -0.468543 0.396330 0.250000
v -0.469019 0.398107 0.248947
v -0.468818 0.397356 0.249718
v -0.444975 0.581577 0.247893
v -0.443847 0.583380 0.250000
v -0.444824 0.581819 0.248947
v -0.444411 0.582478 0.249718
v -0.444975 0.408372 0.247893
v -0.443912 0.406532 0.250000
v -0.444832 0.408126 0.248947
v -0.444444 0.407452 0.249718
v -0.469093 0.591567 0.247893
v -0.468579 0.593625 0.250000
v -0.469024 0.591843 0.248947
v -0.468836 0.592596 0.249718
v -0.408372 0.444975 0.247893
v -0.406488 0.443970 0.250000
v -0.408120 0.444840 0.248947
v -0.407430 0.444472 0.249718
v -0.408372 0.544975 0.247893
v -0.406532 0.546037 0.250000
v -0.408126 0.545117 0.248947
v -0.407452 0.545506 0.249718
v -0.394975 0.494975 0.247893
v -0.392860 0.495049 0.250000
v -0.394691 0.494985 0.248947
v -0.393917 0.495012 0.249718
v -0.396369 0.468396 0.250000
v -0.398382 0.469093 0.247893
v -0.397376 0.468744 0.249718
v -0.398112 0.468999 0.248947
v -0.396330 0.521407 0.250000
v -0.398382 0.520857 0.247893
v -0.397356 0.521132 0.249718
v -0.398107 0.520930 0.248947
v -0.424264 0.424264 0.247893
v -0.422762 0.422762 0.250000
v -0.424063 0.424063 0.248947
v -0.423513 0.423513 0.249718
v -0.424264 0.565685 0.247893
v -0.422784 0.567217 0.250000
v -0.424066 0.565891 0.248947
v -0.423524 0.566451 0.249718
v -0.494975 0.594975 0.247893
v -0.494975 0.597100 0.250000
v -0.494975 0.595259 0.248947
v -0.494975 0.596037 0.249718
v -0.591567 0.469093 -0.247893
v -0.593620 0.468543 -0.250000
v -0.591842 0.469019 -0.248947
v -0.592594 0.468818 -0.249718
v -0.594975 0.494975 -0.247893
v -0.597100 0.494975 -0.250000
v -0.595259 0.494975 -0.248947
v -0.596037 0.494975 -0.249718
v -0.581577 0.444975 -0.247893
v -0.583417 0.443912 -0.250000
v -0.581824 0.444832 -0.248947
v -0.582497 0.444443 -0.249718
v -0.581577 0.544975 -0.247893
v -0.583509 0.545877 -0.250000
v -0.581836 0.545096 -0.248947
v -0.582543 0.545426 -0.249718
v -0.591567 0.520857 -0.247893
v -0.593608 0.521494 -0.250000
v -0.591841 0.520942 -0.248947
v -0.592588 0.521175 -0.249718
v -0.520857 0.591567 -0.247893
v -0.521407 0.593620 -0.250000
v -0.520930 0.591842 -0.248947
v -0.521132 0.592594 -0.249718
v -0.546037 0.583417 -0.250000
v -0.544975 0.581577 -0.247893
v -0.545506 0.582497 -0.249718
v -0.545117 0.581824 -0.248947
v -0.444975 0.581577 -0.247893
v -0.443912 0.583417 -0.250000
v -0.444832 0.581824 -0.248947
v -0.444443 0.582497 -0.249718
v -0.469093 0.591567 -0.247893
v -0.468543 0.593620 -0.250000
v -0.469019 0.591842 -0.248947
v -0.468818 0.592594 -0.249718
v -0.494975 0.594975 -0.247893
v -0.494975 0.597100 -0.250000
v -0.494975 0.595259 -0.248947
v -0.494975 0.596037 -0.249718
v -0.565685 0.565685 -0.247893
v -0.567116 0.567243 -0.250000
v -0.565877 0.565894 -0.248947
v -0.566401 0.566464 -0.249718
v -0.565685 0.424264 -0.247893
v -0.567188 0.422762 -0.250000
v -0.565887 0.424063 -0.248947
v -0.566437 0.423513 -0.249718
v -0.544975 0.408372 -0.247893
v -0.546037 0.406532 -0.250000
v -0.545117 0.408126 -0.248947
v -0.545506 0.407452 -0.249718
v -0.520857 0.398382 -0.247893
v -0.521407 0.396330 -0.250000
v -0.520930 0.398107 -0.248947
v -0.521132 0.397356 -0.249718
v -0.494975 0.394975 -0.247893
v -0.494975 0.392850 -0.250000
v -0.494975 0.394690 -0.248947
v -0.494975 0.393912 -0.249718
v -0.469093 0.398382 -0.247893
v -0.468543 0.396330 -0.250000
v -0.469019 0.398107 -0.248947
v -0.468818 0.397356 -0.249718
v -0.424264 0.424264 -0.247893
v -0.422762 0.422762 -0.250000
v -0.424063 0.424063 -0.248947
v -0.423513 0.423513 -0.249718
v -0.412345 0.439797 -0.247893
v -0.410710 0.438467 -0.250000
v -0.412126 0.439619 -0.248947
v -0.411528 0.439132 -0.249718
v -0.408372 0.544975 -0.247893
v -0.406532 0.546037 -0.250000
v -0.408126 0.545117 -0.248947
v -0.407452 0.545506 -0.249718
v -0.394975 0.494975 -0.247893
v -0.392850 0.494975 -0.250000
v -0.394690 0.494975 -0.248947
v -0.393912 0.494975 -0.249718
v -0.398382 0.469093 -0.247893
v -0.396330 0.468543 -0.250000
v -0.398107 0.469019 -0.248947
v -0.397356 0.468818 -0.249718
v -0.398382 0.520857 -0.247893
v -0.396330 0.521407 -0.250000
v -0.398107 0.520930 -0.248947
v -0.397356 0.521132 -0.249718
v -0.408372 0.444975 -0.247893
v -0.406532 0.443912 -0.250000
v -0.408126 0.444832 -0.248947
v -0.407452 0.444444 -0.249718
v -0.424264 0.565685 -0.247893
v -0.422762 0.567188 -0.250000
v -0.424063 0.565887 -0.248947
v -0.423513 0.566437 -0.249718
v -0.444975 0.408372 -0.247893
v -0.443912 0.406532 -0.250000
v -0.444832 0.408126 -0.248947
v -0.444444 0.407452 -0.249718
v -0.424264 -0.565685 0.247893
v -0.422762 -0.567188 0.250000
v -0.424063 -0.565887 0.248947
v -0.423513 -0.566437 0.249718
v -0.444975 -0.581577 0.247893
v -0.443912 -0.583417 0.250000
v -0.444832 -0.581824 0.248947
v -0.444443 -0.582497 0.249718
v -0.408372 -0.544975 0.247893
v -0.406532 -0.546037 0.250000
v -0.408126 -0.545117 0.248947
v -0.407452 -0.545506 0.249718
v -0.469093 -0.591567 0.247893
v -0.468543 -0.593620 0.250000
v -0.469019 -0.591842 0.248947
v -0.468818 -0.592594 0.249718
v -0.398382 -0.520857 0.247893
v -0.396330 -0.521407 0.250000
v -0.398107 -0.520930 0.248947
v -0.397356 -0.521132 0.249718
v -0.394975 -0.494975 0.247893
v -0.392850 -0.494975 0.250000
v -0.394690 -0.494975 0.248947
v -0.393912 -0.494975 0.249718
v -0.494975 -0.594975 0.247893
v -0.494975 -0.597100 0.250000
v -0.494975 -0.595259 0.248947
v -0.494975 -0.596037 0.249718
v -0.398382 -0.469093 0.247893
v -0.396330 -0.468543 0.250000
v -0.398107 -0.469019 0.248947
v -0.397356 -0.468818 0.249718
v -0.417683 -0.432840 0.247893
v -0.416237 -0.431265 0.250000
v -0.417490 -0.432629 0.248947
v -0.416960 -0.432052 0.249718
v -0.408372 -0.444975 0.247893
v -0.406532 -0.443912 0.250000
v -0.408126 -0.444832 0.248947
v -0.407452 -0.444444 0.249718
v -0.520857 -0.591567 0.247893
v -0.521494 -0.593608 0.250000
v -0.520942 -0.591841 0.248947
v -0.521175 -0.592588 0.249718
v -0.424264 -0.424264 0.247893
v -0.422762 -0.422762 0.250000
v -0.424063 -0.424063 0.248947
v -0.423513 -0.423513 0.249718
v -0.444975 -0.408372 0.247893
v -0.443912 -0.406532 0.250000
v -0.444832 -0.408126 0.248947
v -0.444444 -0.407452 0.249718
v -0.594975 -0.494975 0.247893
v -0.597100 -0.494975 0.250000
v -0.595259 -0.494975 0.248947
v -0.596037 -0.494975 0.249718
v -0.591567 -0.520857 0.247893
v -0.593620 -0.521407 0.250000
v -0.591842 -0.520930 0.248947
v -0.592594 -0.521132 0.249718
v -0.591567 -0.469093 0.247893
v -0.593620 -0.468543 0.250000
v -0.591842 -0.469019 0.248947
v -0.592594 -0.468818 0.249718
v -0.581577 -0.544975 0.247893
v -0.583417 -0.546037 0.250000
v -0.581824 -0.545117 0.248947
v -0.582497 -0.545506 0.249718
v -0.581577 -0.444975 0.247893
v -0.583417 -0.443912 0.250000
v -0.581824 -0.444832 0.248947
v -0.582497 -0.444443 0.249718
v -0.565685 -0.565685 0.247893
v -0.567243 -0.567116 0.250000
v -0.565894 -0.565877 0.248947
v -0.566464 -0.566401 0.249718
v -0.545877 -0.583509 0.250000
v -0.544975 -0.581577 0.247893
v -0.545426 -0.582543 0.249718
v -0.545096 -0.581836 0.248947
v -0.544975 -0.408372 0.247893
v -0.546037 -0.406532 0.250000
v -0.545117 -0.408126 0.248947
v -0.545506 -0.407452 0.249718
v -0.469093 -0.398382 0.247893
v -0.468543 -0.396330 0.250000
v -0.469019 -0.398107 0.248947
v -0.468818 -0.397356 0.249718
v -0.494975 -0.394975 0.247893
v -0.494975 -0.392850 0.250000
v -0.494975 -0.394690 0.248947
v -0.494975 -0.393912 0.249718
v -0.520857 -0.398382 0.247893
v -0.521407 -0.396330 0.250000
v -0.520930 -0.398107 0.248947
v -0.521132 -0.397356 0.249718
v -0.565685 -0.424264 0.247893
v -0.567188 -0.422762 0.250000
v -0.565887 -0.424063 0.248947
v -0.566437 -0.423513 0.249718
v -0.591567 -0.520857 -0.247893
v -0.593620 -0.521407 -0.250000
v -0.591842 -0.520930 -0.248947
v -0.592594 -0.521132 -0.249718
v -0.594975 -0.494975 -0.247893
v -0.597100 -0.494975 -0.250000
v -0.595259 -0.494975 -0.248947
v -0.596037 -0.494975 -0.249718
v -0.591567 -0.469093 -0.247893
v -0.593620 -0.468543 -0.250000
v -0.591842 -0.469019 -0.248947
v -0.592594 -0.468818 -0.249718
v -0.583417 -0.546037 -0.250000
v -0.581577 -0.544975 -0.247893
v -0.582497 -0.545506 -0.249718
v -0.581824 -0.545117 -0.248947
v -0.581577 -0.444975 -0.247893
v -0.583417 -0.443912 -0.250000
v -0.581824 -0.444832 -0.248947
v -0.582497 -0.444443 -0.249718
v -0.565685 -0.565685 -0.247893
v -0.567243 -0.567116 -0.250000
v -0.565894 -0.565877 -0.248947
v -0.566464 -0.566401 -0.249718
v -0.544975 -0.581577 -0.247893
v -0.545877 -0.583509 -0.250000
v -0.545096 -0.581836 -0.248947
v -0.545426 -0.582543 -0.249718
v -0.544975 -0.408372 -0.247893
v -0.546037 -0.406532 -0.250000
v -0.545117 -0.408126 -0.248947
v -0.545506 -0.407452 -0.249718
v -0.494975 -0.394975 -0.247893
v -0.494975 -0.392850 -0.250000
v -0.494975 -0.394690 -0.248947
v -0.494975 -0.393912 -0.249718
v -0.469093 -0.398382 -0.247893
v -0.468543 -0.396330 -0.250000
v -0.469019 -0.398107 -0.248947
v -0.468818 -0.397356 -0.249718
v -0.520857 -0.398382 -0.247893
v -0.521407 -0.396330 -0.250000
v -0.520930 -0.398107 -0.248947
v -0.521132 -0.397356 -0.249718
v -0.565685 -0.424264 -0.247893
v -0.567188 -0.422762 -0.250000
v -0.565887 -0.424063 -0.248947
v -0.566437 -0.423513 -0.249718
v -0.424264 -0.565685 -0.247893
v -0.422762 -0.567188 -0.250000
v -0.424063 -0.565887 -0.248947
v -0.423513 -0.566437 -0.249718
v -0.444975 -0.581577 -0.247893
v -0.443912 -0.583417 -0.250000
v -0.444832 -0.581824 -0.248947
v -0.444443 -0.582497 -0.249718
v -0.408372 -0.544975 -0.247893
v -0.406532 -0.546037 -0.250000
v -0.408126 -0.545117 -0.248947
v -0.407452 -0.545506 -0.249718
v -0.469093 -0.591567 -0.247893
v -0.468543 -0.593620 -0.250000
v -0.469019 -0.591842 -0.248947
v -0.468818 -0.592594 -0.249718
v -0.398382 -0.520857 -0.247893
v -0.396330 -0.521407 -0.250000
v -0.398107 -0.520930 -0.248947
v -0.397356 -0.521132 -0.249718
v -0.394975 -0.494975 -0.247893
v -0.392850 -0.494975 -0.250000
v -0.394690 -0.494975 -0.248947
v -0.393912 -0.494975 -0.249718
v -0.444975 -0.408372 -0.247893
v -0.443912 -0.406532 -0.250000
v -0.444832 -0.408126 -0.248947
v -0.444444 -0.407452 -0.249718
v -0.520857 -0.591567 -0.247893
v -0.521494 -0.593608 -0.250000
v -0.520942 -0.591841 -0.248947
v -0.521175 -0.592588 -0.249718
v -0.424264 -0.424264 -0.247893
v -0.422762 -0.422762 -0.250000
v -0.424063 -0.424063 -0.248947
v -0.423513 -0.423513 -0.249718
v -0.417683 -0.432840 -0.247893
v -0.416237 -0.431265 -0.250000
v -0.417490 -0.432629 -0.248947
v -0.416960 -0.432052 -0.249718
v -0.494975 -0.594975 -0.247893
v -0.494975 -0.597100 -0.250000
v -0.494975 -0.595259 -0.248947
v -0.494975 -0.596037 -0.249718
v -0.396330 -0.468543 -0.250000
v -0.398382 -0.469093 -0.247893
v -0.397356 -0.468818 -0.249718
v -0.398107 -0.469019 -0.248947
v -0.408372 -0.444975 -0.247893
v -0.406532 -0.443912 -0.250000
v -0.408126 -0.444832 -0.248947
v -0.407452 -0.444444 -0.249718
v 0.398382 -0.520857 0.247893
v 0.396330 -0.521407 0.250000
v 0.398107 -0.520930 0.248947
v 0.397356 -0.521132 0.249718
v 0.394975 -0.494975 0.247893
v 0.392850 -0.494975 0.250000
v 0.394690 -0.494975 0.248947
v 0.393912 -0.494975 0.249718
v 0.408372 -0.544975 0.247893
v 0.406532 -0.546037 0.250000
v 0.408126 -0.545117 0.248947
v 0.407452 -0.545506 0.249718
v 0.424264 -0.565685 0.247893
v 0.422762 -0.567188 0.250000
v 0.424063 -0.565887 0.248947
v 0.423513 -0.566437 0.249718
v 0.444975 -0.581577 0.247893
v 0.443912 -0.583417 0.250000
v 0.444832 -0.581824 0.248947
v 0.444443 -0.582497 0.249718
v 0.469093 -0.591567 0.247893
v 0.468543 -0.593620 0.250000
v 0.469019 -0.591842 0.248947
v 0.468818 -0.592594 0.249718
v 0.494975 -0.594975 0.247893
v 0.494975 -0.597100 0.250000
v 0.494975 -0.595259 0.248947
v 0.494975 -0.596037 0.249718
v 0.544975 -0.581577 0.247893
v 0.546037 -0.583417 0.250000
v 0.545117 -0.581824 0.248947
v 0.545506 -0.582497 0.249718
v 0.565685 -0.565685 0.247893
v 0.567116 -0.567243 0.250000
v 0.565877 -0.565894 0.248947
v 0.566401 -0.566464 0.249718
v 0.520857 -0.591567 0.247893
v 0.521407 -0.593620 0.250000
v 0.520930 -0.591842 0.248947
v 0.521132 -0.592594 0.249718
v 0.398382 -0.469093 0.247893
v 0.396330 -0.468543 0.250000
v 0.398107 -0.469019 0.248947
v 0.397356 -0.468818 0.249718
v 0.583509 -0.545877 0.250000
v 0.581577 -0.544975 0.247893
v 0.582543 -0.545426 0.249718
v 0.581836 -0.545096 0.248947
v 0.408372 -0.444975 0.247893
v 0.406532 -0.443912 0.250000
v 0.408126 -0.444832 0.248947
v 0.407452 -0.444444 0.249718
v 0.424264 -0.424264 0.247893
v 0.422762 -0.422762 0.250000
v 0.424063 -0.424063 0.248947
v 0.423513 -0.423513 0.249718
v 0.591567 -0.520857 0.247893
v 0.593608 -0.521494 0.250000
v 0.591841 -0.520942 0.248947
v 0.592588 -0.521175 0.249718
v 0.432840 -0.417683 0.247893
v 0.431265 -0.416237 0.250000
v 0.432629 -0.417490 0.248947
v 0.432052 -0.416960 0.249718
v 0.444975 -0.408372 0.247893
v 0.443912 -0.406532 0.250000
v 0.444832 -0.408126 0.248947
v 0.444444 -0.407452 0.249718
v 0.469093 -0.398382 0.247893
v 0.468543 -0.396330 0.250000
v 0.469019 -0.398107 0.248947
v 0.468818 -0.397356 0.249718
v 0.594975 -0.494975 0.247893
v 0.597100 -0.494975 0.250000
v 0.595259 -0.494975 0.248947
v 0.596037 -0.494975 0.249718
v 0.494975 -0.394975 0.247893
v 0.494975 -0.392850 0.250000
v 0.494975 -0.394690 0.248947
v 0.494975 -0.393912 0.249718
v 0.520857 -0.398382 0.247893
v 0.521407 -0.396330 0.250000
v 0.520930 -0.398107 0.248947
v 0.521132 -0.397356 0.249718
v 0.591567 -0.469093 0.247893
v 0.593620 -0.468543 0.250000
v 0.591842 -0.469019 0.248947
v 0.592594 -0.468818 0.249718
v 0.544975 -0.408372 0.247893
v 0.546037 -0.406532 0.250000
v 0.545117 -0.408126 0.248947
v 0.545506 -0.407452 0.249718
v 0.581577 -0.444975 0.247893
v 0.583417 -0.443912 0.250000
v 0.581824 -0.444832 0.248947
v 0.582497 -0.444443 0.249718
v 0.565685 -0.424264 0.247893
v 0.567188 -0.422762 0.250000
v 0.565887 -0.424063 0.248947
v 0.566437 -0.423513 0.249718
v 0.565685 -0.565685 -0.247893
v 0.567188 -0.567188 -0.250000
v 0.565887 -0.565887 -0.248947
v 0.566437 -0.566437 -0.249718
v 0.565685 -0.424264 -0.247893
v 0.567188 -0.422762 -0.250000
v 0.565887 -0.424063 -0.248947
v 0.566437 -0.423513 -0.249718
v 0.594975 -0.494975 -0.247893
v 0.597100 -0.494975 -0.250000
v 0.595259 -0.494975 -0.248947
v 0.596037 -0.494975 -0.249718
v 0.591567 -0.469093 -0.247893
v 0.593620 -0.468543 -0.250000
v 0.591842 -0.469019 -0.248947
v 0.592594 -0.468818 -0.249718
v 0.591567 -0.520857 -0.247893
v 0.593620 -0.521407 -0.250000
v 0.591842 -0.520930 -0.248947
v 0.592594 -0.521132 -0.249718
v 0.581577 -0.444975 -0.247893
v 0.583417 -0.443912 -0.250000
v 0.581824 -0.444832 -0.248947
v 0.582497 -0.444443 -0.249718
v 0.581577 -0.544975 -0.247893
v 0.583417 -0.546037 -0.250000
v 0.581824 -0.545117 -0.248947
v 0.582497 -0.545506 -0.249718
v 0.544975 -0.408372 -0.247893
v 0.546037 -0.406532 -0.250000
v 0.545117 -0.408126 -0.248947
v 0.545506 -0.407452 -0.249718
v 0.398382 -0.520857 -0.247893
v 0.396330 -0.521407 -0.250000
v 0.398107 -0.520930 -0.248947
v 0.397356 -0.521132 -0.249718
v 0.394975 -0.494975 -0.247893
v 0.392850 -0.494975 -0.250000
v 0.394690 -0.494975 -0.248947
v 0.393912 -0.494975 -0.249718
v 0.408372 -0.544975 -0.247893
v 0.406532 -0.546037 -0.250000
v 0.408126 -0.545117 -0.248947
v 0.407452 -0.545506 -0.249718
v 0.424264 -0.565685 -0.247893
v 0.422762 -0.567188 -0.250000
v 0.424063 -0.565887 -0.248947
v 0.423513 -0.566437 -0.249718
v 0.544975 -0.581577 -0.247893
v 0.546136 -0.583342 -0.250000
v 0.545130 -0.581814 -0.248947
v 0.545555 -0.582460 -0.249718
v 0.398382 -0.469093 -0.247893
v 0.396330 -0.468543 -0.250000
v 0.398107 -0.469019 -0.248947
v 0.397356 -0.468818 -0.249718
v 0.444975 -0.581577 -0.247893
v 0.443912 -0.583417 -0.250000
v 0.444832 -0.581824 -0.248947
v 0.444443 -0.582497 -0.249718
v 0.407627 -0.446775 -0.247893
v 0.406320 -0.444425 -0.250000
v 0.407451 -0.446460 -0.248947
v 0.406973 -0.445600 -0.249718
v 0.408372 -0.444975 -0.247893
v 0.406532 -0.443912 -0.250000
v 0.408126 -0.444832 -0.248947
v 0.407452 -0.444444 -0.249718
v 0.469093 -0.591567 -0.247893
v 0.468543 -0.593620 -0.250000
v 0.469019 -0.591842 -0.248947
v 0.468818 -0.592594 -0.249718
v 0.424264 -0.424264 -0.247893
v 0.422762 -0.422762 -0.250000
v 0.424063 -0.424063 -0.248947
v 0.423513 -0.423513 -0.249718
v 0.444975 -0.408372 -0.247893
v 0.443912 -0.406532 -0.250000
v 0.444832 -0.408126 -0.248947
v 0.444444 -0.407452 -0.249718
v 0.469093 -0.398382 -0.247893
v 0.468543 -0.396330 -0.250000
v 0.469019 -0.398107 -0.248947
v 0.468818 -0.397356 -0.249718
v 0.521163 -0.593684 -0.250000
v 0.520857 -0.591567 -0.247893
v 0.521010 -0.592626 -0.249718
v 0.520898 -0.591851 -0.248947
v 0.495094 -0.597115 -0.250000
v 0.494975 -0.594975 -0.247893
v 0.495034 -0.596045 -0.249718
v 0.494991 -0.595262 -0.248947
v 0.520857 -0.398382 -0.247893
v 0.521407 -0.396330 -0.250000
v 0.520930 -0.398107 -0.248947
v 0.521132 -0.397356 -0.249718
v 0.494975 -0.394975 -0.247893
v 0.494975 -0.392850 -0.250000
v 0.494975 -0.394690 -0.248947
v 0.494975 -0.393912 -0.249718
v -0.161119 -0.810000 0.247893
v -0.161538 -0.812107 0.250000
v -0.161175 -0.810282 0.248947
v -0.161329 -0.811053 0.249718
v -0.137250 -0.690000 0.247893
v -0.136831 -0.687893 0.250000
v -0.137193 -0.689718 0.248947
v -0.137040 -0.688947 0.249718
v -0.297893 -0.810000 0.247893
v -0.300000 -0.807893 0.247893
v -0.302107 -0.812107 0.250000
v -0.298927 -0.809687 0.247893
v -0.299232 -0.810310 0.248923
v -0.299648 -0.809998 0.248891
v -0.300310 -0.809232 0.248923
v -0.299687 -0.808927 0.247893
v -0.299998 -0.809648 0.248891
v -0.300768 -0.811077 0.249690
v -0.301077 -0.810768 0.249690
v -0.300354 -0.810354 0.249457
v -0.300000 -0.692107 0.247893
v -0.297893 -0.690000 0.247893
v -0.302107 -0.687893 0.250000
v -0.299687 -0.691073 0.247893
v -0.300310 -0.690768 0.248923
v -0.299998 -0.690352 0.248891
v -0.299232 -0.689690 0.248923
v -0.298927 -0.690313 0.247893
v -0.299648 -0.690002 0.248891
v -0.301077 -0.689232 0.249690
v -0.300768 -0.688923 0.249690
v -0.300354 -0.689646 0.249457
v 0.297893 -0.810000 0.247893
v 0.302107 -0.812107 0.250000
v 0.300000 -0.807893 0.247893
v 0.299232 -0.810310 0.248923
v 0.298927 -0.809687 0.247893
v 0.299648 -0.809998 0.248891
v 0.301077 -0.810768 0.249690
v 0.300768 -0.811077 0.249690
v 0.300354 -0.810354 0.249457
v 0.299687 -0.808927 0.247893
v 0.300310 -0.809232 0.248923
v 0.299998 -0.809648 0.248891
v 0.297893 -0.690000 0.247893
v 0.300000 -0.692107 0.247893
v 0.302107 -0.687893 0.250000
v 0.298927 -0.690313 0.247893
v 0.299232 -0.689690 0.248923
v 0.299648 -0.690002 0.248891
v 0.300310 -0.690768 0.248923
v 0.299687 -0.691073 0.247893
v 0.299998 -0.690352 0.248891
v 0.300768 -0.688923 0.249690
v 0.301077 -0.689232 0.249690
v 0.300354 -0.689646 0.249457
f 1 4 6 5
f 4 8 9 6
f 2 7 9 8
f 7 11 12 9
f 3 10 12 11
f 10 5 6 12
f 6 9 12
f 21 24 26 25
f 24 28 29 26
f 22 27 29 28
f 27 31 32 29
f 23 30 32 31
f 30 25 26 32
f 26 29 32
f 41 44 46 45
f 44 48 49 46
f 42 47 49 48
f 47 51 52 49
f 43 50 52 51
f 50 45 46 52
f 46 49 52
f 61 64 66 65
f 64 68 69 66
f 62 67 69 68
f 67 71 72 69
f 63 70 72 71
f 70 65 66 72
f 66 69 72
f 1753 1756 1758 1757
f 1756 1760 1761 1758
f 1754 1759 1761 1760
f 1759 1763 1764 1761
f 1755 1762 1764 1763
f 1762 1757 1758 1764
f 1758 1761 1764
f 1765 1768 1770 1769
f 1768 1772 1773 1770
f 1766 1771 1773 1772
f 1771 1775 1776 1773
f 1767 1774 1776 1775
f 1774 1769 1770 1776
f 1770 1773 1776
f 1777 1780 1782 1781
f 1780 1784 1785 1782
f 1778 1783 1785 1784
f 1783 1787 1788 1785
f 1779 1786 1788 1787
f 1786 1781 1782 1788
f 1782 1785 1788
f 1789 1792 1794 1793
f 1792 1796 1797 1794
f 1790 1795 1797 1796
f 1795 1799 1800 1797
f 1791 1798 1800 1799
f 1798 1793 1794 1800
f 1794 1797 1800
f 14 34 36 16
f 16 36 35 15
f 15 35 33 13
f 17 37 39 19
f 19 39 40 20
f 20 40 38 18
f 34 54 56 36
f 36 56 55 35
f 35 55 53 33
f 37 57 59 39
f 39 59 60 40
f 40 60 58 38
f 54 74 76 56
f 56 76 75 55
f 55 75 73 53
f 57 77 79 59
f 59 79 80 60
f 60 80 78 58
f 74 82 84 76
f 76 84 83 75
f 75 83 81 73
f 77 85 87 79
f 79 87 88 80
f 80 88 86 78
f 82 90 92 84
f 84 92 91 83
f 83 91 89 81
f 85 93 95 87
f 87 95 96 88
f 88 96 94 86
f 90 98 100 92
f 92 100 99 91
f 91 99 97 89
f 93 101 103 95
f 95 103 104 96
f 96 104 102 94
f 98 106 108 100
f 100 108 107 99
f 99 107 105 97
f 101 109 111 103
f 103 111 112 104
f 104 112 110 102
f 106 114 116 108
f 108 116 115 107
f 107 115 113 105
f 109 117 119 111
f 111 119 120 112
f 112 120 118 110
f 114 122 124 116
f 116 124 123 115
f 115 123 121 113
f 117 125 127 119
f 119 127 128 120
f 120 128 126 118
f 122 129 131 124
f 124 131 132 123
f 123 132 130 121
f 125 133 135 127
f 127 135 136 128
f 128 136 134 126
f 129 138 140 131
f 131 140 139 132
f 132 139 137 130
f 133 141 143 135
f 135 143 144 136
f 136 144 142 134
f 138 146 148 140
f 140 148 147 139
f 139 147 145 137
f 141 149 151 143
f 143 151 152 144
f 144 152 150 142
f 146 154 156 148
f 148 156 155 147
f 147 155 153 145
f 149 157 159 151
f 151 159 160 152
f 152 160 158 150
f 154 162 164 156
f 156 164 163 155
f 155 163 161 153
f 157 165 167 159
f 159 167 168 160
f 160 168 166 158
f 162 170 172 164
f 164 172 171 163
f 163 171 169 161
f 165 173 175 167
f 167 175 176 168
f 168 176 174 166
f 170 178 180 172
f 172 180 179 171
f 171 179 177 169
f 173 181 183 175
f 175 183 184 176
f 176 184 182 174
f 178 186 188 180
f 180 188 187 179
f 179 187 185 177
f 181 189 191 183
f 183 191 192 184
f 184 192 190 182
f 186 194 196 188
f 188 196 195 187
f 187 195 193 185
f 189 197 199 191
f 191 199 200 192
f 192 200 198 190
f 194 202 204 196
f 196 204 203 195
f 195 203 201 193
f 197 205 207 199
f 199 207 208 200
f 200 208 206 198
f 202 210 212 204
f 204 212 211 203
f 203 211 209 201
f 205 213 215 207
f 207 215 216 208
f 208 216 214 206
f 210 218 220 212
f 212 220 219 211
f 211 219 217 209
f 213 221 223 215
f 215 223 224 216
f 216 224 222 214
f 218 226 228 220
f 220 228 227 219
f 219 227 225 217
f 221 229 231 223
f 223 231 232 224
f 224 232 230 222
f 226 234 236 228
f 228 236 235 227
f 227 235 233 225
f 229 237 239 231
f 231 239 240 232
f 232 240 238 230
f 234 242 244 236
f 236 244 243 235
f 235 243 241 233
f 237 245 247 239
f 239 247 248 240
f 240 248 246 238
f 242 250 252 244
f 244 252 251 243
f 243 251 249 241
f 245 253 255 247
f 247 255 256 248
f 248 256 254 246
f 250 257 259 252
f 252 259 260 251
f 251 260 258 249
f 253 261 263 255
f 255 263 264 256
f 256 264 262 254
f 257 266 268 259
f 259 268 267 260
f 260 267 265 258
f 261 269 271 263
f 263 271 272 264
f 264 272 270 262
f 266 274 276 268
f 268 276 275 267
f 267 275 273 265
f 269 277 279 271
f 271 279 280 272
f 272 280 278 270
f 274 282 284 276
f 276 284 283 275
f 275 283 281 273
f 277 285 287 279
f 279 287 288 280
f 280 288 286 278
f 282 290 292 284
f 284 292 291 283
f 283 291 289 281
f 285 293 295 287
f 287 295 296 288
f 288 296 294 286
f 290 297 299 292
f 292 299 300 291
f 291 300 298 289
f 293 301 303 295
f 295 303 304 296
f 296 304 302 294
f 297 306 308 299
f 299 308 307 300
f 300 307 305 298
f 301 309 311 303
f 303 311 312 304
f 304 312 310 302
f 306 314 316 308
f 308 316 315 307
f 307 315 313 305
f 309 317 319 311
f 311 319 320 312
f 312 320 318 310
f 314 322 324 316
f 316 324 323 315
f 315 323 321 313
f 317 325 327 319
f 319 327 328 320
f 320 328 326 318
f 322 330 332 324
f 324 332 331 323
f 323 331 329 321
f 325 333 335 327
f 327 335 336 328
f 328 336 334 326
f 330 338 340 332
f 332 340 339 331
f 331 339 337 329
f 333 341 343 335
f 335 343 344 336
f 336 344 342 334
f 338 346 348 340
f 340 348 347 339
f 339 347 345 337
f 341 349 351 343
f 343 351 352 344
f 344 352 350 342
f 346 354 356 348
f 348 356 355 347
f 347 355 353 345
f 349 357 359 351
f 351 359 360 352
f 352 360 358 350
f 354 361 363 356
f 356 363 364 355
f 355 364 362 353
f 357 365 367 359
f 359 367 368 360
f 360 368 366 358
f 361 370 372 363
f 363 372 371 364
f 364 371 369 362
f 365 373 375 367
f 367 375 376 368
f 368 376 374 366
f 370 378 380 372
f 372 380 379 371
f 371 379 377 369
f 373 381 383 375
f 375 383 384 376
f 376 384 382 374
f 378 386 388 380
f 380 388 387 379
f 379 387 385 377
f 381 389 391 383
f 383 391 392 384
f 384 392 390 382
f 386 394 396 388
f 388 396 395 387
f 387 395 393 385
f 389 397 399 391
f 391 399 400 392
f 392 400 398 390
f 394 402 404 396
f 396 404 403 395
f 395 403 401 393
f 397 405 407 399
f 399 407 408 400
f 400 408 406 398
f 402 410 412 404
f 404 412 411 403
f 403 411 409 401
f 405 413 415 407
f 407 415 416 408
f 408 416 414 406
f 410 418 420 412
f 412 420 419 411
f 411 419 417 409
f 413 421 423 415
f 415 423 424 416
f 416 424 422 414
f 418 426 428 420
f 420 428 427 419
f 419 427 425 417
f 421 429 431 423
f 423 431 432 424
f 424 432 430 422
f 426 434 436 428
f 428 436 435 427
f 427 435 433 425
f 429 437 439 431
f 431 439 440 432
f 432 440 438 430
f 434 442 444 436
f 436 444 443 435
f 435 443 441 433
f 437 445 447 439
f 439 447 448 440
f 440 448 446 438
f 442 450 452 444
f 444 452 451 443
f 443 451 449 441
f 445 453 455 447
f 447 455 456 448
f 448 456 454 446
f 450 458 460 452
f 452 460 459 451
f 451 459 457 449
f 453 461 463 455
f 455 463 464 456
f 456 464 462 454
f 458 466 468 460
f 460 468 467 459
f 459 467 465 457
f 461 469 471 463
f 463 471 472 464
f 464 472 470 462
f 466 474 476 468
f 468 476 475 467
f 467 475 473 465
f 469 477 479 471
f 471 479 480 472
f 472 480 478 470
f 474 482 484 476
f 476 484 483 475
f 475 483 481 473
f 477 485 487 479
f 479 487 488 480
f 480 488 486 478
f 482 489 491 484
f 484 491 492 483
f 483 492 490 481
f 485 493 495 487
f 487 495 496 488
f 488 496 494 486
f 489 498 500 491
f 491 500 499 492
f 492 499 497 490
f 493 501 503 495
f 495 503 504 496
f 496 504 502 494
f 498 506 508 500
f 500 508 507 499
f 499 507 505 497
f 501 509 511 503
f 503 511 512 504
f 504 512 510 502
f 506 514 516 508
f 508 516 515 507
f 507 515 513 505
f 509 517 519 511
f 511 519 520 512
f 512 520 518 510
f 514 522 524 516
f 516 524 523 515
f 515 523 521 513
f 517 525 527 519
f 519 527 528 520
f 520 528 526 518
f 522 530 532 524
f 524 532 531 523
f 523 531 529 521
f 525 533 535 527
f 527 535 536 528
f 528 536 534 526
f 530 538 540 532
f 532 540 539 531
f 531 539 537 529
f 533 541 543 535
f 535 543 544 536
f 536 544 542 534
f 538 546 548 540
f 540 548 547 539
f 539 547 545 537
f 541 549 551 543
f 543 551 552 544
f 544 552 550 542
f 1418 1421 1423 1420
f 1420 1423 1424 1419
f 1419 1424 1422 1417
f 1410 1418 1420 1412
f 1412 1420 1419 1411
f 1411 1419 1417 1409
f 1402 1410 1412 1404
f 1404 1412 1411 1403
f 1403 1411 1409 1401
f 1398 1402 1404 1400
f 1400 1404 1403 1399
f 1399 1403 1401 1397
f 1397 1405 1407 1399
f 1399 1407 1408 1400
f 1400 1408 1406 1398
f 1405 1413 1415 1407
f 1407 1415 1416 1408
f 1408 1416 1414 1406
f 1413 1441 1443 1415
f 1415 1443 1444 1416
f 1416 1444 1442 1414
f 1426 1442 1444 1428
f 1428 1444 1443 1427
f 1427 1443 1441 1425
f 1425 1437 1439 1427
f 1427 1439 1440 1428
f 1428 1440 1438 1426
f 1434 1438 1440 1436
f 1436 1440 1439 1435
f 1435 1439 1437 1433
f 1430 1434 1436 1432
f 1432 1436 1435 1431
f 1431 1435 1433 1429
f 1394 1430 1432 1396
f 1396 1432 1431 1395
f 1395 1431 1429 1393
f 1390 1394 1396 1392
f 1392 1396 1395 1391
f 1391 1395 1393 1389
f 1378 1390 1392 1380
f 1380 1392 1391 1379
f 1379 1391 1389 1377
f 594 661 663 596
f 596 663 664 595
f 595 664 662 593
f 586 594 596 588
f 588 596 595 587
f 587 595 593 585
f 582 586 588 584
f 584 588 587 583
f 583 587 585 581
f 574 582 584 576
f 576 584 583 575
f 575 583 581 573
f 566 574 576 568
f 568 576 575 567
f 567 575 573 565
f 562 566 568 564
f 564 568 567 563
f 563 567 565 561
f 561 569 571 563
f 563 571 572 564
f 564 572 570 562
f 569 577 579 571
f 571 579 580 572
f 572 580 578 570
f 577 601 603 579
f 579 603 604 580
f 580 604 602 578
f 598 602 604 600
f 600 604 603 599
f 599 603 601 597
f 590 598 600 592
f 592 600 599 591
f 591 599 597 589
f 589 605 607 591
f 591 607 608 592
f 592 608 606 590
f 605 625 627 607
f 607 627 628 608
f 608 628 626 606
f 614 626 628 616
f 616 628 627 615
f 615 627 625 613
f 613 657 659 615
f 615 659 660 616
f 616 660 658 614
f 638 658 660 640
f 640 660 659 639
f 639 659 657 637
f 637 653 655 639
f 639 655 656 640
f 640 656 654 638
f 1214 1225 1227 1216
f 1216 1227 1228 1215
f 1215 1228 1226 1213
f 1213 1233 1235 1215
f 1215 1235 1236 1216
f 1216 1236 1234 1214
f 1206 1234 1236 1208
f 1208 1236 1235 1207
f 1207 1235 1233 1205
f 1198 1206 1208 1200
f 1200 1208 1207 1199
f 1199 1207 1205 1197
f 1186 1198 1200 1188
f 1188 1200 1199 1187
f 1187 1199 1197 1185
f 1170 1186 1188 1172
f 1172 1188 1187 1171
f 1171 1187 1185 1169
f 1169 1177 1179 1171
f 1171 1179 1180 1172
f 1172 1180 1178 1170
f 1177 1189 1191 1179
f 1179 1191 1192 1180
f 1180 1192 1190 1178
f 1162 1190 1192 1164
f 1164 1192 1191 1163
f 1163 1191 1189 1161
f 1154 1162 1164 1156
f 1156 1164 1163 1155
f 1155 1163 1161 1153
f 1150 1154 1156 1152
f 1152 1156 1155 1151
f 1151 1155 1153 1149
f 1149 1157 1159 1151
f 1151 1159 1160 1152
f 1152 1160 1158 1150
f 1157 1165 1167 1159
f 1159 1167 1168 1160
f 1160 1168 1166 1158
f 1165 1193 1195 1167
f 1167 1195 1196 1168
f 1168 1196 1194 1166
f 1182 1194 1196 1184
f 1184 1196 1195 1183
f 1183 1195 1193 1181
f 1174 1182 1184 1176
f 1176 1184 1183 1175
f 1175 1183 1181 1173
f 1173 1241 1243 1175
f 1175 1243 1244 1176
f 1176 1244 1242 1174
f 1210 1242 1244 1212
f 1212 1244 1243 1211
f 1211 1243 1241 1209
f 1202 1210 1212 1204
f 1204 1212 1211 1203
f 1203 1211 1209 1201
f 1745 1753 1757 1747
f 1747 1757 1762 1748
f 1748 1762 1755 1746
f 1754 1765 1769 1759
f 1759 1769 1774 1763
f 1763 1774 1767 1755
f 1750 1767 1775 1752
f 1752 1775 1771 1751
f 1751 1771 1766 1749
f 630 634 636 632
f 632 636 635 631
f 631 635 633 629
f 618 630 632 620
f 620 632 631 619
f 619 631 629 617
f 617 621 623 619
f 619 623 624 620
f 620 624 622 618
f 610 622 624 612
f 612 624 623 611
f 611 623 621 609
f 609 662 664 611
f 611 664 663 612
f 612 663 661 610
f 1377 1381 1383 1379
f 1379 1383 1384 1380
f 1380 1384 1382 1378
f 1374 1382 1384 1376
f 1376 1384 1383 1375
f 1375 1383 1381 1373
f 1366 1374 1376 1368
f 1368 1376 1375 1367
f 1367 1375 1373 1365
f 1362 1366 1368 1364
f 1364 1368 1367 1363
f 1363 1367 1365 1361
f 1354 1362 1364 1356
f 1356 1364 1363 1355
f 1355 1363 1361 1353
f 1346 1354 1356 1348
f 1348 1356 1355 1347
f 1347 1355 1353 1345
f 1345 1349 1351 1347
f 1347 1351 1352 1348
f 1348 1352 1350 1346
f 1349 1357 1359 1351
f 1351 1359 1360 1352
f 1352 1360 1358 1350
f 1357 1369 1371 1359
f 1359 1371 1372 1360
f 1360 1372 1370 1358
f 1369 1385 1387 1371
f 1371 1387 1388 1372
f 1372 1388 1386 1370
f 1385 1422 1424 1387
f 1387 1424 1423 1388
f 1388 1423 1421 1386
f 1222 1229 1231 1224
f 1224 1231 1232 1223
f 1223 1232 1230 1221
f 1221 1226 1228 1223
f 1223 1228 1227 1224
f 1224 1227 1225 1222
f 650 654 656 652
f 652 656 655 651
f 651 655 653 649
f 642 650 652 644
f 644 652 651 643
f 643 651 649 641
f 641 645 647 643
f 643 647 648 644
f 644 648 646 642
f 18 557 559 20
f 20 559 560 19
f 19 560 558 17
f 549 558 560 551
f 551 560 559 552
f 552 559 557 550
f 1201 1237 1239 1203
f 1203 1239 1240 1204
f 1204 1240 1238 1202
f 1218 1238 1240 1220
f 1220 1240 1239 1219
f 1219 1239 1237 1217
f 1217 1230 1232 1219
f 1219 1232 1231 1220
f 1220 1231 1229 1218
f 1746 1778 1784 1748
f 1748 1784 1780 1747
f 1747 1780 1777 1745
f 1578 1589 1591 1580
f 1580 1591 1592 1579
f 1579 1592 1590 1577
f 1574 1578 1580 1576
f 1576 1580 1579 1575
f 1575 1579 1577 1573
f 1573 1581 1583 1575
f 1575 1583 1584 1576
f 1576 1584 1582 1574
f 1570 1582 1584 1572
f 1572 1584 1583 1571
f 1571 1583 1581 1569
f 1566 1570 1572 1568
f 1568 1572 1571 1567
f 1567 1571 1569 1565
f 1562 1566 1568 1564
f 1564 1568 1567 1563
f 1563 1567 1565 1561
f 1558 1562 1564 1560
f 1560 1564 1563 1559
f 1559 1563 1561 1557
f 1554 1558 1560 1556
f 1556 1560 1559 1555
f 1555 1559 1557 1553
f 1546 1554 1556 1548
f 1548 1556 1555 1547
f 1547 1555 1553 1545
f 1545 1549 1551 1547
f 1547 1551 1552 1548
f 1548 1552 1550 1546
f 1549 1585 1587 1551
f 1551 1587 1588 1552
f 1552 1588 1586 1550
f 1585 1593 1595 1587
f 1587 1595 1596 1588
f 1588 1596 1594 1586
f 1593 1597 1599 1595
f 1595 1599 1600 1596
f 1596 1600 1598 1594
f 1597 1605 1607 1599
f 1599 1607 1608 1600
f 1600 1608 1606 1598
f 686 757 759 688
f 688 759 760 687
f 687 760 758 685
f 685 697 699 687
f 687 699 700 688
f 688 700 698 686
f 697 701 703 699
f 699 703 704 700
f 700 704 702 698
f 674 702 704 676
f 676 704 703 675
f 675 703 701 673
f 673 677 679 675
f 675 679 680 676
f 676 680 678 674
f 670 678 680 672
f 672 680 679 671
f 671 679 677 669
f 666 670 672 668
f 668 672 671 667
f 667 671 669 665
f 634 666 668 636
f 636 668 667 635
f 635 667 665 633
f 1749 1789 1793 1751
f 1751 1793 1798 1752
f 1752 1798 1791 1750
f 1778 1791 1799 1783
f 1783 1799 1795 1787
f 1787 1795 1790 1779
f 982 989 991 984
f 984 991 992 983
f 983 992 990 981
f 981 1045 1047 983
f 983 1047 1048 984
f 984 1048 1046 982
f 1010 1046 1048 1012
f 1012 1048 1047 1011
f 1011 1047 1045 1009
f 1002 1010 1012 1004
f 1004 1012 1011 1003
f 1003 1011 1009 1001
f 1001 1033 1035 1003
f 1003 1035 1036 1004
f 1004 1036 1034 1002
f 1030 1034 1036 1032
f 1032 1036 1035 1031
f 1031 1035 1033 1029
f 1026 1030 1032 1028
f 1028 1032 1031 1027
f 1027 1031 1029 1025
f 1018 1026 1028 1020
f 1020 1028 1027 1019
f 1019 1027 1025 1017
f 1017 1021 1023 1019
f 1019 1023 1024 1020
f 1020 1024 1022 1018
f 1014 1022 1024 1016
f 1016 1024 1023 1015
f 1015 1023 1021 1013
f 1013 1041 1043 1015
f 1015 1043 1044 1016
f 1016 1044 1042 1014
f 998 1042 1044 1000
f 1000 1044 1043 999
f 999 1043 1041 997
f 997 1005 1007 999
f 999 1007 1008 1000
f 1000 1008 1006 998
f 1005 1037 1039 1007
f 1007 1039 1040 1008
f 1008 1040 1038 1006
f 978 1038 1040 980
f 980 1040 1039 979
f 979 1039 1037 977
f 977 985 987 979
f 979 987 988 980
f 980 988 986 978
f 985 993 995 987
f 987 995 996 988
f 988 996 994 986
f 962 994 996 964
f 964 996 995 963
f 963 995 993 961
f 690 693 695 692
f 692 695 696 691
f 691 696 694 689
f 693 709 711 695
f 695 711 712 696
f 696 712 710 694
f 709 725 727 711
f 711 727 728 712
f 712 728 726 710
f 718 726 728 720
f 720 728 727 719
f 719 727 725 717
f 717 753 755 719
f 719 755 756 720
f 720 756 754 718
f 750 754 756 752
f 752 756 755 751
f 751 755 753 749
f 742 750 752 744
f 744 752 751 743
f 743 751 749 741
f 734 742 744 736
f 736 744 743 735
f 735 743 741 733
f 733 737 739 735
f 735 739 740 736
f 736 740 738 734
f 730 738 740 732
f 732 740 739 731
f 731 739 737 729
f 729 745 747 731
f 731 747 748 732
f 732 748 746 730
f 714 746 748 716
f 716 748 747 715
f 715 747 745 713
f 713 721 723 715
f 715 723 724 716
f 716 724 722 714
f 721 758 760 723
f 723 760 759 724
f 724 759 757 722
f 1605 1609 1611 1607
f 1607 1611 1612 1608
f 1608 1612 1610 1606
f 1609 1613 1615 1611
f 1611 1615 1616 1612
f 1612 1616 1614 1610
f 1613 1621 1623 1615
f 1615 1623 1624 1616
f 1616 1624 1622 1614
f 1621 1625 1627 1623
f 1623 1627 1628 1624
f 1624 1628 1626 1622
f 1625 1633 1635 1627
f 1627 1635 1636 1628
f 1628 1636 1634 1626
f 1633 1641 1643 1635
f 1635 1643 1644 1636
f 1636 1644 1642 1634
f 1638 1642 1644 1640
f 1640 1644 1643 1639
f 1639 1643 1641 1637
f 1630 1638 1640 1632
f 1632 1640 1639 1631
f 1631 1639 1637 1629
f 1618 1630 1632 1620
f 1620 1632 1631 1619
f 1619 1631 1629 1617
f 1602 1618 1620 1604
f 1604 1620 1619 1603
f 1603 1619 1617 1601
f 1589 1602 1604 1591
f 1591 1604 1603 1592
f 1592 1603 1601 1590
f 970 973 975 972
f 972 975 976 971
f 971 976 974 969
f 973 990 992 975
f 975 992 991 976
f 976 991 989 974
f 645 705 707 647
f 647 707 708 648
f 648 708 706 646
f 682 706 708 684
f 684 708 707 683
f 683 707 705 681
f 681 690 692 683
f 683 692 691 684
f 684 691 689 682
f 954 962 964 956
f 956 964 963 955
f 955 963 961 953
f 953 957 959 955
f 955 959 960 956
f 956 960 958 954
f 957 965 967 959
f 959 967 968 960
f 960 968 966 958
f 965 970 972 967
f 967 972 971 968
f 968 971 969 966
f 546 553 555 548
f 548 555 556 547
f 547 556 554 545
f 13 554 556 15
f 15 556 555 16
f 16 555 553 14
f 1106 1117 1119 1108
f 1108 1119 1120 1107
f 1107 1120 1118 1105
f 1090 1106 1108 1092
f 1092 1108 1107 1091
f 1091 1107 1105 1089
f 1694 1729 1731 1696
f 1696 1731 1732 1695
f 1695 1732 1730 1693
f 1646 1694 1696 1648
f 1648 1696 1695 1647
f 1647 1695 1693 1645
f 1645 1669 1671 1647
f 1647 1671 1672 1648
f 1648 1672 1670 1646
f 1662 1670 1672 1664
f 1664 1672 1671 1663
f 1663 1671 1669 1661
f 1654 1662 1664 1656
f 1656 1664 1663 1655
f 1655 1663 1661 1653
f 1653 1657 1659 1655
f 1655 1659 1660 1656
f 1656 1660 1658 1654
f 1657 1665 1667 1659
f 1659 1667 1668 1660
f 1660 1668 1666 1658
f 1650 1666 1668 1652
f 1652 1668 1667 1651
f 1651 1667 1665 1649
f 1649 1673 1675 1651
f 1651 1675 1676 1652
f 1652 1676 1674 1650
f 1673 1737 1739 1675
f 1675 1739 1740 1676
f 1676 1740 1738 1674
f 1737 1741 1743 1739
f 1739 1743 1744 1740
f 1740 1744 1742 1738
f 1726 1742 1744 1728
f 1728 1744 1743 1727
f 1727 1743 1741 1725
f 1722 1726 1728 1724
f 1724 1728 1727 1723
f 1723 1727 1725 1721
f 1718 1722 1724 1720
f 1720 1724 1723 1719
f 1719 1723 1721 1717
f 1710 1718 1720 1712
f 1712 1720 1719 1711
f 1711 1719 1717 1709
f 1706 1710 1712 1708
f 1708 1712 1711 1707
f 1707 1711 1709 1705
f 810 817 819 812
f 812 819 820 811
f 811 820 818 809
f 809 841 843 811
f 811 843 844 812
f 812 844 842 810
f 841 845 847 843
f 843 847 848 844
f 844 848 846 842
f 834 846 848 836
f 836 848 847 835
f 835 847 845 833
f 830 834 836 832
f 832 836 835 831
f 831 835 833 829
f 829 837 839 831
f 831 839 840 832
f 832 840 838 830
f 826 838 840 828
f 828 840 839 827
f 827 839 837 825
f 825 849 851 827
f 827 851 852 828
f 828 852 850 826
f 814 850 852 816
f 816 852 851 815
f 815 851 849 813
f 813 821 823 815
f 815 823 824 816
f 816 824 822 814
f 821 853 855 823
f 823 855 856 824
f 824 856 854 822
f 790 854 856 792
f 792 856 855 791
f 791 855 853 789
f 1121 1125 1127 1123
f 1123 1127 1128 1124
f 1124 1128 1126 1122
f 1125 1133 1135 1127
f 1127 1135 1136 1128
f 1128 1136 1134 1126
f 1133 1137 1139 1135
f 1135 1139 1140 1136
f 1136 1140 1138 1134
f 1137 1141 1143 1139
f 1139 1143 1144 1140
f 1140 1144 1142 1138
f 1141 1145 1147 1143
f 1143 1147 1148 1144
f 1144 1148 1146 1142
f 1130 1146 1148 1132
f 1132 1148 1147 1131
f 1131 1147 1145 1129
f 1117 1130 1132 1119
f 1119 1132 1131 1120
f 1120 1131 1129 1118
f 1729 1733 1735 1731
f 1731 1735 1736 1732
f 1732 1736 1734 1730
f 766 769 771 768
f 768 771 772 767
f 767 772 770 765
f 765 781 783 767
f 767 783 784 768
f 768 784 782 766
f 781 793 795 783
f 783 795 796 784
f 784 796 794 782
f 793 801 803 795
f 795 803 804 796
f 796 804 802 794
f 801 805 807 803
f 803 807 808 804
f 804 808 806 802
f 805 818 820 807
f 807 820 819 808
f 808 819 817 806
f 1698 1706 1708 1700
f 1700 1708 1707 1699
f 1699 1707 1705 1697
f 1682 1698 1700 1684
f 1684 1700 1699 1683
f 1683 1699 1697 1681
f 1678 1682 1684 1680
f 1680 1684 1683 1679
f 1679 1683 1681 1677
f 1677 1685 1687 1679
f 1679 1687 1688 1680
f 1680 1688 1686 1678
f 1685 1689 1691 1687
f 1687 1691 1692 1688
f 1688 1692 1690 1686
f 1689 1701 1703 1691
f 1691 1703 1704 1692
f 1692 1704 1702 1690
f 1701 1713 1715 1703
f 1703 1715 1716 1704
f 1704 1716 1714 1702
f 1713 1734 1736 1715
f 1715 1736 1735 1716
f 1716 1735 1733 1714
f 1110 1113 1115 1112
f 1112 1115 1116 1111
f 1111 1116 1114 1109
f 1113 1121 1123 1115
f 1115 1123 1124 1116
f 1116 1124 1122 1114
f 789 797 799 791
f 791 799 800 792
f 792 800 798 790
f 786 798 800 788
f 788 800 799 787
f 787 799 797 785
f 778 786 788 780
f 780 788 787 779
f 779 787 785 777
f 774 778 780 776
f 776 780 779 775
f 775 779 777 773
f 762 774 776 764
f 764 776 775 763
f 763 775 773 761
f 761 941 943 763
f 763 943 944 764
f 764 944 942 762
f 1086 1090 1092 1088
f 1088 1092 1091 1087
f 1087 1091 1089 1085
f 1085 1093 1095 1087
f 1087 1095 1096 1088
f 1088 1096 1094 1086
f 1078 1094 1096 1080
f 1080 1096 1095 1079
f 1079 1095 1093 1077
f 1077 1081 1083 1079
f 1079 1083 1084 1080
f 1080 1084 1082 1078
f 1074 1082 1084 1076
f 1076 1084 1083 1075
f 1075 1083 1081 1073
f 1073 1097 1099 1075
f 1075 1099 1100 1076
f 1076 1100 1098 1074
f 1062 1098 1100 1064
f 1064 1100 1099 1063
f 1063 1099 1097 1061
f 1061 1065 1067 1063
f 1063 1067 1068 1064
f 1064 1068 1066 1062
f 1065 1069 1071 1067
f 1067 1071 1072 1068
f 1068 1072 1070 1066
f 1058 1070 1072 1060
f 1060 1072 1071 1059
f 1059 1071 1069 1057
f 1050 1058 1060 1052
f 1052 1060 1059 1051
f 1051 1059 1057 1049
f 1049 1053 1055 1051
f 1051 1055 1056 1052
f 1052 1056 1054 1050
f 1053 1101 1103 1055
f 1055 1103 1104 1056
f 1056 1104 1102 1054
f 1101 1110 1112 1103
f 1103 1112 1111 1104
f 1104 1111 1109 1102
f 1270 1285 1287 1272
f 1272 1287 1288 1271
f 1271 1288 1286 1269
f 1258 1286 1288 1260
f 1260 1288 1287 1259
f 1259 1287 1285 1257
f 930 942 944 932
f 932 944 943 931
f 931 943 941 929
f 914 930 932 916
f 916 932 931 915
f 915 931 929 913
f 913 921 923 915
f 915 923 924 916
f 916 924 922 914
f 910 922 924 912
f 912 924 923 911
f 911 923 921 909
f 1313 1333 1335 1315
f 1315 1335 1336 1316
f 1316 1336 1334 1314
f 1326 1334 1336 1328
f 1328 1336 1335 1327
f 1327 1335 1333 1325
f 1322 1326 1328 1324
f 1324 1328 1327 1323
f 1323 1327 1325 1321
f 1321 1329 1331 1323
f 1323 1331 1332 1324
f 1324 1332 1330 1322
f 1318 1330 1332 1320
f 1320 1332 1331 1319
f 1319 1331 1329 1317
f 1317 1337 1339 1319
f 1319 1339 1340 1320
f 1320 1340 1338 1318
f 1274 1338 1340 1276
f 1276 1340 1339 1275
f 1275 1339 1337 1273
f 1273 1277 1279 1275
f 1275 1279 1280 1276
f 1276 1280 1278 1274
f 1277 1281 1283 1279
f 1279 1283 1284 1280
f 1280 1284 1282 1278
f 1266 1282 1284 1268
f 1268 1284 1283 1267
f 1267 1283 1281 1265
f 1265 1270 1272 1267
f 1267 1272 1271 1268
f 1268 1271 1269 1266
f 1458 1465 1467 1460
f 1460 1467 1468 1459
f 1459 1468 1466 1457
f 1465 1469 1471 1467
f 1467 1471 1472 1468
f 1468 1472 1470 1466
f 1257 1261 1263 1259
f 1259 1263 1264 1260
f 1260 1264 1262 1258
f 1250 1262 1264 1252
f 1252 1264 1263 1251
f 1251 1263 1261 1249
f 1246 1250 1252 1248
f 1248 1252 1251 1247
f 1247 1251 1249 1245
f 1245 1253 1255 1247
f 1247 1255 1256 1248
f 1248 1256 1254 1246
f 1253 1289 1291 1255
f 1255 1291 1292 1256
f 1256 1292 1290 1254
f 1289 1293 1295 1291
f 1291 1295 1296 1292
f 1292 1296 1294 1290
f 1293 1297 1299 1295
f 1295 1299 1300 1296
f 1296 1300 1298 1294
f 1297 1301 1303 1299
f 1299 1303 1304 1300
f 1300 1304 1302 1298
f 1301 1305 1307 1303
f 1303 1307 1308 1304
f 1304 1308 1306 1302
f 1305 1341 1343 1307
f 1307 1343 1344 1308
f 1308 1344 1342 1306
f 1310 1342 1344 1312
f 1312 1344 1343 1311
f 1311 1343 1341 1309
f 1309 1313 1315 1311
f 1311 1315 1316 1312
f 1312 1316 1314 1310
f 909 949 951 911
f 911 951 952 912
f 912 952 950 910
f 894 950 952 896
f 896 952 951 895
f 895 951 949 893
f 882 894 896 884
f 884 896 895 883
f 883 895 893 881
f 881 901 903 883
f 883 903 904 884
f 884 904 902 882
f 874 902 904 876
f 876 904 903 875
f 875 903 901 873
f 866 874 876 868
f 868 876 875 867
f 867 875 873 865
f 858 866 868 860
f 860 868 867 859
f 859 867 865 857
f 857 861 863 859
f 859 863 864 860
f 860 864 862 858
f 861 869 871 863
f 863 871 872 864
f 864 872 870 862
f 869 877 879 871
f 871 879 880 872
f 872 880 878 870
f 877 889 891 879
f 879 891 892 880
f 880 892 890 878
f 886 890 892 888
f 888 892 891 887
f 887 891 889 885
f 885 897 899 887
f 887 899 900 888
f 888 900 898 886
f 1526 1530 1532 1528
f 1528 1532 1531 1527
f 1527 1531 1529 1525
f 1518 1526 1528 1520
f 1520 1528 1527 1519
f 1519 1527 1525 1517
f 1482 1518 1520 1484
f 1484 1520 1519 1483
f 1483 1519 1517 1481
f 1478 1482 1484 1480
f 1480 1484 1483 1479
f 1479 1483 1481 1477
f 1477 1485 1487 1479
f 1479 1487 1488 1480
f 1480 1488 1486 1478
f 1474 1486 1488 1476
f 1476 1488 1487 1475
f 1475 1487 1485 1473
f 1473 1489 1491 1475
f 1475 1491 1492 1476
f 1476 1492 1490 1474
f 1462 1490 1492 1464
f 1464 1492 1491 1463
f 1463 1491 1489 1461
f 1454 1462 1464 1456
f 1456 1464 1463 1455
f 1455 1463 1461 1453
f 1450 1454 1456 1452
f 1452 1456 1455 1451
f 1451 1455 1453 1449
f 1446 1450 1452 1448
f 1448 1452 1451 1447
f 1447 1451 1449 1445
f 1445 1458 1460 1447
f 1447 1460 1459 1448
f 1448 1459 1457 1446
f 1538 1541 1543 1540
f 1540 1543 1544 1539
f 1539 1544 1542 1537
f 1530 1542 1544 1532
f 1532 1544 1543 1531
f 1531 1543 1541 1529
f 897 905 907 899
f 899 907 908 900
f 900 908 906 898
f 905 917 919 907
f 907 919 920 908
f 908 920 918 906
f 917 945 947 919
f 919 947 948 920
f 920 948 946 918
f 926 946 948 928
f 928 948 947 927
f 927 947 945 925
f 925 937 939 927
f 927 939 940 928
f 928 940 938 926
f 934 938 940 936
f 936 940 939 935
f 935 939 937 933
f 769 934 936 771
f 771 936 935 772
f 772 935 933 770
f 1469 1521 1523 1471
f 1471 1523 1524 1472
f 1472 1524 1522 1470
f 1521 1533 1535 1523
f 1523 1535 1536 1524
f 1524 1536 1534 1522
f 1506 1534 1536 1508
f 1508 1536 1535 1507
f 1507 1535 1533 1505
f 1498 1506 1508 1500
f 1500 1508 1507 1499
f 1499 1507 1505 1497
f 1494 1498 1500 1496
f 1496 1500 1499 1495
f 1495 1499 1497 1493
f 1493 1501 1503 1495
f 1495 1503 1504 1496
f 1496 1504 1502 1494
f 1501 1509 1511 1503
f 1503 1511 1512 1504
f 1504 1512 1510 1502
f 1509 1513 1515 1511
f 1511 1515 1516 1512
f 1512 1516 1514 1510
f 1513 1538 1540 1515
f 1515 1540 1539 1516
f 1516 1539 1537 1514
f 3 1754 1760 10
f 10 1760 1756 5
f 5 1756 1753 1
f 2 21 25 7
f 7 25 30 11
f 11 30 23 3
f 22 1766 1772 27
f 27 1772 1768 31
f 31 1768 1765 23
f 21 61 65 24
f 24 65 70 28
f 28 70 63 22
f 62 1790 1796 67
f 67 1796 1792 71
f 71 1792 1789 63
f 43 62 68 50
f 50 68 64 45
f 45 64 61 41
f 42 1777 1781 47
f 47 1781 1786 51
f 51 1786 1779 43
f 1 42 48 4
f 4 48 44 8
f 8 44 41 2
f 42 1 1753 1745 1777
f 1754 3 23 1765
f 21 2 41 61
f 1114 1122 790 798 786 778 774 762 942 554 13 33 53 73 81 89 97 105 113 121 130 1090 1086 1094 1078 1082 1074 1098 1062 1066 1070 1058 1050 1054 1102 1109
f 14 18 38 34
f 553 557 18 14
f 1222 1225 654 650 642 646 57 37 17 558 549 1202 1238 1218 1229
f 1766 22 63 1789 1749
f 34 38 58 54
f 62 43 1779 1790
f 54 58 78 74
f 974 989 77 57 646 706 682 689 962 954 958 966 969
f 74 78 86 82
f 133 125 117 109 101 93 85 77 989 982 1046 1010 1002 1034 1030 1026 1018 1022 1014 1042 998 1006 1038 978 986 994 962 689 694 710 726 718 754 750 742 734 738 730 746 714 722 757 1606 1610 1614 1622 1626 1634 1642 1638 1630 1618 1602 1589 237 229 221 213 205 197 189 181 173 165 157 149 141
f 82 86 94 90
f 90 94 102 98
f 98 102 110 106
f 106 110 118 114
f 114 118 126 122
f 122 126 134 129
f 129 134 142 138
f 1106 1090 130 137 145 153 161 169 177 185 193 201 209 217 225 233 241 249 258 1729 1694 1646 1670 1662 1654 1658 1666 1650 1674 1738 1742 1726 1722 1718 1710 1706 817 810 842 846 834 830 838 826 850 814 822 854 790 1122 1126 1134 1138 1142 1146 1130 1117
f 138 142 150 146
f 146 150 158 154
f 154 158 166 162
f 162 166 174 170
f 170 174 182 178
f 178 182 190 186
f 186 190 198 194
f 194 198 206 202
f 202 206 214 210
f 210 214 222 218
f 218 222 230 226
f 226 230 238 234
f 234 238 246 242
f 1746 325 317 309 301 293 285 277 269 261 253 245 237 1589 1578 1574 1582 1570 1566 1562 1558 1554 1546 1550 1586 1594 1598 1606 757 686 698 702 674 678 670 666 634 1750 1791 1778
f 242 246 254 250
f 250 254 262 257
f 257 262 270 266
f 1729 258 265 273 281 289 298 769 766 782 794 802 806 817 1706 1698 1682 1678 1686 1690 1702 1714 1733
f 266 270 278 274
f 274 278 286 282
f 282 286 294 290
f 290 294 302 297
f 297 302 310 306
f 1542 1530 898 906 918 946 926 938 934 769 298 305 313 321 329 337 345 353 362 1470 1522 1534 1506 1498 1494 1502 1510 1514 1537
f 306 310 318 314
f 314 318 326 322
f 322 326 334 330
f 365 357 349 341 333 325 1746 1755 1767 1750 634 630 618 622 610 661 1378 1382 1374 1366 1362 1354 1346 1350 1358 1370 1386 1421
f 330 334 342 338
f 338 342 350 346
f 346 350 358 354
f 354 358 366 361
f 361 366 374 370
f 1466 1470 362 369 377 385 393 401 409 417 425 433 441 449 457 465 473 481 490 1258 1262 1250 1246 1254 1290 1294 1298 1302 1306 1342 1310 1314 910 950 894 882 902 874 866 858 862 870 878 890 886 898 1530 1526 1518 1482 1478 1486 1474 1490 1462 1454 1450 1446 1457
f 509 501 493 485 477 469 461 453 445 437 429 421 413 405 397 389 381 373 365 1421 1418 1410 1402 1398 1406 1414 1442 1426 1438 1434 1430 1394 1390 1378 661 594 586 582 574 566 562 570 578 602 598 590 606 626 614 658 638 654 1225 1214 1234 1206 1198 1186 1170 1178 1190 1162 1154 1150 1158 1166 1194 1182 1174 1242 1210 1202 549 541 533 525 517
f 370 374 382 378
f 378 382 390 386
f 386 390 398 394
f 394 398 406 402
f 402 406 414 410
f 410 414 422 418
f 418 422 430 426
f 426 430 438 434
f 434 438 446 442
f 442 446 454 450
f 450 454 462 458
f 458 462 470 466
f 466 470 478 474
f 474 478 486 482
f 482 486 494 489
f 489 494 502 498
f 1286 1258 490 497 505 513 521 529 537 545 554 942 930 914 922 910 1314 1334 1326 1322 1330 1318 1338 1274 1278 1282 1266 1269
f 498 502 510 506
f 506 510 518 514
f 514 518 526 522
f 522 526 534 530
f 530 534 542 538
f 538 542 550 546
f 546 550 557 553
f 857 561 565 861
f 865 569 561 857
f 861 565 573 869
f 873 577 569 865
f 869 573 581 877
f 901 601 577 873
f 877 581 585 889
f 889 585 593 885
f 893 589 597 881
f 949 605 589 893
f 885 593 662 897
f 881 597 601 901
f 909 625 605 949
f 609 621 917 905
f 662 609 905 897
f 921 613 625 909
f 913 657 613 921
f 617 629 925 945
f 621 617 945 917
f 925 629 633 665 937
f 929 637 657 913
f 941 653 637 929
f 773 641 649 761
f 773 777 705 645 641
f 761 649 653 941
f 665 669 933 937
f 669 677 770 933
f 673 701 781 765
f 677 673 765 770
f 785 681 705 777
f 797 690 681 785
f 685 758 805 801
f 697 685 801 793
f 789 693 690 797
f 853 709 693 789
f 701 697 793 781
f 725 709 853 821
f 713 745 841 809
f 721 713 809 818
f 717 725 821 813
f 753 717 813 849
f 758 721 818 805
f 729 737 833 845
f 745 729 845 841
f 733 741 837 829
f 737 733 829 833
f 741 749 825 837
f 749 753 849 825
f 1053 953 961 1101
f 1049 957 953 1053
f 1057 965 957 1049
f 1101 961 993 1110
f 1069 970 965 1057
f 1065 973 970 1069
f 1061 990 973 1065
f 977 1037 1133 1125
f 1121 1113 985 977 1125
f 1097 981 990 1061
f 1073 1045 981 1097
f 993 985 1113 1110
f 997 1041 1145 1141
f 1005 997 1141 1137
f 1077 1001 1009 1081
f 1093 1033 1001 1077
f 1037 1005 1137 1133
f 1081 1009 1045 1073
f 1013 1021 1118 1129
f 1041 1013 1129 1145
f 1017 1025 1089 1105
f 1021 1017 1105 1118
f 1025 1029 1085 1089
f 1029 1033 1093 1085
f 1249 1149 1153 1245
f 1261 1157 1149 1249
f 1245 1153 1161 1253
f 1257 1165 1157 1261
f 1253 1161 1189 1289
f 1285 1193 1165 1257
f 1169 1185 1301 1297
f 1177 1169 1297 1293
f 1265 1173 1181 1270
f 1281 1241 1173 1265
f 1189 1177 1293 1289
f 1270 1181 1193 1285
f 1185 1197 1305 1301
f 1197 1205 1341 1305
f 1273 1201 1209 1277
f 1337 1237 1201 1273
f 1205 1233 1309 1341
f 1277 1209 1241 1281
f 1213 1226 1325 1333
f 1313 1309 1233 1213 1333
f 1217 1237 1337 1317
f 1230 1217 1317 1329
f 1221 1230 1329 1321
f 1226 1221 1321 1325
f 1345 1353 1501 1493
f 1349 1345 1493 1497
f 1357 1349 1497 1505
f 1353 1361 1509 1501
f 1369 1357 1505 1533
f 1361 1365 1513 1509
f 1365 1373 1538 1513
f 1521 1385 1369 1533
f 1373 1381 1541 1538
f 1529 1541 1381 1377 1389 1525
f 1469 1422 1385 1521
f 1525 1389 1393 1517
f 1517 1393 1429 1481
f 1449 1397 1401 1445
f 1453 1405 1397 1449
f 1445 1401 1409 1458
f 1461 1413 1405 1453
f 1458 1409 1417 1465
f 1489 1441 1413 1461
f 1417 1422 1469 1465
f 1473 1425 1441 1489
f 1485 1437 1425 1473
f 1481 1429 1433 1477
f 1477 1433 1437 1485
f 1677 1545 1553 1685
f 1681 1549 1545 1677
f 1697 1585 1549 1681
f 1685 1553 1557 1689
f 1557 1561 1701 1689
f 1561 1565 1713 1701
f 1565 1569 1734 1713
f 1569 1581 1730 1734
f 1573 1577 1645 1693
f 1581 1573 1693 1730
f 1577 1590 1669 1645
f 1705 1709 1593 1585 1697
f 1590 1601 1661 1669
f 1717 1597 1593 1709
f 1717 1721 1609 1605 1597
f 1601 1617 1653 1661
f 1725 1613 1609 1721
f 1741 1621 1613 1725
f 1617 1629 1657 1653
f 1737 1625 1621 1741
f 1673 1633 1625 1737
f 1629 1637 1665 1657
f 1649 1641 1633 1673
f 1637 1641 1649 1665
