v -0.800000 1.000000 0.000000
v -0.800000 1.000000 0.000000
v -0.800000 1.000000 0.000000
v -0.800000 1.000000 0.000000
v -0.800000 1.000000 0.000000
v -0.800000 1.000000 0.000000
v -0.800000 1.000000 0.000000
v -0.800000 1.000000 0.000000
v -0.800000 1.000000 0.000000
v -0.800000 1.000000 0.000000
v -0.800000 1.000000 0.000000
v -0.800000 1.000000 0.000000
v -0.800000 1.000000 0.000000
v -0.800000 1.000000 0.000000
v -0.800000 1.000000 0.000000
v -0.800000 1.000000 0.000000
v -0.800000 1.000000 0.000000
v -0.800000 1.000000 0.000000
v -0.800000 1.000000 0.000000
v -0.800000 1.000000 0.000000
v -0.800000 1.000000 0.000000
v -0.800000 1.000000 0.000000
v -0.800000 1.000000 0.000000
v -0.800000 1.000000 0.000000
v -0.800000 1.000000 0.000000
v -0.800000 1.000000 0.000000
v -0.800000 1.000000 0.000000
v -0.800000 1.000000 0.000000
v -0.800000 1.000000 0.000000
v -0.800000 1.000000 0.000000
v -0.800000 1.000000 0.000000
v -0.800000 1.000000 0.000000
v -0.800000 1.000000 0.000000
v -0.604910 0.980785 0.000000
v -0.608658 0.980785 0.038060
v -0.619760 0.980785 0.074658
v -0.637788 0.980785 0.108386
v -0.662050 0.980785 0.137950
v -0.691614 0.980785 0.162212
v -0.725342 0.980785 0.180240
v -0.761940 0.980785 0.191342
v -0.800000 0.980785 0.195090
v -0.838060 0.980785 0.191342
v -0.874658 0.980785 0.180240
v -0.908386 0.980785 0.162212
v -0.937950 0.980785 0.137950
v -0.962212 0.980785 0.108386
v -0.980240 0.980785 0.074658
v -0.991342 0.980785 0.038060
v -0.995090 0.980785 0.000000
v -0.991342 0.980785 -0.038060
v -0.980240 0.980785 -0.074658
v -0.962212 0.980785 -0.108386
v -0.937950 0.980785 -0.137950
v -0.908386 0.980785 -0.162212
v -0.874658 0.980785 -0.180240
v -0.838060 0.980785 -0.191342
v -0.800000 0.980785 -0.195090
v -0.761940 0.980785 -0.191342
v -0.725342 0.980785 -0.180240
v -0.691614 0.980785 -0.162212
v -0.662050 0.980785 -0.137950
v -0.637788 0.980785 -0.108386
v -0.619760 0.980785 -0.074658
v -0.608658 0.980785 -0.038060
v -0.604910 0.980785 -0.000000
v -0.417317 0.923880 0.000000
v -0.424670 0.923880 0.074658
v -0.446447 0.923880 0.146447
v -0.481810 0.923880 0.212608
v -0.529402 0.923880 0.270598
v -0.587392 0.923880 0.318190
v -0.653553 0.923880 0.353553
v -0.725342 0.923880 0.375330
v -0.800000 0.923880 0.382683
v -0.874658 0.923880 0.375330
v -0.946447 0.923880 0.353553
v -1.012608 0.923880 0.318190
v -1.070598 0.923880 0.270598
v -1.118190 0.923880 0.212608
v -1.153553 0.923880 0.146447
v -1.175330 0.923880 0.074658
v -1.182683 0.923880 0.000000
v -1.175330 0.923880 -0.074658
v -1.153553 0.923880 -0.146447
v -1.118190 0.923880 -0.212608
v -1.070598 0.923880 -0.270598
v -1.012608 0.923880 -0.318190
v -0.946447 0.923880 -0.353553
v -0.874658 0.923880 -0.375330
v -0.800000 0.923880 -0.382683
v -0.725342 0.923880 -0.375330
v -0.653553 0.923880 -0.353553
v -0.587392 0.923880 -0.318190
v -0.529402 0.923880 -0.270598
v -0.481810 0.923880 -0.212608
v -0.446447 0.923880 -0.146447
v -0.424670 0.923880 -0.074658
v -0.417317 0.923880 -0.000000
v -0.244430 0.831470 0.000000
v -0.255105 0.831470 0.108386
v -0.286720 0.831470 0.212608
v -0.338060 0.831470 0.308658
v -0.407153 0.831470 0.392847
v -0.491342 0.831470 0.461940
v -0.587392 0.831470 0.513280
v -0.691614 0.831470 0.544895
v -0.800000 0.831470 0.555570
v -0.908386 0.831470 0.544895
v -1.012608 0.831470 0.513280
v -1.108658 0.831470 0.461940
v -1.192847 0.831470 0.392847
v -1.261940 0.831470 0.308658
v -1.313280 0.831470 0.212608
v -1.344895 0.831470 0.108386
v -1.355570 0.831470 0.000000
v -1.344895 0.831470 -0.108386
v -1.313280 0.831470 -0.212608
v -1.261940 0.831470 -0.308658
v -1.192847 0.831470 -0.392847
v -1.108658 0.831470 -0.461940
v -1.012608 0.831470 -0.513280
v -0.908386 0.831470 -0.544895
v -0.800000 0.831470 -0.555570
v -0.691614 0.831470 -0.544895
v -0.587392 0.831470 -0.513280
v -0.491342 0.831470 -0.461940
v -0.407153 0.831470 -0.392847
v -0.338060 0.831470 -0.308658
v -0.286720 0.831470 -0.212608
v -0.255105 0.831470 -0.108386
v -0.244430 0.831470 -0.000000
v -0.092893 0.707107 0.000000
v -0.106480 0.707107 0.137950
v -0.146719 0.707107 0.270598
v -0.212062 0.707107 0.392847
v -0.300000 0.707107 0.500000
v -0.407153 0.707107 0.587938
v -0.529402 0.707107 0.653281
v -0.662050 0.707107 0.693520
v -0.800000 0.707107 0.707107
v -0.937950 0.707107 0.693520
v -1.070598 0.707107 0.653281
v -1.192847 0.707107 0.587938
v -1.300000 0.707107 0.500000
v -1.387938 0.707107 0.392847
v -1.453281 0.707107 0.270598
v -1.493520 0.707107 0.137950
v -1.507107 0.707107 0.000000
v -1.493520 0.707107 -0.137950
v -1.453281 0.707107 -0.270598
v -1.387938 0.707107 -0.392847
v -1.300000 0.707107 -0.500000
v -1.192847 0.707107 -0.587938
v -1.070598 0.707107 -0.653281
v -0.937950 0.707107 -0.693520
v -0.800000 0.707107 -0.707107
v -0.662050 0.707107 -0.693520
v -0.529402 0.707107 -0.653281
v -0.407153 0.707107 -0.587938
v -0.300000 0.707107 -0.500000
v -0.212062 0.707107 -0.392847
v -0.146719 0.707107 -0.270598
v -0.106480 0.707107 -0.137950
v -0.092893 0.707107 -0.000000
v 0.031470 0.555570 0.000000
v 0.015493 0.555570 0.162212
v -0.031822 0.555570 0.318190
v -0.108658 0.555570 0.461940
v -0.212062 0.555570 0.587938
v -0.338060 0.555570 0.691342
v -0.481810 0.555570 0.768178
v -0.637788 0.555570 0.815493
v -0.800000 0.555570 0.831470
v -0.962212 0.555570 0.815493
v -1.118190 0.555570 0.768178
v -1.261940 0.555570 0.691342
v -1.387938 0.555570 0.587938
v -1.491342 0.555570 0.461940
v -1.568178 0.555570 0.318190
v -1.615493 0.555570 0.162212
v -1.631470 0.555570 0.000000
v -1.615493 0.555570 -0.162212
v -1.568178 0.555570 -0.318190
v -1.491342 0.555570 -0.461940
v -1.387938 0.555570 -0.587938
v -1.261940 0.555570 -0.691342
v -1.118190 0.555570 -0.768178
v -0.962212 0.555570 -0.815493
v -0.800000 0.555570 -0.831470
v -0.637788 0.555570 -0.815493
v -0.481810 0.555570 -0.768178
v -0.338060 0.555570 -0.691342
v -0.212062 0.555570 -0.587938
v -0.108658 0.555570 -0.461940
v -0.031822 0.555570 -0.318190
v 0.015493 0.555570 -0.162212
v 0.031470 0.555570 -0.000000
v 0.123880 0.382683 0.000000
v 0.106127 0.382683 0.180240
v 0.053553 0.382683 0.353553
v -0.031822 0.382683 0.513280
v -0.146719 0.382683 0.653281
v -0.286720 0.382683 0.768178
v -0.446447 0.382683 0.853553
v -0.619760 0.382683 0.906127
v -0.800000 0.382683 0.923880
v -0.980240 0.382683 0.906127
v -1.153553 0.382683 0.853553
v -1.313280 0.382683 0.768178
v -1.453281 0.382683 0.653281
v -1.568178 0.382683 0.513280
v -1.653553 0.382683 0.353553
v -1.706127 0.382683 0.180240
v -1.723880 0.382683 0.000000
v -1.706127 0.382683 -0.180240
v -1.653553 0.382683 -0.353553
v -1.568178 0.382683 -0.513280
v -1.453281 0.382683 -0.653281
v -1.313280 0.382683 -0.768178
v -1.153553 0.382683 -0.853553
v -0.980240 0.382683 -0.906127
v -0.800000 0.382683 -0.923880
v -0.619760 0.382683 -0.906127
v -0.446447 0.382683 -0.853553
v -0.286720 0.382683 -0.768178
v -0.146719 0.382683 -0.653281
v -0.031822 0.382683 -0.513280
v 0.053553 0.382683 -0.353553
v 0.106127 0.382683 -0.180240
v 0.123880 0.382683 -0.000000
v 0.180785 0.195090 0.000000
v 0.161940 0.195090 0.191342
v 0.106127 0.195090 0.375330
v 0.015493 0.195090 0.544895
v -0.106480 0.195090 0.693520
v -0.255105 0.195090 0.815493
v -0.424670 0.195090 0.906127
v -0.608658 0.195090 0.961940
v -0.800000 0.195090 0.980785
v -0.991342 0.195090 0.961940
v -1.175330 0.195090 0.906127
v -1.344895 0.195090 0.815493
v -1.493520 0.195090 0.693520
v -1.615493 0.195090 0.544895
v -1.706127 0.195090 0.375330
v -1.761940 0.195090 0.191342
v -1.780785 0.195090 0.000000
v -1.761940 0.195090 -0.191342
v -1.706127 0.195090 -0.375330
v -1.615493 0.195090 -0.544895
v -1.493520 0.195090 -0.693520
v -1.344895 0.195090 -0.815493
v -1.175330 0.195090 -0.906127
v -0.991342 0.195090 -0.961940
v -0.800000 0.195090 -0.980785
v -0.608658 0.195090 -0.961940
v -0.424670 0.195090 -0.906127
v -0.255105 0.195090 -0.815493
v -0.106480 0.195090 -0.693520
v 0.015493 0.195090 -0.544895
v 0.106127 0.195090 -0.375330
v 0.161940 0.195090 -0.191342
v 0.180785 0.195090 -0.000000
v 0.200000 0.000000 0.000000
v 0.180785 0.000000 0.195090
v 0.123880 0.000000 0.382683
v 0.031470 0.000000 0.555570
v -0.092893 0.000000 0.707107
v -0.244430 0.000000 0.831470
v -0.417317 0.000000 0.923880
v -0.604910 0.000000 0.980785
v -0.800000 0.000000 1.000000
v -0.995090 0.000000 0.980785
v -1.182683 0.000000 0.923880
v -1.355570 0.000000 0.831470
v -1.507107 0.000000 0.707107
v -1.631470 0.000000 0.555570
v -1.723880 0.000000 0.382683
v -1.780785 0.000000 0.195090
v -1.800000 0.000000 0.000000
v -1.780785 0.000000 -0.195090
v -1.723880 0.000000 -0.382683
v -1.631470 0.000000 -0.555570
v -1.507107 0.000000 -0.707107
v -1.355570 0.000000 -0.831470
v -1.182683 0.000000 -0.923880
v -0.995090 0.000000 -0.980785
v -0.800000 0.000000 -1.000000
v -0.604910 0.000000 -0.980785
v -0.417317 0.000000 -0.923880
v -0.244430 0.000000 -0.831470
v -0.092893 0.000000 -0.707107
v 0.031470 0.000000 -0.555570
v 0.123880 0.000000 -0.382683
v 0.180785 0.000000 -0.195090
v 0.200000 0.000000 -0.000000
v 0.180785 -0.195090 0.000000
v 0.161940 -0.195090 0.191342
v 0.106127 -0.195090 0.375330
v 0.015493 -0.195090 0.544895
v -0.106480 -0.195090 0.693520
v -0.255105 -0.195090 0.815493
v -0.424670 -0.195090 0.906127
v -0.608658 -0.195090 0.961940
v -0.800000 -0.195090 0.980785
v -0.991342 -0.195090 0.961940
v -1.175330 -0.195090 0.906127
v -1.344895 -0.195090 0.815493
v -1.493520 -0.195090 0.693520
v -1.615493 -0.195090 0.544895
v -1.706127 -0.195090 0.375330
v -1.761940 -0.195090 0.191342
v -1.780785 -0.195090 0.000000
v -1.761940 -0.195090 -0.191342
v -1.706127 -0.195090 -0.375330
v -1.615493 -0.195090 -0.544895
v -1.493520 -0.195090 -0.693520
v -1.344895 -0.195090 -0.815493
v -1.175330 -0.195090 -0.906127
v -0.991342 -0.195090 -0.961940
v -0.800000 -0.195090 -0.980785
v -0.608658 -0.195090 -0.961940
v -0.424670 -0.195090 -0.906127
v -0.255105 -0.195090 -0.815493
v -0.106480 -0.195090 -0.693520
v 0.015493 -0.195090 -0.544895
v 0.106127 -0.195090 -0.375330
v 0.161940 -0.195090 -0.191342
v 0.180785 -0.195090 -0.000000
v 0.123880 -0.382683 0.000000
v 0.106127 -0.382683 0.180240
v 0.053553 -0.382683 0.353553
v -0.031822 -0.382683 0.513280
v -0.146719 -0.382683 0.653281
v -0.286720 -0.382683 0.768178
v -0.446447 -0.382683 0.853553
v -0.619760 -0.382683 0.906127
v -0.800000 -0.382683 0.923880
v -0.980240 -0.382683 0.906127
v -1.153553 -0.382683 0.853553
v -1.313280 -0.382683 0.768178
v -1.453281 -0.382683 0.653281
v -1.568178 -0.382683 0.513280
v -1.653553 -0.382683 0.353553
v -1.706127 -0.382683 0.180240
v -1.723880 -0.382683 0.000000
v -1.706127 -0.382683 -0.180240
v -1.653553 -0.382683 -0.353553
v -1.568178 -0.382683 -0.513280
v -1.453281 -0.382683 -0.653281
v -1.313280 -0.382683 -0.768178
v -1.153553 -0.382683 -0.853553
v -0.980240 -0.382683 -0.906127
v -0.800000 -0.382683 -0.923880
v -0.619760 -0.382683 -0.906127
v -0.446447 -0.382683 -0.853553
v -0.286720 -0.382683 -0.768178
v -0.146719 -0.382683 -0.653281
v -0.031822 -0.382683 -0.513280
v 0.053553 -0.382683 -0.353553
v 0.106127 -0.382683 -0.180240
v 0.123880 -0.382683 -0.000000
v 0.031470 -0.555570 0.000000
v 0.015493 -0.555570 0.162212
v -0.031822 -0.555570 0.318190
v -0.108658 -0.555570 0.461940
v -0.212062 -0.555570 0.587938
v -0.338060 -0.555570 0.691342
v -0.481810 -0.555570 0.768178
v -0.637788 -0.555570 0.815493
v -0.800000 -0.555570 0.831470
v -0.962212 -0.555570 0.815493
v -1.118190 -0.555570 0.768178
v -1.261940 -0.555570 0.691342
v -1.387938 -0.555570 0.587938
v -1.491342 -0.555570 0.461940
v -1.568178 -0.555570 0.318190
v -1.615493 -0.555570 0.162212
v -1.631470 -0.555570 0.000000
v -1.615493 -0.555570 -0.162212
v -1.568178 -0.555570 -0.318190
v -1.491342 -0.555570 -0.461940
v -1.387938 -0.555570 -0.587938
v -1.261940 -0.555570 -0.691342
v -1.118190 -0.555570 -0.768178
v -0.962212 -0.555570 -0.815493
v -0.800000 -0.555570 -0.831470
v -0.637788 -0.555570 -0.815493
v -0.481810 -0.555570 -0.768178
v -0.338060 -0.555570 -0.691342
v -0.212062 -0.555570 -0.587938
v -0.108658 -0.555570 -0.461940
v -0.031822 -0.555570 -0.318190
v 0.015493 -0.555570 -0.162212
v 0.031470 -0.555570 -0.000000
v -0.092893 -0.707107 0.000000
v -0.106480 -0.707107 0.137950
v -0.146719 -0.707107 0.270598
v -0.212062 -0.707107 0.392847
v -0.300000 -0.707107 0.500000
v -0.407153 -0.707107 0.587938
v -0.529402 -0.707107 0.653281
v -0.662050 -0.707107 0.693520
v -0.800000 -0.707107 0.707107
v -0.937950 -0.707107 0.693520
v -1.070598 -0.707107 0.653281
v -1.192847 -0.707107 0.587938
v -1.300000 -0.707107 0.500000
v -1.387938 -0.707107 0.392847
v -1.453281 -0.707107 0.270598
v -1.493520 -0.707107 0.137950
v -1.507107 -0.707107 0.000000
v -1.493520 -0.707107 -0.137950
v -1.453281 -0.707107 -0.270598
v -1.387938 -0.707107 -0.392847
v -1.300000 -0.707107 -0.500000
v -1.192847 -0.707107 -0.587938
v -1.070598 -0.707107 -0.653281
v -0.937950 -0.707107 -0.693520
v -0.800000 -0.707107 -0.707107
v -0.662050 -0.707107 -0.693520
v -0.529402 -0.707107 -0.653281
v -0.407153 -0.707107 -0.587938
v -0.300000 -0.707107 -0.500000
v -0.212062 -0.707107 -0.392847
v -0.146719 -0.707107 -0.270598
v -0.106480 -0.707107 -0.137950
v -0.092893 -0.707107 -0.000000
v -0.244430 -0.831470 0.000000
v -0.255105 -0.831470 0.108386
v -0.286720 -0.831470 0.212608
v -0.338060 -0.831470 0.308658
v -0.407153 -0.831470 0.392847
v -0.491342 -0.831470 0.461940
v -0.587392 -0.831470 0.513280
v -0.691614 -0.831470 0.544895
v -0.800000 -0.831470 0.555570
v -0.908386 -0.831470 0.544895
v -1.012608 -0.831470 0.513280
v -1.108658 -0.831470 0.461940
v -1.192847 -0.831470 0.392847
v -1.261940 -0.831470 0.308658
v -1.313280 -0.831470 0.212608
v -1.344895 -0.831470 0.108386
v -1.355570 -0.831470 0.000000
v -1.344895 -0.831470 -0.108386
v -1.313280 -0.831470 -0.212608
v -1.261940 -0.831470 -0.308658
v -1.192847 -0.831470 -0.392847
v -1.108658 -0.831470 -0.461940
v -1.012608 -0.831470 -0.513280
v -0.908386 -0.831470 -0.544895
v -0.800000 -0.831470 -0.555570
v -0.691614 -0.831470 -0.544895
v -0.587392 -0.831470 -0.513280
v -0.491342 -0.831470 -0.461940
v -0.407153 -0.831470 -0.392847
v -0.338060 -0.831470 -0.308658
v -0.286720 -0.831470 -0.212608
v -0.255105 -0.831470 -0.108386
v -0.244430 -0.831470 -0.000000
v -0.417317 -0.923880 0.000000
v -0.424670 -0.923880 0.074658
v -0.446447 -0.923880 0.146447
v -0.481810 -0.923880 0.212608
v -0.529402 -0.923880 0.270598
v -0.587392 -0.923880 0.318190
v -0.653553 -0.923880 0.353553
v -0.725342 -0.923880 0.375330
v -0.800000 -0.923880 0.382683
v -0.874658 -0.923880 0.375330
v -0.946447 -0.923880 0.353553
v -1.012608 -0.923880 0.318190
v -1.070598 -0.923880 0.270598
v -1.118190 -0.923880 0.212608
v -1.153553 -0.923880 0.146447
v -1.175330 -0.923880 0.074658
v -1.182683 -0.923880 0.000000
v -1.175330 -0.923880 -0.074658
v -1.153553 -0.923880 -0.146447
v -1.118190 -0.923880 -0.212608
v -1.070598 -0.923880 -0.270598
v -1.012608 -0.923880 -0.318190
v -0.946447 -0.923880 -0.353553
v -0.874658 -0.923880 -0.375330
v -0.800000 -0.923880 -0.382683
v -0.725342 -0.923880 -0.375330
v -0.653553 -0.923880 -0.353553
v -0.587392 -0.923880 -0.318190
v -0.529402 -0.923880 -0.270598
v -0.481810 -0.923880 -0.212608
v -0.446447 -0.923880 -0.146447
v -0.424670 -0.923880 -0.074658
v -0.417317 -0.923880 -0.000000
v -0.604910 -0.980785 0.000000
v -0.608658 -0.980785 0.038060
v -0.619760 -0.980785 0.074658
v -0.637788 -0.980785 0.108386
v -0.662050 -0.980785 0.137950
v -0.691614 -0.980785 0.162212
v -0.725342 -0.980785 0.180240
v -0.761940 -0.980785 0.191342
v -0.800000 -0.980785 0.195090
v -0.838060 -0.980785 0.191342
v -0.874658 -0.980785 0.180240
v -0.908386 -0.980785 0.162212
v -0.937950 -0.980785 0.137950
v -0.962212 -0.980785 0.108386
v -0.980240 -0.980785 0.074658
v -0.991342 -0.980785 0.038060
v -0.995090 -0.980785 0.000000
v -0.991342 -0.980785 -0.038060
v -0.980240 -0.980785 -0.074658
v -0.962212 -0.980785 -0.108386
v -0.937950 -0.980785 -0.137950
v -0.908386 -0.980785 -0.162212
v -0.874658 -0.980785 -0.180240
v -0.838060 -0.980785 -0.191342
v -0.800000 -0.980785 -0.195090
v -0.761940 -0.980785 -0.191342
v -0.725342 -0.980785 -0.180240
v -0.691614 -0.980785 -0.162212
v -0.662050 -0.980785 -0.137950
v -0.637788 -0.980785 -0.108386
v -0.619760 -0.980785 -0.074658
v -0.608658 -0.980785 -0.038060
v -0.604910 -0.980785 -0.000000
v -0.800000 -1.000000 0.000000
v -0.800000 -1.000000 0.000000
v -0.800000 -1.000000 0.000000
v -0.800000 -1.000000 0.000000
v -0.800000 -1.000000 0.000000
v -0.800000 -1.000000 0.000000
v -0.800000 -1.000000 0.000000
v -0.800000 -1.000000 0.000000
v -0.800000 -1.000000 0.000000
v -0.800000 -1.000000 0.000000
v -0.800000 -1.000000 0.000000
v -0.800000 -1.000000 0.000000
v -0.800000 -1.000000 0.000000
v -0.800000 -1.000000 0.000000
v -0.800000 -1.000000 0.000000
v -0.800000 -1.000000 0.000000
v -0.800000 -1.000000 0.000000
v -0.800000 -1.000000 -0.000000
v -0.800000 -1.000000 -0.000000
v -0.800000 -1.000000 -0.000000
v -0.800000 -1.000000 -0.000000
v -0.800000 -1.000000 -0.000000
v -0.800000 -1.000000 -0.000000
v -0.800000 -1.000000 -0.000000
v -0.800000 -1.000000 -0.000000
v -0.800000 -1.000000 -0.000000
v -0.800000 -1.000000 -0.000000
v -0.800000 -1.000000 -0.000000
v -0.800000 -1.000000 -0.000000
v -0.800000 -1.000000 -0.000000
v -0.800000 -1.000000 -0.000000
v -0.800000 -1.000000 -0.000000
v -0.800000 -1.000000 -0.000000
v 0.800000 1.000000 0.000000
v 0.800000 1.000000 0.000000
v 0.800000 1.000000 0.000000
v 0.800000 1.000000 0.000000
v 0.800000 1.000000 0.000000
v 0.800000 1.000000 0.000000
v 0.800000 1.000000 0.000000
v 0.800000 1.000000 0.000000
v 0.800000 1.000000 0.000000
v 0.800000 1.000000 0.000000
v 0.800000 1.000000 0.000000
v 0.800000 1.000000 0.000000
v 0.800000 1.000000 0.000000
v 0.800000 1.000000 0.000000
v 0.800000 1.000000 0.000000
v 0.800000 1.000000 0.000000
v 0.800000 1.000000 0.000000
v 0.800000 1.000000 0.000000
v 0.800000 1.000000 0.000000
v 0.800000 1.000000 0.000000
v 0.800000 1.000000 0.000000
v 0.800000 1.000000 0.000000
v 0.800000 1.000000 0.000000
v 0.800000 1.000000 0.000000
v 0.800000 1.000000 0.000000
v 0.800000 1.000000 0.000000
v 0.800000 1.000000 0.000000
v 0.800000 1.000000 0.000000
v 0.800000 1.000000 0.000000
v 0.800000 1.000000 0.000000
v 0.800000 1.000000 0.000000
v 0.800000 1.000000 0.000000
v 0.800000 1.000000 0.000000
v 0.995090 0.980785 0.000000
v 0.991342 0.980785 0.038060
v 0.980240 0.980785 0.074658
v 0.962212 0.980785 0.108386
v 0.937950 0.980785 0.137950
v 0.908386 0.980785 0.162212
v 0.874658 0.980785 0.180240
v 0.838060 0.980785 0.191342
v 0.800000 0.980785 0.195090
v 0.761940 0.980785 0.191342
v 0.725342 0.980785 0.180240
v 0.691614 0.980785 0.162212
v 0.662050 0.980785 0.137950
v 0.637788 0.980785 0.108386
v 0.619760 0.980785 0.074658
v 0.608658 0.980785 0.038060
v 0.604910 0.980785 0.000000
v 0.608658 0.980785 -0.038060
v 0.619760 0.980785 -0.074658
v 0.637788 0.980785 -0.108386
v 0.662050 0.980785 -0.137950
v 0.691614 0.980785 -0.162212
v 0.725342 0.980785 -0.180240
v 0.761940 0.980785 -0.191342
v 0.800000 0.980785 -0.195090
v 0.838060 0.980785 -0.191342
v 0.874658 0.980785 -0.180240
v 0.908386 0.980785 -0.162212
v 0.937950 0.980785 -0.137950
v 0.962212 0.980785 -0.108386
v 0.980240 0.980785 -0.074658
v 0.991342 0.980785 -0.038060
v 0.995090 0.980785 -0.000000
v 1.182683 0.923880 0.000000
v 1.175330 0.923880 0.074658
v 1.153553 0.923880 0.146447
v 1.118190 0.923880 0.212608
v 1.070598 0.923880 0.270598
v 1.012608 0.923880 0.318190
v 0.946447 0.923880 0.353553
v 0.874658 0.923880 0.375330
v 0.800000 0.923880 0.382683
v 0.725342 0.923880 0.375330
v 0.653553 0.923880 0.353553
v 0.587392 0.923880 0.318190
v 0.529402 0.923880 0.270598
v 0.481810 0.923880 0.212608
v 0.446447 0.923880 0.146447
v 0.424670 0.923880 0.074658
v 0.417317 0.923880 0.000000
v 0.424670 0.923880 -0.074658
v 0.446447 0.923880 -0.146447
v 0.481810 0.923880 -0.212608
v 0.529402 0.923880 -0.270598
v 0.587392 0.923880 -0.318190
v 0.653553 0.923880 -0.353553
v 0.725342 0.923880 -0.375330
v 0.800000 0.923880 -0.382683
v 0.874658 0.923880 -0.375330
v 0.946447 0.923880 -0.353553
v 1.012608 0.923880 -0.318190
v 1.070598 0.923880 -0.270598
v 1.118190 0.923880 -0.212608
v 1.153553 0.923880 -0.146447
v 1.175330 0.923880 -0.074658
v 1.182683 0.923880 -0.000000
v 1.355570 0.831470 0.000000
v 1.344895 0.831470 0.108386
v 1.313280 0.831470 0.212608
v 1.261940 0.831470 0.308658
v 1.192847 0.831470 0.392847
v 1.108658 0.831470 0.461940
v 1.012608 0.831470 0.513280
v 0.908386 0.831470 0.544895
v 0.800000 0.831470 0.555570
v 0.691614 0.831470 0.544895
v 0.587392 0.831470 0.513280
v 0.491342 0.831470 0.461940
v 0.407153 0.831470 0.392847
v 0.338060 0.831470 0.308658
v 0.286720 0.831470 0.212608
v 0.255105 0.831470 0.108386
v 0.244430 0.831470 0.000000
v 0.255105 0.831470 -0.108386
v 0.286720 0.831470 -0.212608
v 0.338060 0.831470 -0.308658
v 0.407153 0.831470 -0.392847
v 0.491342 0.831470 -0.461940
v 0.587392 0.831470 -0.513280
v 0.691614 0.831470 -0.544895
v 0.800000 0.831470 -0.555570
v 0.908386 0.831470 -0.544895
v 1.012608 0.831470 -0.513280
v 1.108658 0.831470 -0.461940
v 1.192847 0.831470 -0.392847
v 1.261940 0.831470 -0.308658
v 1.313280 0.831470 -0.212608
v 1.344895 0.831470 -0.108386
v 1.355570 0.831470 -0.000000
v 1.507107 0.707107 0.000000
v 1.493520 0.707107 0.137950
v 1.453281 0.707107 0.270598
v 1.387938 0.707107 0.392847
v 1.300000 0.707107 0.500000
v 1.192847 0.707107 0.587938
v 1.070598 0.707107 0.653281
v 0.937950 0.707107 0.693520
v 0.800000 0.707107 0.707107
v 0.662050 0.707107 0.693520
v 0.529402 0.707107 0.653281
v 0.407153 0.707107 0.587938
v 0.300000 0.707107 0.500000
v 0.212062 0.707107 0.392847
v 0.146719 0.707107 0.270598
v 0.106480 0.707107 0.137950
v 0.092893 0.707107 0.000000
v 0.106480 0.707107 -0.137950
v 0.146719 0.707107 -0.270598
v 0.212062 0.707107 -0.392847
v 0.300000 0.707107 -0.500000
v 0.407153 0.707107 -0.587938
v 0.529402 0.707107 -0.653281
v 0.662050 0.707107 -0.693520
v 0.800000 0.707107 -0.707107
v 0.937950 0.707107 -0.693520
v 1.070598 0.707107 -0.653281
v 1.192847 0.707107 -0.587938
v 1.300000 0.707107 -0.500000
v 1.387938 0.707107 -0.392847
v 1.453281 0.707107 -0.270598
v 1.493520 0.707107 -0.137950
v 1.507107 0.707107 -0.000000
v 1.631470 0.555570 0.000000
v 1.615493 0.555570 0.162212
v 1.568178 0.555570 0.318190
v 1.491342 0.555570 0.461940
v 1.387938 0.555570 0.587938
v 1.261940 0.555570 0.691342
v 1.118190 0.555570 0.768178
v 0.962212 0.555570 0.815493
v 0.800000 0.555570 0.831470
v 0.637788 0.555570 0.815493
v 0.481810 0.555570 0.768178
v 0.338060 0.555570 0.691342
v 0.212062 0.555570 0.587938
v 0.108658 0.555570 0.461940
v 0.031822 0.555570 0.318190
v -0.015493 0.555570 0.162212
v -0.031470 0.555570 0.000000
v -0.015493 0.555570 -0.162212
v 0.031822 0.555570 -0.318190
v 0.108658 0.555570 -0.461940
v 0.212062 0.555570 -0.587938
v 0.338060 0.555570 -0.691342
v 0.481810 0.555570 -0.768178
v 0.637788 0.555570 -0.815493
v 0.800000 0.555570 -0.831470
v 0.962212 0.555570 -0.815493
v 1.118190 0.555570 -0.768178
v 1.261940 0.555570 -0.691342
v 1.387938 0.555570 -0.587938
v 1.491342 0.555570 -0.461940
v 1.568178 0.555570 -0.318190
v 1.615493 0.555570 -0.162212
v 1.631470 0.555570 -0.000000
v 1.723880 0.382683 0.000000
v 1.706127 0.382683 0.180240
v 1.653553 0.382683 0.353553
v 1.568178 0.382683 0.513280
v 1.453281 0.382683 0.653281
v 1.313280 0.382683 0.768178
v 1.153553 0.382683 0.853553
v 0.980240 0.382683 0.906127
v 0.800000 0.382683 0.923880
v 0.619760 0.382683 0.906127
v 0.446447 0.382683 0.853553
v 0.286720 0.382683 0.768178
v 0.146719 0.382683 0.653281
v 0.031822 0.382683 0.513280
v -0.053553 0.382683 0.353553
v -0.106127 0.382683 0.180240
v -0.123880 0.382683 0.000000
v -0.106127 0.382683 -0.180240
v -0.053553 0.382683 -0.353553
v 0.031822 0.382683 -0.513280
v 0.146719 0.382683 -0.653281
v 0.286720 0.382683 -0.768178
v 0.446447 0.382683 -0.853553
v 0.619760 0.382683 -0.906127
v 0.800000 0.382683 -0.923880
v 0.980240 0.382683 -0.906127
v 1.153553 0.382683 -0.853553
v 1.313280 0.382683 -0.768178
v 1.453281 0.382683 -0.653281
v 1.568178 0.382683 -0.513280
v 1.653553 0.382683 -0.353553
v 1.706127 0.382683 -0.180240
v 1.723880 0.382683 -0.000000
v 1.780785 0.195090 0.000000
v 1.761940 0.195090 0.191342
v 1.706127 0.195090 0.375330
v 1.615493 0.195090 0.544895
v 1.493520 0.195090 0.693520
v 1.344895 0.195090 0.815493
v 1.175330 0.195090 0.906127
v 0.991342 0.195090 0.961940
v 0.800000 0.195090 0.980785
v 0.608658 0.195090 0.961940
v 0.424670 0.195090 0.906127
v 0.255105 0.195090 0.815493
v 0.106480 0.195090 0.693520
v -0.015493 0.195090 0.544895
v -0.106127 0.195090 0.375330
v -0.161940 0.195090 0.191342
v -0.180785 0.195090 0.000000
v -0.161940 0.195090 -0.191342
v -0.106127 0.195090 -0.375330
v -0.015493 0.195090 -0.544895
v 0.106480 0.195090 -0.693520
v 0.255105 0.195090 -0.815493
v 0.424670 0.195090 -0.906127
v 0.608658 0.195090 -0.961940
v 0.800000 0.195090 -0.980785
v 0.991342 0.195090 -0.961940
v 1.175330 0.195090 -0.906127
v 1.344895 0.195090 -0.815493
v 1.493520 0.195090 -0.693520
v 1.615493 0.195090 -0.544895
v 1.706127 0.195090 -0.375330
v 1.761940 0.195090 -0.191342
v 1.780785 0.195090 -0.000000
v 1.800000 0.000000 0.000000
v 1.780785 0.000000 0.195090
v 1.723880 0.000000 0.382683
v 1.631470 0.000000 0.555570
v 1.507107 0.000000 0.707107
v 1.355570 0.000000 0.831470
v 1.182683 0.000000 0.923880
v 0.995090 0.000000 0.980785
v 0.800000 0.000000 1.000000
v 0.604910 0.000000 0.980785
v 0.417317 0.000000 0.923880
v 0.244430 0.000000 0.831470
v 0.092893 0.000000 0.707107
v -0.031470 0.000000 0.555570
v -0.123880 0.000000 0.382683
v -0.180785 0.000000 0.195090
v -0.200000 0.000000 0.000000
v -0.180785 0.000000 -0.195090
v -0.123880 0.000000 -0.382683
v -0.031470 0.000000 -0.555570
v 0.092893 0.000000 -0.707107
v 0.244430 0.000000 -0.831470
v 0.417317 0.000000 -0.923880
v 0.604910 0.000000 -0.980785
v 0.800000 0.000000 -1.000000
v 0.995090 0.000000 -0.980785
v 1.182683 0.000000 -0.923880
v 1.355570 0.000000 -0.831470
v 1.507107 0.000000 -0.707107
v 1.631470 0.000000 -0.555570
v 1.723880 0.000000 -0.382683
v 1.780785 0.000000 -0.195090
v 1.800000 0.000000 -0.000000
v 1.780785 -0.195090 0.000000
v 1.761940 -0.195090 0.191342
v 1.706127 -0.195090 0.375330
v 1.615493 -0.195090 0.544895
v 1.493520 -0.195090 0.693520
v 1.344895 -0.195090 0.815493
v 1.175330 -0.195090 0.906127
v 0.991342 -0.195090 0.961940
v 0.800000 -0.195090 0.980785
v 0.608658 -0.195090 0.961940
v 0.424670 -0.195090 0.906127
v 0.255105 -0.195090 0.815493
v 0.106480 -0.195090 0.693520
v -0.015493 -0.195090 0.544895
v -0.106127 -0.195090 0.375330
v -0.161940 -0.195090 0.191342
v -0.180785 -0.195090 0.000000
v -0.161940 -0.195090 -0.191342
v -0.106127 -0.195090 -0.375330
v -0.015493 -0.195090 -0.544895
v 0.106480 -0.195090 -0.693520
v 0.255105 -0.195090 -0.815493
v 0.424670 -0.195090 -0.906127
v 0.608658 -0.195090 -0.961940
v 0.800000 -0.195090 -0.980785
v 0.991342 -0.195090 -0.961940
v 1.175330 -0.195090 -0.906127
v 1.344895 -0.195090 -0.815493
v 1.493520 -0.195090 -0.693520
v 1.615493 -0.195090 -0.544895
v 1.706127 -0.195090 -0.375330
v 1.761940 -0.195090 -0.191342
v 1.780785 -0.195090 -0.000000
v 1.723880 -0.382683 0.000000
v 1.706127 -0.382683 0.180240
v 1.653553 -0.382683 0.353553
v 1.568178 -0.382683 0.513280
v 1.453281 -0.382683 0.653281
v 1.313280 -0.382683 0.768178
v 1.153553 -0.382683 0.853553
v 0.980240 -0.382683 0.906127
v 0.800000 -0.382683 0.923880
v 0.619760 -0.382683 0.906127
v 0.446447 -0.382683 0.853553
v 0.286720 -0.382683 0.768178
v 0.146719 -0.382683 0.653281
v 0.031822 -0.382683 0.513280
v -0.053553 -0.382683 0.353553
v -0.106127 -0.382683 0.180240
v -0.123880 -0.382683 0.000000
v -0.106127 -0.382683 -0.180240
v -0.053553 -0.382683 -0.353553
v 0.031822 -0.382683 -0.513280
v 0.146719 -0.382683 -0.653281
v 0.286720 -0.382683 -0.768178
v 0.446447 -0.382683 -0.853553
v 0.619760 -0.382683 -0.906127
v 0.800000 -0.382683 -0.923880
v 0.980240 -0.382683 -0.906127
v 1.153553 -0.382683 -0.853553
v 1.313280 -0.382683 -0.768178
v 1.453281 -0.382683 -0.653281
v 1.568178 -0.382683 -0.513280
v 1.653553 -0.382683 -0.353553
v 1.706127 -0.382683 -0.180240
v 1.723880 -0.382683 -0.000000
v 1.631470 -0.555570 0.000000
v 1.615493 -0.555570 0.162212
v 1.568178 -0.555570 0.318190
v 1.491342 -0.555570 0.461940
v 1.387938 -0.555570 0.587938
v 1.261940 -0.555570 0.691342
v 1.118190 -0.555570 0.768178
v 0.962212 -0.555570 0.815493
v 0.800000 -0.555570 0.831470
v 0.637788 -0.555570 0.815493
v 0.481810 -0.555570 0.768178
v 0.338060 -0.555570 0.691342
v 0.212062 -0.555570 0.587938
v 0.108658 -0.555570 0.461940
v 0.031822 -0.555570 0.318190
v -0.015493 -0.555570 0.162212
v -0.031470 -0.555570 0.000000
v -0.015493 -0.555570 -0.162212
v 0.031822 -0.555570 -0.318190
v 0.108658 -0.555570 -0.461940
v 0.212062 -0.555570 -0.587938
v 0.338060 -0.555570 -0.691342
v 0.481810 -0.555570 -0.768178
v 0.637788 -0.555570 -0.815493
v 0.800000 -0.555570 -0.831470
v 0.962212 -0.555570 -0.815493
v 1.118190 -0.555570 -0.768178
v 1.261940 -0.555570 -0.691342
v 1.387938 -0.555570 -0.587938
v 1.491342 -0.555570 -0.461940
v 1.568178 -0.555570 -0.318190
v 1.615493 -0.555570 -0.162212
v 1.631470 -0.555570 -0.000000
v 1.507107 -0.707107 0.000000
v 1.493520 -0.707107 0.137950
v 1.453281 -0.707107 0.270598
v 1.387938 -0.707107 0.392847
v 1.300000 -0.707107 0.500000
v 1.192847 -0.707107 0.587938
v 1.070598 -0.707107 0.653281
v 0.937950 -0.707107 0.693520
v 0.800000 -0.707107 0.707107
v 0.662050 -0.707107 0.693520
v 0.529402 -0.707107 0.653281
v 0.407153 -0.707107 0.587938
v 0.300000 -0.707107 0.500000
v 0.212062 -0.707107 0.392847
v 0.146719 -0.707107 0.270598
v 0.106480 -0.707107 0.137950
v 0.092893 -0.707107 0.000000
v 0.106480 -0.707107 -0.137950
v 0.146719 -0.707107 -0.270598
v 0.212062 -0.707107 -0.392847
v 0.300000 -0.707107 -0.500000
v 0.407153 -0.707107 -0.587938
v 0.529402 -0.707107 -0.653281
v 0.662050 -0.707107 -0.693520
v 0.800000 -0.707107 -0.707107
v 0.937950 -0.707107 -0.693520
v 1.070598 -0.707107 -0.653281
v 1.192847 -0.707107 -0.587938
v 1.300000 -0.707107 -0.500000
v 1.387938 -0.707107 -0.392847
v 1.453281 -0.707107 -0.270598
v 1.493520 -0.707107 -0.137950
v 1.507107 -0.707107 -0.000000
v 1.355570 -0.831470 0.000000
v 1.344895 -0.831470 0.108386
v 1.313280 -0.831470 0.212608
v 1.261940 -0.831470 0.308658
v 1.192847 -0.831470 0.392847
v 1.108658 -0.831470 0.461940
v 1.012608 -0.831470 0.513280
v 0.908386 -0.831470 0.544895
v 0.800000 -0.831470 0.555570
v 0.691614 -0.831470 0.544895
v 0.587392 -0.831470 0.513280
v 0.491342 -0.831470 0.461940
v 0.407153 -0.831470 0.392847
v 0.338060 -0.831470 0.308658
v 0.286720 -0.831470 0.212608
v 0.255105 -0.831470 0.108386
v 0.244430 -0.831470 0.000000
v 0.255105 -0.831470 -0.108386
v 0.286720 -0.831470 -0.212608
v 0.338060 -0.831470 -0.308658
v 0.407153 -0.831470 -0.392847
v 0.491342 -0.831470 -0.461940
v 0.587392 -0.831470 -0.513280
v 0.691614 -0.831470 -0.544895
v 0.800000 -0.831470 -0.555570
v 0.908386 -0.831470 -0.544895
v 1.012608 -0.831470 -0.513280
v 1.108658 -0.831470 -0.461940
v 1.192847 -0.831470 -0.392847
v 1.261940 -0.831470 -0.308658
v 1.313280 -0.831470 -0.212608
v 1.344895 -0.831470 -0.108386
v 1.355570 -0.831470 -0.000000
v 1.182683 -0.923880 0.000000
v 1.175330 -0.923880 0.074658
v 1.153553 -0.923880 0.146447
v 1.118190 -0.923880 0.212608
v 1.070598 -0.923880 0.270598
v 1.012608 -0.923880 0.318190
v 0.946447 -0.923880 0.353553
v 0.874658 -0.923880 0.375330
v 0.800000 -0.923880 0.382683
v 0.725342 -0.923880 0.375330
v 0.653553 -0.923880 0.353553
v 0.587392 -0.923880 0.318190
v 0.529402 -0.923880 0.270598
v 0.481810 -0.923880 0.212608
v 0.446447 -0.923880 0.146447
v 0.424670 -0.923880 0.074658
v 0.417317 -0.923880 0.000000
v 0.424670 -0.923880 -0.074658
v 0.446447 -0.923880 -0.146447
v 0.481810 -0.923880 -0.212608
v 0.529402 -0.923880 -0.270598
v 0.587392 -0.923880 -0.318190
v 0.653553 -0.923880 -0.353553
v 0.725342 -0.923880 -0.375330
v 0.800000 -0.923880 -0.382683
v 0.874658 -0.923880 -0.375330
v 0.946447 -0.923880 -0.353553
v 1.012608 -0.923880 -0.318190
v 1.070598 -0.923880 -0.270598
v 1.118190 -0.923880 -0.212608
v 1.153553 -0.923880 -0.146447
v 1.175330 -0.923880 -0.074658
v 1.182683 -0.923880 -0.000000
v 0.995090 -0.980785 0.000000
v 0.991342 -0.980785 0.038060
v 0.980240 -0.980785 0.074658
v 0.962212 -0.980785 0.108386
v 0.937950 -0.980785 0.137950
v 0.908386 -0.980785 0.162212
v 0.874658 -0.980785 0.180240
v 0.838060 -0.980785 0.191342
v 0.800000 -0.980785 0.195090
v 0.761940 -0.980785 0.191342
v 0.725342 -0.980785 0.180240
v 0.691614 -0.980785 0.162212
v 0.662050 -0.980785 0.137950
v 0.637788 -0.980785 0.108386
v 0.619760 -0.980785 0.074658
v 0.608658 -0.980785 0.038060
v 0.604910 -0.980785 0.000000
v 0.608658 -0.980785 -0.038060
v 0.619760 -0.980785 -0.074658
v 0.637788 -0.980785 -0.108386
v 0.662050 -0.980785 -0.137950
v 0.691614 -0.980785 -0.162212
v 0.725342 -0.980785 -0.180240
v 0.761940 -0.980785 -0.191342
v 0.800000 -0.980785 -0.195090
v 0.838060 -0.980785 -0.191342
v 0.874658 -0.980785 -0.180240
v 0.908386 -0.980785 -0.162212
v 0.937950 -0.980785 -0.137950
v 0.962212 -0.980785 -0.108386
v 0.980240 -0.980785 -0.074658
v 0.991342 -0.980785 -0.038060
v 0.995090 -0.980785 -0.000000
v 0.800000 -1.000000 0.000000
v 0.800000 -1.000000 0.000000
v 0.800000 -1.000000 0.000000
v 0.800000 -1.000000 0.000000
v 0.800000 -1.000000 0.000000
v 0.800000 -1.000000 0.000000
v 0.800000 -1.000000 0.000000
v 0.800000 -1.000000 0.000000
v 0.800000 -1.000000 0.000000
v 0.800000 -1.000000 0.000000
v 0.800000 -1.000000 0.000000
v 0.800000 -1.000000 0.000000
v 0.800000 -1.000000 0.000000
v 0.800000 -1.000000 0.000000
v 0.800000 -1.000000 0.000000
v 0.800000 -1.000000 0.000000
v 0.800000 -1.000000 0.000000
v 0.800000 -1.000000 -0.000000
v 0.800000 -1.000000 -0.000000
v 0.800000 -1.000000 -0.000000
v 0.800000 -1.000000 -0.000000
v 0.800000 -1.000000 -0.000000
v 0.800000 -1.000000 -0.000000
v 0.800000 -1.000000 -0.000000
v 0.800000 -1.000000 -0.000000
v 0.800000 -1.000000 -0.000000
v 0.800000 -1.000000 -0.000000
v 0.800000 -1.000000 -0.000000
v 0.800000 -1.000000 -0.000000
v 0.800000 -1.000000 -0.000000
v 0.800000 -1.000000 -0.000000
v 0.800000 -1.000000 -0.000000
v 0.800000 -1.000000 -0.000000
f 1 2 35
f 1 35 34
f 2 3 36
f 2 36 35
f 3 4 37
f 3 37 36
f 4 5 38
f 4 38 37
f 5 6 39
f 5 39 38
f 6 7 40
f 6 40 39
f 7 8 41
f 7 41 40
f 8 9 42
f 8 42 41
f 9 10 43
f 9 43 42
f 10 11 44
f 10 44 43
f 11 12 45
f 11 45 44
f 12 13 46
f 12 46 45
f 13 14 47
f 13 47 46
f 14 15 48
f 14 48 47
f 15 16 49
f 15 49 48
f 16 17 50
f 16 50 49
f 17 18 51
f 17 51 50
f 18 19 52
f 18 52 51
f 19 20 53
f 19 53 52
f 20 21 54
f 20 54 53
f 21 22 55
f 21 55 54
f 22 23 56
f 22 56 55
f 23 24 57
f 23 57 56
f 24 25 58
f 24 58 57
f 25 26 59
f 25 59 58
f 26 27 60
f 26 60 59
f 27 28 61
f 27 61 60
f 28 29 62
f 28 62 61
f 29 30 63
f 29 63 62
f 30 31 64
f 30 64 63
f 31 32 65
f 31 65 64
f 32 33 66
f 32 66 65
f 34 35 68
f 34 68 67
f 35 36 69
f 35 69 68
f 36 37 70
f 36 70 69
f 37 38 71
f 37 71 70
f 38 39 72
f 38 72 71
f 39 40 73
f 39 73 72
f 40 41 74
f 40 74 73
f 41 42 75
f 41 75 74
f 42 43 76
f 42 76 75
f 43 44 77
f 43 77 76
f 44 45 78
f 44 78 77
f 45 46 79
f 45 79 78
f 46 47 80
f 46 80 79
f 47 48 81
f 47 81 80
f 48 49 82
f 48 82 81
f 49 50 83
f 49 83 82
f 50 51 84
f 50 84 83
f 51 52 85
f 51 85 84
f 52 53 86
f 52 86 85
f 53 54 87
f 53 87 86
f 54 55 88
f 54 88 87
f 55 56 89
f 55 89 88
f 56 57 90
f 56 90 89
f 57 58 91
f 57 91 90
f 58 59 92
f 58 92 91
f 59 60 93
f 59 93 92
f 60 61 94
f 60 94 93
f 61 62 95
f 61 95 94
f 62 63 96
f 62 96 95
f 63 64 97
f 63 97 96
f 64 65 98
f 64 98 97
f 65 66 99
f 65 99 98
f 67 68 101
f 67 101 100
f 68 69 102
f 68 102 101
f 69 70 103
f 69 103 102
f 70 71 104
f 70 104 103
f 71 72 105
f 71 105 104
f 72 73 106
f 72 106 105
f 73 74 107
f 73 107 106
f 74 75 108
f 74 108 107
f 75 76 109
f 75 109 108
f 76 77 110
f 76 110 109
f 77 78 111
f 77 111 110
f 78 79 112
f 78 112 111
f 79 80 113
f 79 113 112
f 80 81 114
f 80 114 113
f 81 82 115
f 81 115 114
f 82 83 116
f 82 116 115
f 83 84 117
f 83 117 116
f 84 85 118
f 84 118 117
f 85 86 119
f 85 119 118
f 86 87 120
f 86 120 119
f 87 88 121
f 87 121 120
f 88 89 122
f 88 122 121
f 89 90 123
f 89 123 122
f 90 91 124
f 90 124 123
f 91 92 125
f 91 125 124
f 92 93 126
f 92 126 125
f 93 94 127
f 93 127 126
f 94 95 128
f 94 128 127
f 95 96 129
f 95 129 128
f 96 97 130
f 96 130 129
f 97 98 131
f 97 131 130
f 98 99 132
f 98 132 131
f 100 101 134
f 100 134 133
f 101 102 135
f 101 135 134
f 102 103 136
f 102 136 135
f 103 104 137
f 103 137 136
f 104 105 138
f 104 138 137
f 105 106 139
f 105 139 138
f 106 107 140
f 106 140 139
f 107 108 141
f 107 141 140
f 108 109 142
f 108 142 141
f 109 110 143
f 109 143 142
f 110 111 144
f 110 144 143
f 111 112 145
f 111 145 144
f 112 113 146
f 112 146 145
f 113 114 147
f 113 147 146
f 114 115 148
f 114 148 147
f 115 116 149
f 115 149 148
f 116 117 150
f 116 150 149
f 117 118 151
f 117 151 150
f 118 119 152
f 118 152 151
f 119 120 153
f 119 153 152
f 120 121 154
f 120 154 153
f 121 122 155
f 121 155 154
f 122 123 156
f 122 156 155
f 123 124 157
f 123 157 156
f 124 125 158
f 124 158 157
f 125 126 159
f 125 159 158
f 126 127 160
f 126 160 159
f 127 128 161
f 127 161 160
f 128 129 162
f 128 162 161
f 129 130 163
f 129 163 162
f 130 131 164
f 130 164 163
f 131 132 165
f 131 165 164
f 133 134 167
f 133 167 166
f 134 135 168
f 134 168 167
f 135 136 169
f 135 169 168
f 136 137 170
f 136 170 169
f 137 138 171
f 137 171 170
f 138 139 172
f 138 172 171
f 139 140 173
f 139 173 172
f 140 141 174
f 140 174 173
f 141 142 175
f 141 175 174
f 142 143 176
f 142 176 175
f 143 144 177
f 143 177 176
f 144 145 178
f 144 178 177
f 145 146 179
f 145 179 178
f 146 147 180
f 146 180 179
f 147 148 181
f 147 181 180
f 148 149 182
f 148 182 181
f 149 150 183
f 149 183 182
f 150 151 184
f 150 184 183
f 151 152 185
f 151 185 184
f 152 153 186
f 152 186 185
f 153 154 187
f 153 187 186
f 154 155 188
f 154 188 187
f 155 156 189
f 155 189 188
f 156 157 190
f 156 190 189
f 157 158 191
f 157 191 190
f 158 159 192
f 158 192 191
f 159 160 193
f 159 193 192
f 160 161 194
f 160 194 193
f 161 162 195
f 161 195 194
f 162 163 196
f 162 196 195
f 163 164 197
f 163 197 196
f 164 165 198
f 164 198 197
f 166 167 200
f 166 200 199
f 167 168 201
f 167 201 200
f 168 169 202
f 168 202 201
f 169 170 203
f 169 203 202
f 170 171 204
f 170 204 203
f 171 172 205
f 171 205 204
f 172 173 206
f 172 206 205
f 173 174 207
f 173 207 206
f 174 175 208
f 174 208 207
f 175 176 209
f 175 209 208
f 176 177 210
f 176 210 209
f 177 178 211
f 177 211 210
f 178 179 212
f 178 212 211
f 179 180 213
f 179 213 212
f 180 181 214
f 180 214 213
f 181 182 215
f 181 215 214
f 182 183 216
f 182 216 215
f 183 184 217
f 183 217 216
f 184 185 218
f 184 218 217
f 185 186 219
f 185 219 218
f 186 187 220
f 186 220 219
f 187 188 221
f 187 221 220
f 188 189 222
f 188 222 221
f 189 190 223
f 189 223 222
f 190 191 224
f 190 224 223
f 191 192 225
f 191 225 224
f 192 193 226
f 192 226 225
f 193 194 227
f 193 227 226
f 194 195 228
f 194 228 227
f 195 196 229
f 195 229 228
f 196 197 230
f 196 230 229
f 197 198 231
f 197 231 230
f 199 200 233
f 199 233 232
f 200 201 234
f 200 234 233
f 201 202 235
f 201 235 234
f 202 203 236
f 202 236 235
f 203 204 237
f 203 237 236
f 204 205 238
f 204 238 237
f 205 206 239
f 205 239 238
f 206 207 240
f 206 240 239
f 207 208 241
f 207 241 240
f 208 209 242
f 208 242 241
f 209 210 243
f 209 243 242
f 210 211 244
f 210 244 243
f 211 212 245
f 211 245 244
f 212 213 246
f 212 246 245
f 213 214 247
f 213 247 246
f 214 215 248
f 214 248 247
f 215 216 249
f 215 249 248
f 216 217 250
f 216 250 249
f 217 218 251
f 217 251 250
f 218 219 252
f 218 252 251
f 219 220 253
f 219 253 252
f 220 221 254
f 220 254 253
f 221 222 255
f 221 255 254
f 222 223 256
f 222 256 255
f 223 224 257
f 223 257 256
f 224 225 258
f 224 258 257
f 225 226 259
f 225 259 258
f 226 227 260
f 226 260 259
f 227 228 261
f 227 261 260
f 228 229 262
f 228 262 261
f 229 230 263
f 229 263 262
f 230 231 264
f 230 264 263
f 232 233 266
f 232 266 265
f 233 234 267
f 233 267 266
f 234 235 268
f 234 268 267
f 235 236 269
f 235 269 268
f 236 237 270
f 236 270 269
f 237 238 271
f 237 271 270
f 238 239 272
f 238 272 271
f 239 240 273
f 239 273 272
f 240 241 274
f 240 274 273
f 241 242 275
f 241 275 274
f 242 243 276
f 242 276 275
f 243 244 277
f 243 277 276
f 244 245 278
f 244 278 277
f 245 246 279
f 245 279 278
f 246 247 280
f 246 280 279
f 247 248 281
f 247 281 280
f 248 249 282
f 248 282 281
f 249 250 283
f 249 283 282
f 250 251 284
f 250 284 283
f 251 252 285
f 251 285 284
f 252 253 286
f 252 286 285
f 253 254 287
f 253 287 286
f 254 255 288
f 254 288 287
f 255 256 289
f 255 289 288
f 256 257 290
f 256 290 289
f 257 258 291
f 257 291 290
f 258 259 292
f 258 292 291
f 259 260 293
f 259 293 292
f 260 261 294
f 260 294 293
f 261 262 295
f 261 295 294
f 262 263 296
f 262 296 295
f 263 264 297
f 263 297 296
f 265 266 299
f 265 299 298
f 266 267 300
f 266 300 299
f 267 268 301
f 267 301 300
f 268 269 302
f 268 302 301
f 269 270 303
f 269 303 302
f 270 271 304
f 270 304 303
f 271 272 305
f 271 305 304
f 272 273 306
f 272 306 305
f 273 274 307
f 273 307 306
f 274 275 308
f 274 308 307
f 275 276 309
f 275 309 308
f 276 277 310
f 276 310 309
f 277 278 311
f 277 311 310
f 278 279 312
f 278 312 311
f 279 280 313
f 279 313 312
f 280 281 314
f 280 314 313
f 281 282 315
f 281 315 314
f 282 283 316
f 282 316 315
f 283 284 317
f 283 317 316
f 284 285 318
f 284 318 317
f 285 286 319
f 285 319 318
f 286 287 320
f 286 320 319
f 287 288 321
f 287 321 320
f 288 289 322
f 288 322 321
f 289 290 323
f 289 323 322
f 290 291 324
f 290 324 323
f 291 292 325
f 291 325 324
f 292 293 326
f 292 326 325
f 293 294 327
f 293 327 326
f 294 295 328
f 294 328 327
f 295 296 329
f 295 329 328
f 296 297 330
f 296 330 329
f 298 299 332
f 298 332 331
f 299 300 333
f 299 333 332
f 300 301 334
f 300 334 333
f 301 302 335
f 301 335 334
f 302 303 336
f 302 336 335
f 303 304 337
f 303 337 336
f 304 305 338
f 304 338 337
f 305 306 339
f 305 339 338
f 306 307 340
f 306 340 339
f 307 308 341
f 307 341 340
f 308 309 342
f 308 342 341
f 309 310 343
f 309 343 342
f 310 311 344
f 310 344 343
f 311 312 345
f 311 345 344
f 312 313 346
f 312 346 345
f 313 314 347
f 313 347 346
f 314 315 348
f 314 348 347
f 315 316 349
f 315 349 348
f 316 317 350
f 316 350 349
f 317 318 351
f 317 351 350
f 318 319 352
f 318 352 351
f 319 320 353
f 319 353 352
f 320 321 354
f 320 354 353
f 321 322 355
f 321 355 354
f 322 323 356
f 322 356 355
f 323 324 357
f 323 357 356
f 324 325 358
f 324 358 357
f 325 326 359
f 325 359 358
f 326 327 360
f 326 360 359
f 327 328 361
f 327 361 360
f 328 329 362
f 328 362 361
f 329 330 363
f 329 363 362
f 331 332 365
f 331 365 364
f 332 333 366
f 332 366 365
f 333 334 367
f 333 367 366
f 334 335 368
f 334 368 367
f 335 336 369
f 335 369 368
f 336 337 370
f 336 370 369
f 337 338 371
f 337 371 370
f 338 339 372
f 338 372 371
f 339 340 373
f 339 373 372
f 340 341 374
f 340 374 373
f 341 342 375
f 341 375 374
f 342 343 376
f 342 376 375
f 343 344 377
f 343 377 376
f 344 345 378
f 344 378 377
f 345 346 379
f 345 379 378
f 346 347 380
f 346 380 379
f 347 348 381
f 347 381 380
f 348 349 382
f 348 382 381
f 349 350 383
f 349 383 382
f 350 351 384
f 350 384 383
f 351 352 385
f 351 385 384
f 352 353 386
f 352 386 385
f 353 354 387
f 353 387 386
f 354 355 388
f 354 388 387
f 355 356 389
f 355 389 388
f 356 357 390
f 356 390 389
f 357 358 391
f 357 391 390
f 358 359 392
f 358 392 391
f 359 360 393
f 359 393 392
f 360 361 394
f 360 394 393
f 361 362 395
f 361 395 394
f 362 363 396
f 362 396 395
f 364 365 398
f 364 398 397
f 365 366 399
f 365 399 398
f 366 367 400
f 366 400 399
f 367 368 401
f 367 401 400
f 368 369 402
f 368 402 401
f 369 370 403
f 369 403 402
f 370 371 404
f 370 404 403
f 371 372 405
f 371 405 404
f 372 373 406
f 372 406 405
f 373 374 407
f 373 407 406
f 374 375 408
f 374 408 407
f 375 376 409
f 375 409 408
f 376 377 410
f 376 410 409
f 377 378 411
f 377 411 410
f 378 379 412
f 378 412 411
f 379 380 413
f 379 413 412
f 380 381 414
f 380 414 413
f 381 382 415
f 381 415 414
f 382 383 416
f 382 416 415
f 383 384 417
f 383 417 416
f 384 385 418
f 384 418 417
f 385 386 419
f 385 419 418
f 386 387 420
f 386 420 419
f 387 388 421
f 387 421 420
f 388 389 422
f 388 422 421
f 389 390 423
f 389 423 422
f 390 391 424
f 390 424 423
f 391 392 425
f 391 425 424
f 392 393 426
f 392 426 425
f 393 394 427
f 393 427 426
f 394 395 428
f 394 428 427
f 395 396 429
f 395 429 428
f 397 398 431
f 397 431 430
f 398 399 432
f 398 432 431
f 399 400 433
f 399 433 432
f 400 401 434
f 400 434 433
f 401 402 435
f 401 435 434
f 402 403 436
f 402 436 435
f 403 404 437
f 403 437 436
f 404 405 438
f 404 438 437
f 405 406 439
f 405 439 438
f 406 407 440
f 406 440 439
f 407 408 441
f 407 441 440
f 408 409 442
f 408 442 441
f 409 410 443
f 409 443 442
f 410 411 444
f 410 444 443
f 411 412 445
f 411 445 444
f 412 413 446
f 412 446 445
f 413 414 447
f 413 447 446
f 414 415 448
f 414 448 447
f 415 416 449
f 415 449 448
f 416 417 450
f 416 450 449
f 417 418 451
f 417 451 450
f 418 419 452
f 418 452 451
f 419 420 453
f 419 453 452
f 420 421 454
f 420 454 453
f 421 422 455
f 421 455 454
f 422 423 456
f 422 456 455
f 423 424 457
f 423 457 456
f 424 425 458
f 424 458 457
f 425 426 459
f 425 459 458
f 426 427 460
f 426 460 459
f 427 428 461
f 427 461 460
f 428 429 462
f 428 462 461
f 430 431 464
f 430 464 463
f 431 432 465
f 431 465 464
f 432 433 466
f 432 466 465
f 433 434 467
f 433 467 466
f 434 435 468
f 434 468 467
f 435 436 469
f 435 469 468
f 436 437 470
f 436 470 469
f 437 438 471
f 437 471 470
f 438 439 472
f 438 472 471
f 439 440 473
f 439 473 472
f 440 441 474
f 440 474 473
f 441 442 475
f 441 475 474
f 442 443 476
f 442 476 475
f 443 444 477
f 443 477 476
f 444 445 478
f 444 478 477
f 445 446 479
f 445 479 478
f 446 447 480
f 446 480 479
f 447 448 481
f 447 481 480
f 448 449 482
f 448 482 481
f 449 450 483
f 449 483 482
f 450 451 484
f 450 484 483
f 451 452 485
f 451 485 484
f 452 453 486
f 452 486 485
f 453 454 487
f 453 487 486
f 454 455 488
f 454 488 487
f 455 456 489
f 455 489 488
f 456 457 490
f 456 490 489
f 457 458 491
f 457 491 490
f 458 459 492
f 458 492 491
f 459 460 493
f 459 493 492
f 460 461 494
f 460 494 493
f 461 462 495
f 461 495 494
f 463 464 497
f 463 497 496
f 464 465 498
f 464 498 497
f 465 466 499
f 465 499 498
f 466 467 500
f 466 500 499
f 467 468 501
f 467 501 500
f 468 469 502
f 468 502 501
f 469 470 503
f 469 503 502
f 470 471 504
f 470 504 503
f 471 472 505
f 471 505 504
f 472 473 506
f 472 506 505
f 473 474 507
f 473 507 506
f 474 475 508
f 474 508 507
f 475 476 509
f 475 509 508
f 476 477 510
f 476 510 509
f 477 478 511
f 477 511 510
f 478 479 512
f 478 512 511
f 479 480 513
f 479 513 512
f 480 481 514
f 480 514 513
f 481 482 515
f 481 515 514
f 482 483 516
f 482 516 515
f 483 484 517
f 483 517 516
f 484 485 518
f 484 518 517
f 485 486 519
f 485 519 518
f 486 487 520
f 486 520 519
f 487 488 521
f 487 521 520
f 488 489 522
f 488 522 521
f 489 490 523
f 489 523 522
f 490 491 524
f 490 524 523
f 491 492 525
f 491 525 524
f 492 493 526
f 492 526 525
f 493 494 527
f 493 527 526
f 494 495 528
f 494 528 527
f 496 530 497
f 497 531 498
f 498 532 499
f 499 533 500
f 500 534 501
f 501 535 502
f 502 536 503
f 503 537 504
f 504 538 505
f 505 539 506
f 506 540 507
f 507 541 508
f 508 542 509
f 509 543 510
f 510 544 511
f 511 545 512
f 512 546 513
f 513 547 514
f 514 548 515
f 515 549 516
f 516 550 517
f 517 551 518
f 518 552 519
f 519 553 520
f 520 554 521
f 521 555 522
f 522 556 523
f 523 557 524
f 524 558 525
f 525 559 526
f 526 560 527
f 527 561 528
f 562 563 596
f 562 596 595
f 563 564 597
f 563 597 596
f 564 565 598
f 564 598 597
f 565 566 599
f 565 599 598
f 566 567 600
f 566 600 599
f 567 568 601
f 567 601 600
f 568 569 602
f 568 602 601
f 569 570 603
f 569 603 602
f 570 571 604
f 570 604 603
f 571 572 605
f 571 605 604
f 572 573 606
f 572 606 605
f 573 574 607
f 573 607 606
f 574 575 608
f 574 608 607
f 575 576 609
f 575 609 608
f 576 577 610
f 576 610 609
f 577 578 611
f 577 611 610
f 578 579 612
f 578 612 611
f 579 580 613
f 579 613 612
f 580 581 614
f 580 614 613
f 581 582 615
f 581 615 614
f 582 583 616
f 582 616 615
f 583 584 617
f 583 617 616
f 584 585 618
f 584 618 617
f 585 586 619
f 585 619 618
f 586 587 620
f 586 620 619
f 587 588 621
f 587 621 620
f 588 589 622
f 588 622 621
f 589 590 623
f 589 623 622
f 590 591 624
f 590 624 623
f 591 592 625
f 591 625 624
f 592 593 626
f 592 626 625
f 593 594 627
f 593 627 626
f 595 596 629
f 595 629 628
f 596 597 630
f 596 630 629
f 597 598 631
f 597 631 630
f 598 599 632
f 598 632 631
f 599 600 633
f 599 633 632
f 600 601 634
f 600 634 633
f 601 602 635
f 601 635 634
f 602 603 636
f 602 636 635
f 603 604 637
f 603 637 636
f 604 605 638
f 604 638 637
f 605 606 639
f 605 639 638
f 606 607 640
f 606 640 639
f 607 608 641
f 607 641 640
f 608 609 642
f 608 642 641
f 609 610 643
f 609 643 642
f 610 611 644
f 610 644 643
f 611 612 645
f 611 645 644
f 612 613 646
f 612 646 645
f 613 614 647
f 613 647 646
f 614 615 648
f 614 648 647
f 615 616 649
f 615 649 648
f 616 617 650
f 616 650 649
f 617 618 651
f 617 651 650
f 618 619 652
f 618 652 651
f 619 620 653
f 619 653 652
f 620 621 654
f 620 654 653
f 621 622 655
f 621 655 654
f 622 623 656
f 622 656 655
f 623 624 657
f 623 657 656
f 624 625 658
f 624 658 657
f 625 626 659
f 625 659 658
f 626 627 660
f 626 660 659
f 628 629 662
f 628 662 661
f 629 630 663
f 629 663 662
f 630 631 664
f 630 664 663
f 631 632 665
f 631 665 664
f 632 633 666
f 632 666 665
f 633 634 667
f 633 667 666
f 634 635 668
f 634 668 667
f 635 636 669
f 635 669 668
f 636 637 670
f 636 670 669
f 637 638 671
f 637 671 670
f 638 639 672
f 638 672 671
f 639 640 673
f 639 673 672
f 640 641 674
f 640 674 673
f 641 642 675
f 641 675 674
f 642 643 676
f 642 676 675
f 643 644 677
f 643 677 676
f 644 645 678
f 644 678 677
f 645 646 679
f 645 679 678
f 646 647 680
f 646 680 679
f 647 648 681
f 647 681 680
f 648 649 682
f 648 682 681
f 649 650 683
f 649 683 682
f 650 651 684
f 650 684 683
f 651 652 685
f 651 685 684
f 652 653 686
f 652 686 685
f 653 654 687
f 653 687 686
f 654 655 688
f 654 688 687
f 655 656 689
f 655 689 688
f 656 657 690
f 656 690 689
f 657 658 691
f 657 691 690
f 658 659 692
f 658 692 691
f 659 660 693
f 659 693 692
f 661 662 695
f 661 695 694
f 662 663 696
f 662 696 695
f 663 664 697
f 663 697 696
f 664 665 698
f 664 698 697
f 665 666 699
f 665 699 698
f 666 667 700
f 666 700 699
f 667 668 701
f 667 701 700
f 668 669 702
f 668 702 701
f 669 670 703
f 669 703 702
f 670 671 704
f 670 704 703
f 671 672 705
f 671 705 704
f 672 673 706
f 672 706 705
f 673 674 707
f 673 707 706
f 674 675 708
f 674 708 707
f 675 676 709
f 675 709 708
f 676 677 710
f 676 710 709
f 677 678 711
f 677 711 710
f 678 679 712
f 678 712 711
f 679 680 713
f 679 713 712
f 680 681 714
f 680 714 713
f 681 682 715
f 681 715 714
f 682 683 716
f 682 716 715
f 683 684 717
f 683 717 716
f 684 685 718
f 684 718 717
f 685 686 719
f 685 719 718
f 686 687 720
f 686 720 719
f 687 688 721
f 687 721 720
f 688 689 722
f 688 722 721
f 689 690 723
f 689 723 722
f 690 691 724
f 690 724 723
f 691 692 725
f 691 725 724
f 692 693 726
f 692 726 725
f 694 695 728
f 694 728 727
f 695 696 729
f 695 729 728
f 696 697 730
f 696 730 729
f 697 698 731
f 697 731 730
f 698 699 732
f 698 732 731
f 699 700 733
f 699 733 732
f 700 701 734
f 700 734 733
f 701 702 735
f 701 735 734
f 702 703 736
f 702 736 735
f 703 704 737
f 703 737 736
f 704 705 738
f 704 738 737
f 705 706 739
f 705 739 738
f 706 707 740
f 706 740 739
f 707 708 741
f 707 741 740
f 708 709 742
f 708 742 741
f 709 710 743
f 709 743 742
f 710 711 744
f 710 744 743
f 711 712 745
f 711 745 744
f 712 713 746
f 712 746 745
f 713 714 747
f 713 747 746
f 714 715 748
f 714 748 747
f 715 716 749
f 715 749 748
f 716 717 750
f 716 750 749
f 717 718 751
f 717 751 750
f 718 719 752
f 718 752 751
f 719 720 753
f 719 753 752
f 720 721 754
f 720 754 753
f 721 722 755
f 721 755 754
f 722 723 756
f 722 756 755
f 723 724 757
f 723 757 756
f 724 725 758
f 724 758 757
f 725 726 759
f 725 759 758
f 727 728 761
f 727 761 760
f 728 729 762
f 728 762 761
f 729 730 763
f 729 763 762
f 730 731 764
f 730 764 763
f 731 732 765
f 731 765 764
f 732 733 766
f 732 766 765
f 733 734 767
f 733 767 766
f 734 735 768
f 734 768 767
f 735 736 769
f 735 769 768
f 736 737 770
f 736 770 769
f 737 738 771
f 737 771 770
f 738 739 772
f 738 772 771
f 739 740 773
f 739 773 772
f 740 741 774
f 740 774 773
f 741 742 775
f 741 775 774
f 742 743 776
f 742 776 775
f 743 744 777
f 743 777 776
f 744 745 778
f 744 778 777
f 745 746 779
f 745 779 778
f 746 747 780
f 746 780 779
f 747 748 781
f 747 781 780
f 748 749 782
f 748 782 781
f 749 750 783
f 749 783 782
f 750 751 784
f 750 784 783
f 751 752 785
f 751 785 784
f 752 753 786
f 752 786 785
f 753 754 787
f 753 787 786
f 754 755 788
f 754 788 787
f 755 756 789
f 755 789 788
f 756 757 790
f 756 790 789
f 757 758 791
f 757 791 790
f 758 759 792
f 758 792 791
f 760 761 794
f 760 794 793
f 761 762 795
f 761 795 794
f 762 763 796
f 762 796 795
f 763 764 797
f 763 797 796
f 764 765 798
f 764 798 797
f 765 766 799
f 765 799 798
f 766 767 800
f 766 800 799
f 767 768 801
f 767 801 800
f 768 769 802
f 768 802 801
f 769 770 803
f 769 803 802
f 770 771 804
f 770 804 803
f 771 772 805
f 771 805 804
f 772 773 806
f 772 806 805
f 773 774 807
f 773 807 806
f 774 775 808
f 774 808 807
f 775 776 809
f 775 809 808
f 776 777 810
f 776 810 809
f 777 778 811
f 777 811 810
f 778 779 812
f 778 812 811
f 779 780 813
f 779 813 812
f 780 781 814
f 780 814 813
f 781 782 815
f 781 815 814
f 782 783 816
f 782 816 815
f 783 784 817
f 783 817 816
f 784 785 818
f 784 818 817
f 785 786 819
f 785 819 818
f 786 787 820
f 786 820 819
f 787 788 821
f 787 821 820
f 788 789 822
f 788 822 821
f 789 790 823
f 789 823 822
f 790 791 824
f 790 824 823
f 791 792 825
f 791 825 824
f 793 794 827
f 793 827 826
f 794 795 828
f 794 828 827
f 795 796 829
f 795 829 828
f 796 797 830
f 796 830 829
f 797 798 831
f 797 831 830
f 798 799 832
f 798 832 831
f 799 800 833
f 799 833 832
f 800 801 834
f 800 834 833
f 801 802 835
f 801 835 834
f 802 803 836
f 802 836 835
f 803 804 837
f 803 837 836
f 804 805 838
f 804 838 837
f 805 806 839
f 805 839 838
f 806 807 840
f 806 840 839
f 807 808 841
f 807 841 840
f 808 809 842
f 808 842 841
f 809 810 843
f 809 843 842
f 810 811 844
f 810 844 843
f 811 812 845
f 811 845 844
f 812 813 846
f 812 846 845
f 813 814 847
f 813 847 846
f 814 815 848
f 814 848 847
f 815 816 849
f 815 849 848
f 816 817 850
f 816 850 849
f 817 818 851
f 817 851 850
f 818 819 852
f 818 852 851
f 819 820 853
f 819 853 852
f 820 821 854
f 820 854 853
f 821 822 855
f 821 855 854
f 822 823 856
f 822 856 855
f 823 824 857
f 823 857 856
f 824 825 858
f 824 858 857
f 826 827 860
f 826 860 859
f 827 828 861
f 827 861 860
f 828 829 862
f 828 862 861
f 829 830 863
f 829 863 862
f 830 831 864
f 830 864 863
f 831 832 865
f 831 865 864
f 832 833 866
f 832 866 865
f 833 834 867
f 833 867 866
f 834 835 868
f 834 868 867
f 835 836 869
f 835 869 868
f 836 837 870
f 836 870 869
f 837 838 871
f 837 871 870
f 838 839 872
f 838 872 871
f 839 840 873
f 839 873 872
f 840 841 874
f 840 874 873
f 841 842 875
f 841 875 874
f 842 843 876
f 842 876 875
f 843 844 877
f 843 877 876
f 844 845 878
f 844 878 877
f 845 846 879
f 845 879 878
f 846 847 880
f 846 880 879
f 847 848 881
f 847 881 880
f 848 849 882
f 848 882 881
f 849 850 883
f 849 883 882
f 850 851 884
f 850 884 883
f 851 852 885
f 851 885 884
f 852 853 886
f 852 886 885
f 853 854 887
f 853 887 886
f 854 855 888
f 854 888 887
f 855 856 889
f 855 889 888
f 856 857 890
f 856 890 889
f 857 858 891
f 857 891 890
f 859 860 893
f 859 893 892
f 860 861 894
f 860 894 893
f 861 862 895
f 861 895 894
f 862 863 896
f 862 896 895
f 863 864 897
f 863 897 896
f 864 865 898
f 864 898 897
f 865 866 899
f 865 899 898
f 866 867 900
f 866 900 899
f 867 868 901
f 867 901 900
f 868 869 902
f 868 902 901
f 869 870 903
f 869 903 902
f 870 871 904
f 870 904 903
f 871 872 905
f 871 905 904
f 872 873 906
f 872 906 905
f 873 874 907
f 873 907 906
f 874 875 908
f 874 908 907
f 875 876 909
f 875 909 908
f 876 877 910
f 876 910 909
f 877 878 911
f 877 911 910
f 878 879 912
f 878 912 911
f 879 880 913
f 879 913 912
f 880 881 914
f 880 914 913
f 881 882 915
f 881 915 914
f 882 883 916
f 882 916 915
f 883 884 917
f 883 917 916
f 884 885 918
f 884 918 917
f 885 886 919
f 885 919 918
f 886 887 920
f 886 920 919
f 887 888 921
f 887 921 920
f 888 889 922
f 888 922 921
f 889 890 923
f 889 923 922
f 890 891 924
f 890 924 923
f 892 893 926
f 892 926 925
f 893 894 927
f 893 927 926
f 894 895 928
f 894 928 927
f 895 896 929
f 895 929 928
f 896 897 930
f 896 930 929
f 897 898 931
f 897 931 930
f 898 899 932
f 898 932 931
f 899 900 933
f 899 933 932
f 900 901 934
f 900 934 933
f 901 902 935
f 901 935 934
f 902 903 936
f 902 936 935
f 903 904 937
f 903 937 936
f 904 905 938
f 904 938 937
f 905 906 939
f 905 939 938
f 906 907 940
f 906 940 939
f 907 908 941
f 907 941 940
f 908 909 942
f 908 942 941
f 909 910 943
f 909 943 942
f 910 911 944
f 910 944 943
f 911 912 945
f 911 945 944
f 912 913 946
f 912 946 945
f 913 914 947
f 913 947 946
f 914 915 948
f 914 948 947
f 915 916 949
f 915 949 948
f 916 917 950
f 916 950 949
f 917 918 951
f 917 951 950
f 918 919 952
f 918 952 951
f 919 920 953
f 919 953 952
f 920 921 954
f 920 954 953
f 921 922 955
f 921 955 954
f 922 923 956
f 922 956 955
f 923 924 957
f 923 957 956
f 925 926 959
f 925 959 958
f 926 927 960
f 926 960 959
f 927 928 961
f 927 961 960
f 928 929 962
f 928 962 961
f 929 930 963
f 929 963 962
f 930 931 964
f 930 964 963
f 931 932 965
f 931 965 964
f 932 933 966
f 932 966 965
f 933 934 967
f 933 967 966
f 934 935 968
f 934 968 967
f 935 936 969
f 935 969 968
f 936 937 970
f 936 970 969
f 937 938 971
f 937 971 970
f 938 939 972
f 938 972 971
f 939 940 973
f 939 973 972
f 940 941 974
f 940 974 973
f 941 942 975
f 941 975 974
f 942 943 976
f 942 976 975
f 943 944 977
f 943 977 976
f 944 945 978
f 944 978 977
f 945 946 979
f 945 979 978
f 946 947 980
f 946 980 979
f 947 948 981
f 947 981 980
f 948 949 982
f 948 982 981
f 949 950 983
f 949 983 982
f 950 951 984
f 950 984 983
f 951 952 985
f 951 985 984
f 952 953 986
f 952 986 985
f 953 954 987
f 953 987 986
f 954 955 988
f 954 988 987
f 955 956 989
f 955 989 988
f 956 957 990
f 956 990 989
f 958 959 992
f 958 992 991
f 959 960 993
f 959 993 992
f 960 961 994
f 960 994 993
f 961 962 995
f 961 995 994
f 962 963 996
f 962 996 995
f 963 964 997
f 963 997 996
f 964 965 998
f 964 998 997
f 965 966 999
f 965 999 998
f 966 967 1000
f 966 1000 999
f 967 968 1001
f 967 1001 1000
f 968 969 1002
f 968 1002 1001
f 969 970 1003
f 969 1003 1002
f 970 971 1004
f 970 1004 1003
f 971 972 1005
f 971 1005 1004
f 972 973 1006
f 972 1006 1005
f 973 974 1007
f 973 1007 1006
f 974 975 1008
f 974 1008 1007
f 975 976 1009
f 975 1009 1008
f 976 977 1010
f 976 1010 1009
f 977 978 1011
f 977 1011 1010
f 978 979 1012
f 978 1012 1011
f 979 980 1013
f 979 1013 1012
f 980 981 1014
f 980 1014 1013
f 981 982 1015
f 981 1015 1014
f 982 983 1016
f 982 1016 1015
f 983 984 1017
f 983 1017 1016
f 984 985 1018
f 984 1018 1017
f 985 986 1019
f 985 1019 1018
f 986 987 1020
f 986 1020 1019
f 987 988 1021
f 987 1021 1020
f 988 989 1022
f 988 1022 1021
f 989 990 1023
f 989 1023 1022
f 991 992 1025
f 991 1025 1024
f 992 993 1026
f 992 1026 1025
f 993 994 1027
f 993 1027 1026
f 994 995 1028
f 994 1028 1027
f 995 996 1029
f 995 1029 1028
f 996 997 1030
f 996 1030 1029
f 997 998 1031
f 997 1031 1030
f 998 999 1032
f 998 1032 1031
f 999 1000 1033
f 999 1033 1032
f 1000 1001 1034
f 1000 1034 1033
f 1001 1002 1035
f 1001 1035 1034
f 1002 1003 1036
f 1002 1036 1035
f 1003 1004 1037
f 1003 1037 1036
f 1004 1005 1038
f 1004 1038 1037
f 1005 1006 1039
f 1005 1039 1038
f 1006 1007 1040
f 1006 1040 1039
f 1007 1008 1041
f 1007 1041 1040
f 1008 1009 1042
f 1008 1042 1041
f 1009 1010 1043
f 1009 1043 1042
f 1010 1011 1044
f 1010 1044 1043
f 1011 1012 1045
f 1011 1045 1044
f 1012 1013 1046
f 1012 1046 1045
f 1013 1014 1047
f 1013 1047 1046
f 1014 1015 1048
f 1014 1048 1047
f 1015 1016 1049
f 1015 1049 1048
f 1016 1017 1050
f 1016 1050 1049
f 1017 1018 1051
f 1017 1051 1050
f 1018 1019 1052
f 1018 1052 1051
f 1019 1020 1053
f 1019 1053 1052
f 1020 1021 1054
f 1020 1054 1053
f 1021 1022 1055
f 1021 1055 1054
f 1022 1023 1056
f 1022 1056 1055
f 1024 1025 1058
f 1024 1058 1057
f 1025 1026 1059
f 1025 1059 1058
f 1026 1027 1060
f 1026 1060 1059
f 1027 1028 1061
f 1027 1061 1060
f 1028 1029 1062
f 1028 1062 1061
f 1029 1030 1063
f 1029 1063 1062
f 1030 1031 1064
f 1030 1064 1063
f 1031 1032 1065
f 1031 1065 1064
f 1032 1033 1066
f 1032 1066 1065
f 1033 1034 1067
f 1033 1067 1066
f 1034 1035 1068
f 1034 1068 1067
f 1035 1036 1069
f 1035 1069 1068
f 1036 1037 1070
f 1036 1070 1069
f 1037 1038 1071
f 1037 1071 1070
f 1038 1039 1072
f 1038 1072 1071
f 1039 1040 1073
f 1039 1073 1072
f 1040 1041 1074
f 1040 1074 1073
f 1041 1042 1075
f 1041 1075 1074
f 1042 1043 1076
f 1042 1076 1075
f 1043 1044 1077
f 1043 1077 1076
f 1044 1045 1078
f 1044 1078 1077
f 1045 1046 1079
f 1045 1079 1078
f 1046 1047 1080
f 1046 1080 1079
f 1047 1048 1081
f 1047 1081 1080
f 1048 1049 1082
f 1048 1082 1081
f 1049 1050 1083
f 1049 1083 1082
f 1050 1051 1084
f 1050 1084 1083
f 1051 1052 1085
f 1051 1085 1084
f 1052 1053 1086
f 1052 1086 1085
f 1053 1054 1087
f 1053 1087 1086
f 1054 1055 1088
f 1054 1088 1087
f 1055 1056 1089
f 1055 1089 1088
f 1057 1091 1058
f 1058 1092 1059
f 1059 1093 1060
f 1060 1094 1061
f 1061 1095 1062
f 1062 1096 1063
f 1063 1097 1064
f 1064 1098 1065
f 1065 1099 1066
f 1066 1100 1067
f 1067 1101 1068
f 1068 1102 1069
f 1069 1103 1070
f 1070 1104 1071
f 1071 1105 1072
f 1072 1106 1073
f 1073 1107 1074
f 1074 1108 1075
f 1075 1109 1076
f 1076 1110 1077
f 1077 1111 1078
f 1078 1112 1079
f 1079 1113 1080
f 1080 1114 1081
f 1081 1115 1082
f 1082 1116 1083
f 1083 1117 1084
f 1084 1118 1085
f 1085 1119 1086
f 1086 1120 1087
f 1087 1121 1088
f 1088 1122 1089
